<?xml version="1.0" standalone="no"?>
<!DOCTYPE svg PUBLIC "-//W3C//DTD SVG 20010904//EN"
 "http://www.w3.org/TR/2001/REC-SVG-20010904/DTD/svg10.dtd">
<svg version="1.0" xmlns="http://www.w3.org/2000/svg"
 width="520.000000pt" height="520.000000pt" viewBox="0 0 520.000000 520.000000"
 preserveAspectRatio="xMidYMid meet">
<metadata>
Created by potrace 1.11, written by Peter Selinger 2001-2013
</metadata>
<g transform="translate(0.000000,520.000000) scale(0.100000,-0.100000)"
fill="#000000" stroke="none">
<path d="M1220 2600 l0 -2200 1382 2 1381 3 1 172 1 172 -60 10 c-33 6 -186
31 -340 57 -154 25 -291 47 -305 49 -14 2 -43 7 -65 10 -22 4 -159 26 -305 50
-146 24 -285 47 -310 50 -25 3 -52 8 -60 10 -8 2 -28 6 -45 9 -83 12 -122 19
-140 22 -11 3 -36 6 -55 9 -19 2 -87 13 -150 24 -63 11 -137 23 -165 26 -27 4
-54 11 -59 16 -11 10 -13 1155 -2 1166 3 4 12 8 19 9 46 7 108 17 217 35 69
11 141 22 160 25 19 3 58 9 85 14 28 6 68 12 90 16 52 7 153 23 185 28 38 7
280 46 320 52 19 3 46 7 60 10 55 10 67 12 110 18 25 3 56 8 70 11 13 2 42 7
65 11 22 3 146 23 275 44 129 22 251 41 270 44 86 12 125 18 129 22 2 2 4 82
5 179 l1 175 -1032 0 c-977 0 -1033 1 -1034 18 -6 118 0 1135 7 1142 5 4 34
11 64 15 30 3 63 8 73 11 10 3 32 7 50 10 18 2 43 6 57 9 32 6 62 11 185 29
55 9 154 25 220 36 66 12 136 23 155 26 19 2 73 11 120 19 47 8 103 17 125 20
22 3 63 10 90 15 28 5 68 12 90 15 23 3 52 7 65 10 13 3 42 7 65 10 22 3 47 8
55 10 8 2 33 6 55 9 22 4 110 18 195 32 85 14 169 27 185 30 17 2 57 9 90 15
33 6 71 12 84 14 13 2 26 6 28 9 4 4 7 284 4 334 -1 9 -284 12 -1381 12
l-1380 0 0 -2200z"/>
</g>
</svg>
