<svg xmlns="http://www.w3.org/2000/svg" width="30" height="30" viewBox="0 0 30 30">
    <path fill="#FD0" fill-rule="evenodd" d="M27.059 26.125a.934.934 0 0 1-.934.933H3.733a.934.934 0 0 1-.934-.933V12.129h3.733c-.487.7-.651 2.005-.651 2.834 0 4.996 4.075 9.061 9.082 9.061 5.009 0 9.083-4.065 9.083-9.061 0-.829-.117-2.114-.719-2.834h3.732v13.996zM14.963 9.234c3.172 0 5.742 2.566 5.742 5.729 0 3.164-2.57 5.728-5.742 5.728a5.734 5.734 0 0 1-5.74-5.728 5.735 5.735 0 0 1 5.74-5.729zm6.497-4.569c0-.516.418-.934.933-.934h2.8c.514 0 .932.418.932.934v2.799a.933.933 0 0 1-.932.933h-2.8a.933.933 0 0 1-.933-.933V4.665zM26.308 0H3.55A3.545 3.545 0 0 0 0 3.541v22.775a3.545 3.545 0 0 0 3.55 3.54h22.758a3.545 3.545 0 0 0 3.55-3.54V3.541A3.545 3.545 0 0 0 26.308 0z"/>
</svg>
