<svg xmlns="http://www.w3.org/2000/svg" width="189" height="35" viewBox="0 0 189 35"><path fill="#FD0" fill-rule="evenodd" d="M166.841 0v34.259h21.496v-2.716l-3.39-.553-12.682-2.067v-9.168l16.072-2.6v-2.738h-16.072v-9.08l16.072-2.62V0h-21.496zm-34.319 0v2.698l13 2.62v28.94h5.423V5.319l13.048-2.62V0h-31.47zm-13.374 0l-15.955 34.259h5.972l7.907-17.062 8.686-1.416 8.564 18.478h5.97L124.339 0h-5.19zm-13.705 0l-8.95 19.314-6.746 1.1L80.287 0h-5.971L90.27 34.259h5.19L111.414 0h-5.97zM49.964 0v34.259H71.46v-2.716l-16.072-2.62v-9.168l16.072-2.6v-2.738H55.388v-9.08l16.072-2.62V0H49.964zM24.816 0v34.259h21.827v-2.717L30.24 28.921V0h-5.424zM0 0v34.259h21.495v-2.716l-16.072-2.62v-9.168l16.072-2.6v-2.738H5.423v-9.08l16.072-2.62V0H0z"/></svg>