<?xml version="1.0" encoding="utf-8"?>
<!-- Generator: Adobe Illustrator 21.1.0, SVG Export Plug-In . SVG Version: 6.00 Build 0)  -->
<svg version="1.1" id="Layer_1" xmlns="http://www.w3.org/2000/svg" xmlns:xlink="http://www.w3.org/1999/xlink" x="0px" y="0px"
	 viewBox="0 0 900 900" style="enable-background:new 0 0 900 900;" xml:space="preserve">
<style type="text/css">
	.st0{fill:#FFFFFF;}
	.st1{fill:#FFDD00;}
</style>
<title>ELEVATE_splash-pg_PATTERN+LOGO-SLICE_v2</title>
<path class="st0" d="M900,900H0V0h900V900z M17.5,882h865.1V18H17.5V882z"/>
<rect x="348.6" y="457.9" class="st1" width="335.5" height="5.1"/>
<path class="st0" d="M96.9,307.7l3.5-0.4c1.1-0.3,2.2,0.3,2.5,1.4c0,0.1,0.1,0.3,0.1,0.4l11.2,44.3l10.2-43.7c0.1-1.2,1.2-2.1,2.3-2
	c0,0,0.1,0,0.1,0h3.9c1.2-0.1,2.2,0.7,2.4,1.9c0,0,0,0,0,0.1l10.4,43.7l10.8-43.7c0.2-1.2,1.2-2.1,2.4-2h3.5c1.7,0,2.4,0.9,2,2.5
	l-14.5,50.6c-0.2,1.2-1.3,2.1-2.5,2h-3.9c-1.2,0.1-2.3-0.7-2.4-2c0,0,0,0,0,0L128.5,318l-10.1,42.7c-0.2,1.2-1.2,2.1-2.4,2h-3.9
	c-1.2,0.1-2.3-0.8-2.5-2l-14.4-50.4c-0.4-1,0-2.1,1-2.5C96.4,307.7,96.6,307.7,96.9,307.7z"/>
<path class="st0" d="M184.9,318c10.1,0,16.3,6.1,16.3,16.3v6.7c0.1,1.1-0.7,2.1-1.8,2.3c-0.2,0-0.3,0-0.5,0l-23-0.1v3.5
	c-0.1,7,3.1,10.4,9,10.4c4.1,0,6.6-1.6,7.9-4c0.7-1.3,1.4-1.7,2.8-1.3l2.4,0.6c1.4,0.4,2.1,1.4,1.5,2.7c-2.2,4.9-7.2,8.4-14.6,8.4
	c-10.1,0-16.3-6.1-16.3-16.3v-13.1C168.6,324.1,174.8,318,184.9,318z M193.8,334.9c0-6.9-3.1-10.5-9-10.5s-9,3.5-9,10.5v2.5h18
	V334.9z"/>
<path class="st0" d="M218.8,353.2c1.5,2.4,4.2,4.2,8.5,4.2c5.7,0,8.4-3,8.4-6.7v-0.5c0-4.4-3.9-5.7-9.8-6.4c-7.6-0.9-14-4.2-14-12.1
	v-1.4c0-7.2,4.8-12.3,14.7-12.3c7.8,0,12.6,3.5,14.4,8.2c0.5,1.4-0.2,2.4-1.5,2.7l-2.4,0.6c-1.4,0.4-2-0.1-2.7-1.4
	c-1.1-2.4-3.5-4.1-7.8-4.1c-5.4,0-7.5,2.8-7.5,6.5v0.4c0,4,3.5,5.4,9.4,6.3c7.6,1.2,14.5,3.3,14.5,11.9v1.8
	c-0.1,7.2-5.7,12.6-15.7,12.6c-7.9,0-13.1-3.2-15.3-8.1c-0.6-1.3,0.1-2.4,1.5-2.7l2.6-0.7C217.4,351.5,218,352.1,218.8,353.2z"/>
<path class="st0" d="M251.7,325c-1.1,0.1-2.1-0.6-2.3-1.7c0-0.2,0-0.3,0-0.5V321c-0.1-1.1,0.7-2.1,1.8-2.3c0.2,0,0.3,0,0.5,0h2.4
	l1.1-5.2c0.1-1.1,1-2,2-2.2l1.7-0.2c1.4-0.3,2.3,0.5,2.3,2v5.6h9.9c1.5,0,2.2,0.8,2.2,2.3v1.7c0,1.5-0.7,2.3-2.2,2.3h-9.9l-0.1,24
	c0,6.3,1.1,8.6,6.4,8.6c1.2,0,2.3-0.1,3.5-0.3c1.5-0.2,2.4,0.4,2.7,1.8l0.2,1.5c0.4,1-0.2,2.1-1.2,2.5c-0.2,0.1-0.4,0.1-0.6,0.1
	c-1.8,0.4-3.5,0.6-5.3,0.6c-9.5,0-12.9-3.9-12.9-14V325H251.7z"/>
<path class="st0" d="M308,353.2c1.5,2.4,4.2,4.2,8.5,4.2c5.7,0,8.4-3,8.4-6.7v-0.5c0-4.4-3.9-5.7-9.8-6.4c-7.6-0.9-14-4.2-14-12.1
	v-1.4c0-7.2,4.8-12.3,14.7-12.3c7.8,0,12.6,3.5,14.4,8.2c0.5,1.4-0.2,2.4-1.5,2.7l-2.4,0.6c-1.4,0.4-2-0.1-2.7-1.4
	c-1.1-2.4-3.5-4.1-7.8-4.1c-5.4,0-7.5,2.8-7.5,6.5v0.4c0,4,3.5,5.4,9.4,6.3c7.6,1.2,14.5,3.3,14.5,11.9v1.8
	c-0.1,7.2-5.7,12.6-15.6,12.6c-7.9,0-13.1-3.2-15.3-8.1c-0.6-1.3,0.1-2.4,1.5-2.7l2.6-0.7C306.6,351.5,307.3,352.1,308,353.2z"/>
<path class="st0" d="M350.2,321v39.4c0.1,1.1-0.6,2.1-1.7,2.3c-0.2,0-0.3,0-0.5,0h-2.8c-1.1,0.1-2.1-0.7-2.3-1.8c0-0.2,0-0.3,0-0.5
	V325h-2.5c-1.1,0.1-2.1-0.6-2.3-1.7c0-0.2,0-0.3,0-0.5V321c-0.1-1.1,0.7-2.1,1.8-2.3c0.2,0,0.3,0,0.5,0h7.6c1.1-0.1,2.1,0.7,2.2,1.8
	C350.3,320.7,350.3,320.9,350.2,321z M346.5,315.1c-2.7,0-4.4-1.3-4.4-4.6c0-3.4,1.7-4.8,4.4-4.8c2.7,0,4.6,1.4,4.6,4.8
	C351,313.7,349.1,315.1,346.5,315.1L346.5,315.1z"/>
<path class="st0" d="M389.8,361.8c-0.4-0.9-0.8-1.9-1.1-2.9c-3.1,3-7.1,4.6-11.4,4.6c-9.5,0-14.5-6.1-14.5-16.3v-13.6
	c0-10.1,4.8-15.7,14-15.7c3.7-0.1,7.4,0.7,10.8,2.2v-11.9c-0.1-1.3,0.9-2.3,2.1-2.4c0,0,0,0,0,0l2.7-0.3c1.6-0.2,2.4,0.5,2.4,2V349
	c0,4.7,0.2,7.3,1.3,10c0.5,1.4,0.2,2.4-1.2,2.9l-2.3,0.8C391.4,363.2,390.4,363,389.8,361.8z M377.9,324.5c-5.5,0-7.9,3.4-7.9,10.1
	v11.7c0,7.1,2.3,10.7,8.2,10.7c4.3,0,7.5-1.8,9.4-4.9v-25.5C384.6,325.2,381.2,324.5,377.9,324.5L377.9,324.5z"/>
<path class="st0" d="M423.6,318c10.1,0,16.3,6.1,16.3,16.3v6.7c0.1,1.1-0.7,2.1-1.8,2.3c-0.2,0-0.3,0-0.5,0l-22.9-0.1v3.5
	c-0.1,7,3.1,10.4,9,10.4c4.1,0,6.6-1.6,7.9-4c0.7-1.3,1.4-1.7,2.8-1.3l2.4,0.6c1.4,0.4,2.1,1.4,1.5,2.7c-2.2,4.9-7.2,8.4-14.6,8.4
	c-10.1,0-16.3-6.1-16.3-16.3v-13.1C407.3,324.1,413.6,318,423.6,318z M432.6,334.9c0-6.9-3.1-10.5-9-10.5s-9,3.5-9,10.5v2.5h18
	V334.9z"/>
<path class="st0" d="M472.5,351.5v-43.2c-0.1-1.2,0.8-2.3,2-2.4c0,0,0.1,0,0.1,0l2.7-0.3c1.6-0.2,2.4,0.5,2.4,2l0.1,41.4
	c-0.1,4.7,0.2,7.3,1.3,10c0.5,1.4,0.1,2.4-1.2,2.9l-2.6,0.8c-1.3,0.5-2.2,0.4-2.7-0.5C473.1,359.2,472.5,356.1,472.5,351.5z"/>
<path class="st0" d="M499.9,321v39.4c0.1,1.1-0.6,2.1-1.7,2.3c-0.2,0-0.3,0-0.5,0h-2.7c-1.1,0.1-2.1-0.7-2.3-1.8c0-0.2,0-0.3,0-0.5
	V325h-2.5c-1.1,0.1-2.1-0.6-2.3-1.7c0-0.2,0-0.3,0-0.5V321c-0.1-1.1,0.7-2.1,1.8-2.3c0.2,0,0.3,0,0.5,0h7.6c1.1-0.1,2.1,0.7,2.2,1.8
	C499.9,320.7,499.9,320.9,499.9,321z M496.1,315.1c-2.7,0-4.4-1.3-4.4-4.6c0-3.4,1.7-4.8,4.4-4.8s4.6,1.4,4.6,4.8
	C500.7,313.7,498.8,315.1,496.1,315.1z"/>
<path class="st0" d="M510.4,318.7l3.2-0.4c1.1-0.3,2.2,0.3,2.5,1.4c0,0.1,0,0.2,0.1,0.3l10,34l9.7-33.4c0.2-1.2,1.3-2,2.5-1.9h3.2
	c1.7,0,2.4,1,1.9,2.6l-13.2,39.5c-0.3,1.2-1.4,2-2.6,1.9h-3.2c-1.2,0.1-2.3-0.7-2.5-1.9l-13.2-39.5c-0.4-0.9-0.1-2,0.9-2.5
	C509.8,318.7,510.1,318.7,510.4,318.7z"/>
<path class="st0" d="M559.6,321v39.4c0.1,1.1-0.6,2.1-1.7,2.3c-0.2,0-0.3,0-0.5,0h-2.7c-1.1,0.1-2.1-0.7-2.3-1.8c0-0.2,0-0.3,0-0.5
	V325h-2.5c-1.1,0.1-2.1-0.6-2.3-1.7c0-0.2,0-0.3,0-0.5V321c-0.1-1.1,0.7-2.1,1.8-2.3c0.2,0,0.3,0,0.5,0h7.6c1.1-0.1,2.1,0.7,2.2,1.8
	C559.6,320.7,559.6,320.9,559.6,321z M555.8,315.1c-2.7,0-4.4-1.3-4.4-4.6c0-3.4,1.7-4.8,4.4-4.8s4.6,1.4,4.6,4.8
	C560.4,313.7,558.5,315.1,555.8,315.1L555.8,315.1z"/>
<path class="st0" d="M574.7,318.7l2.7-0.3c1-0.3,2,0.2,2.4,1.2c0.1,0.3,0.1,0.5,0.1,0.8l-0.1,2.7c2.7-2.8,6.8-5.2,11.1-5.2
	c9.4,0,13.4,5.3,13.4,15.2v27.3c0.1,1.1-0.6,2.1-1.7,2.3c-0.2,0-0.3,0-0.5,0h-2.8c-1.1,0.1-2.1-0.7-2.2-1.8c0-0.2,0-0.3,0-0.5v-26.3
	c0-6.4-1.8-9.7-7.5-9.7c-3.8,0-7.6,3-9.6,5.8l-0.1,30.2c0,1.5-0.7,2.3-2.2,2.3h-2.7c-1.1,0.1-2.1-0.7-2.3-1.8c0-0.2,0-0.3,0-0.5V321
	C572.5,319.8,573.4,318.8,574.7,318.7C574.6,318.7,574.7,318.7,574.7,318.7z"/>
<path class="st0" d="M648.8,321v39.7c0,9.7-6.4,14.6-15.9,14.6c-8.6,0-13.8-2.8-15.3-8.3c-0.5-1.3,0.3-2.3,1.8-2.5l2.7-0.4
	c1.3-0.2,2,0.3,2.7,1.5c1.1,2.4,3.5,3.2,8.2,3.2c5.2,0,8.6-2.4,8.6-9v-4.6c-2.9,2.9-6.8,4.5-10.8,4.6c-9.6,0-13.9-5.3-13.9-15.5
	v-10.5c0-10.1,4.7-15.7,13.9-15.7c3.9,0,7.7,0.8,11.2,2.4l0.7-0.6c0.8-0.7,1.7-1,2.7-0.9h1.3C648.1,318.8,648.8,319.5,648.8,321z
	 M631.9,324.6c-5.5,0-7.9,3.4-7.9,10.1l0.1,8.6c-0.1,6.6,2.1,9.8,7.8,9.8c3.8,0,7.4-2.2,9.8-4.9l-0.1-21.5
	C638.5,325.2,635.2,324.5,631.9,324.6L631.9,324.6z"/>
<path class="st0" d="M689.3,321v39.4c0.1,1.1-0.6,2.1-1.7,2.3c-0.2,0-0.3,0-0.5,0h-2.7c-1.1,0.1-2.1-0.7-2.3-1.8c0-0.2,0-0.3,0-0.5
	V325h-2.5c-1.1,0.1-2.1-0.6-2.3-1.7c0-0.2,0-0.3,0-0.5V321c-0.1-1.1,0.7-2.1,1.8-2.3c0.2,0,0.3,0,0.5,0h7.6c1.1-0.1,2.1,0.7,2.2,1.8
	C689.3,320.7,689.3,320.9,689.3,321z M685.5,315.1c-2.7,0-4.4-1.3-4.4-4.6c0-3.4,1.7-4.8,4.4-4.8s4.6,1.4,4.6,4.8
	C690.1,313.7,688.2,315.1,685.5,315.1L685.5,315.1z"/>
<path class="st0" d="M707.7,353.2c1.5,2.4,4.2,4.2,8.5,4.2c5.7,0,8.4-3,8.4-6.7v-0.5c0-4.4-3.9-5.7-9.8-6.4c-7.6-0.9-14-4.2-14-12.1
	v-1.4c0-7.2,4.8-12.3,14.7-12.3c7.8,0,12.6,3.5,14.4,8.2c0.5,1.4-0.2,2.4-1.5,2.7l-2.4,0.6c-1.4,0.4-2-0.1-2.7-1.4
	c-1.1-2.4-3.5-4.1-7.8-4.1c-5.4,0-7.5,2.8-7.5,6.5v0.4c0,4,3.5,5.4,9.4,6.3c7.6,1.2,14.5,3.3,14.5,11.9v1.8
	c-0.1,7.2-5.7,12.6-15.6,12.6c-7.9,0-13.1-3.2-15.3-8.1c-0.6-1.3,0.1-2.4,1.5-2.7l2.6-0.7C706.3,351.5,706.9,352.1,707.7,353.2z"/>
<path class="st0" d="M115.1,404.2c10.1,0,16.3,6.1,16.3,16.3v13c0,10.1-6.2,16.3-16.3,16.3s-16.3-6.1-16.3-16.3v-13
	C98.8,410.3,105.1,404.2,115.1,404.2z M115.1,443.2c5.7,0,9-3.6,9-10.7v-11.2c0-7.1-3.2-10.7-9-10.7c-5.7,0-9,3.6-9,10.7v11.2
	C106.1,439.6,109.3,443.2,115.1,443.2z"/>
<path class="st0" d="M145.9,404.9l2.7-0.3c1-0.3,2,0.2,2.4,1.2c0.1,0.3,0.1,0.5,0.1,0.8l-0.1,2.7c2.7-2.8,6.8-5.2,11.1-5.2
	c9.4,0,13.4,5.3,13.4,15.2v27.3c0.1,1.1-0.6,2.1-1.7,2.3c-0.2,0-0.3,0-0.5,0h-2.8c-1.1,0.1-2.1-0.7-2.2-1.8c0-0.2,0-0.3,0-0.5v-26.3
	c0-6.4-1.8-9.7-7.5-9.7c-3.8,0-7.6,3-9.6,5.8l-0.1,30.2c0,1.5-0.7,2.3-2.2,2.3h-2.7c-1.1,0.1-2.1-0.7-2.3-1.8c0-0.2,0-0.3,0-0.5
	v-39.4C143.7,406,144.6,405,145.9,404.9C145.9,404.9,145.9,404.9,145.9,404.9z"/>
<path class="st0" d="M206.6,411.2c-1.1,0.1-2.1-0.6-2.3-1.7c0-0.2,0-0.3,0-0.5v-1.7c-0.1-1.1,0.7-2.1,1.8-2.3c0.2,0,0.3,0,0.5,0h2.4
	l1.1-5.2c0.1-1.1,1-2,2-2.2l1.7-0.2c1.4-0.3,2.3,0.5,2.3,2v5.6h9.9c1.5,0,2.2,0.8,2.2,2.3v1.7c0,1.5-0.7,2.3-2.2,2.3h-9.9l-0.1,23.9
	c0,6.3,1.1,8.6,6.4,8.6c1.2,0,2.3-0.1,3.5-0.3c1.5-0.2,2.4,0.4,2.7,1.8l0.2,1.5c0.4,1-0.2,2.1-1.2,2.5c-0.2,0.1-0.4,0.1-0.6,0.1
	c-1.8,0.4-3.5,0.6-5.3,0.6c-9.5,0-12.9-3.9-12.9-14v-24.8H206.6z"/>
<path class="st0" d="M239.3,392.1l2.7-0.3c1-0.3,2,0.3,2.3,1.2c0.1,0.3,0.1,0.5,0.1,0.8v15.3c2.8-3.1,6.8-4.8,11-4.9
	c9.4,0,13.4,5.1,13.4,14.8v27.7c0.1,1.1-0.6,2.1-1.7,2.3c-0.2,0-0.3,0-0.5,0h-2.8c-1.1,0.1-2.1-0.7-2.2-1.8c0-0.2,0-0.3,0-0.5v-26.6
	c0-6.4-2-9.4-7.6-9.4c-3.8,0-7.4,2.7-9.5,5.5v30.6c0.1,1.1-0.6,2.1-1.7,2.3c-0.2,0-0.3,0-0.5,0h-2.7c-1.1,0.1-2.1-0.7-2.3-1.8
	c0-0.2,0-0.3,0-0.5v-52.2C237.1,393.3,238,392.2,239.3,392.1C239.3,392.1,239.3,392.1,239.3,392.1z"/>
<path class="st0" d="M297.3,404.2c10.1,0,16.3,6.1,16.3,16.3v6.7c0.1,1.1-0.7,2.1-1.8,2.3c-0.2,0-0.3,0-0.5,0l-22.9-0.1v3.5
	c-0.1,7,3.1,10.4,9,10.4c4.1,0,6.6-1.6,7.9-4c0.7-1.3,1.4-1.7,2.8-1.3l2.4,0.6c1.4,0.4,2.1,1.4,1.5,2.7c-2.2,5-7.2,8.4-14.6,8.4
	c-10.1,0-16.3-6.1-16.3-16.3v-13C281,410.3,287.2,404.2,297.3,404.2z M306.2,421.2c0-6.9-3.1-10.5-9-10.5s-9,3.5-9,10.5v2.5h18
	V421.2z"/>
<path class="st0" d="M359.3,449.8c-9.4,0-13.4-5.7-13.4-15.9v-26.5c-0.1-1.2,0.8-2.3,2-2.4c0,0,0.1,0,0.1,0l2.7-0.3
	c1.6-0.3,2.4,0.5,2.4,2l0.1,26.4c0,7,1.7,10.3,7,10.3c4.3,0,7.7-1.9,9.7-4.9v-31c-0.1-1.2,0.8-2.3,2-2.4c0,0,0.1,0,0.1,0l2.8-0.3
	c1.5-0.3,2.3,0.5,2.3,2l0.1,28.6c-0.1,4.7,0.2,7.3,1.3,10c0.5,1.4,0.2,2.4-1.2,2.9l-2.3,0.8c-1.3,0.5-2.4,0.3-2.9-0.8
	c-0.4-1-0.8-2-1.1-3C367.8,448,363.6,449.7,359.3,449.8z"/>
<path class="st0" d="M408.1,404.2c9.6,0,13.9,5.6,13.9,15.7v13.6c0,10.1-5.8,16.3-15.6,16.3c-3.1,0-6.2-0.4-9.1-1.3l-0.1,9.2
	c0.1,1.2-0.7,2.3-1.9,2.4c0,0-0.1,0-0.1,0l-2.7,0.3c-1.6,0.3-2.4-0.5-2.4-2v-51c-0.1-1.2,0.8-2.3,2-2.4c0,0,0,0,0.1,0l2.7-0.3
	c1.5-0.3,2.4,0.5,2.4,2v2.6C399.9,406.3,403.9,404.2,408.1,404.2z M406.9,410.8c-3.9,0-7.6,2.8-9.7,5.6v25.2
	c2.7,1.2,5.7,1.8,8.7,1.7c5.8,0,8.8-3.6,8.8-10.7v-11.8C414.7,414.2,412.7,410.8,406.9,410.8L406.9,410.8z"/>
<path class="st0" d="M486.5,445.2c0.5,1.4,0.2,2.4-1.2,2.9l-2.3,0.8c-1.3,0.5-2.4,0.3-2.8-0.8c-0.5-0.9-0.8-1.9-1.1-2.9
	c-3.2,3-7.4,4.6-11.8,4.6c-8.7,0-14.2-4-14.2-12.6c0-9.4,5.9-12.4,14.9-12.4h10v-5.1c0-6.5-2.6-9-8.3-9c-3.8,0-6.5,1.5-7.9,3.8
	c-0.7,1.2-1.4,1.7-2.7,1.3l-2.7-0.7c-1.4-0.5-2-1.4-1.4-2.8c2.2-4.6,7.4-8.1,14.7-8.1c10.1,0,15.6,4.9,15.6,14.5v16.6
	C485.2,439.9,485.4,442.5,486.5,445.2z M468.1,443.8c4,0,7.7-1.9,9.9-5.2v-8.3h-9.7c-5.1,0-7.8,1.7-7.8,6.7
	C460.5,441.8,463.6,443.8,468.1,443.8L468.1,443.8z"/>
<path class="st0" d="M500.2,404.9l2.7-0.3c1-0.3,2,0.2,2.4,1.2c0.1,0.3,0.1,0.5,0.1,0.8l-0.1,2.7c2.7-2.8,6.8-5.2,11.1-5.2
	c9.4,0,13.4,5.3,13.4,15.2v27.3c0.1,1.1-0.6,2.1-1.7,2.3c-0.2,0-0.3,0-0.5,0h-2.8c-1.1,0.1-2.1-0.7-2.2-1.8c0-0.2,0-0.3,0-0.5v-26.3
	c0-6.4-1.8-9.7-7.5-9.7c-3.8,0-7.6,3-9.6,5.8l-0.1,30.2c0,1.5-0.7,2.3-2.2,2.3h-2.8c-1.1,0.1-2.1-0.7-2.3-1.8c0-0.2,0-0.3,0-0.5
	v-39.4C498,406,498.9,405,500.2,404.9C500.2,404.9,500.2,404.9,500.2,404.9z"/>
<path class="st0" d="M569.3,448.1c-0.4-0.9-0.8-1.9-1.1-2.9c-3.1,2.9-7.2,4.6-11.4,4.6c-9.5,0-14.5-6.1-14.5-16.3v-13.6
	c0-10.1,4.8-15.7,14-15.7c3.7-0.1,7.4,0.7,10.8,2.2v-11.9c-0.1-1.3,0.9-2.3,2.1-2.4c0,0,0,0,0,0l2.7-0.3c1.6-0.2,2.4,0.5,2.4,2v41.4
	c0,4.7,0.2,7.3,1.3,10c0.5,1.4,0.2,2.4-1.2,2.9l-2.3,0.8C570.8,449.5,569.8,449.2,569.3,448.1z M557.3,410.8
	c-5.5,0-7.9,3.4-7.9,10.1v11.7c0,7.1,2.3,10.7,8.2,10.7c4.3,0,7.5-1.8,9.4-4.9v-25.5C564,411.4,560.7,410.7,557.3,410.8L557.3,410.8
	z"/>
<path class="st0" d="M620.7,449.8c-9.4,0-13.4-5.7-13.4-15.9v-26.5c-0.1-1.2,0.8-2.3,2-2.4c0,0,0.1,0,0.1,0l2.7-0.3
	c1.6-0.3,2.4,0.5,2.4,2l0.1,26.4c0,7,1.7,10.3,7,10.3c4.3,0,7.7-1.9,9.7-4.9v-31c-0.1-1.2,0.8-2.3,2-2.4c0,0,0,0,0.1,0l2.8-0.3
	c1.5-0.3,2.3,0.5,2.3,2l0.1,28.6c-0.1,4.7,0.2,7.3,1.3,10c0.5,1.4,0.2,2.4-1.2,2.9l-2.3,0.8c-1.3,0.5-2.4,0.3-2.9-0.8
	c-0.4-1-0.8-2-1.1-3C629.2,448,625.1,449.7,620.7,449.8z"/>
<path class="st0" d="M669.5,404.2c9.6,0,13.9,5.6,13.9,15.7v13.6c0,10.1-5.8,16.3-15.6,16.3c-3.1,0-6.1-0.4-9.1-1.3l-0.1,9.2
	c0.1,1.2-0.7,2.3-1.9,2.4c0,0-0.1,0-0.1,0l-2.7,0.3c-1.6,0.3-2.4-0.5-2.4-2v-51.1c-0.1-1.2,0.8-2.3,2-2.4c0,0,0,0,0.1,0l2.7-0.3
	c1.5-0.3,2.4,0.5,2.4,2v2.6C661.3,406.3,665.3,404.2,669.5,404.2z M668.3,410.8c-3.9,0-7.6,2.8-9.7,5.6v25.2
	c2.7,1.2,5.7,1.8,8.7,1.7c5.8,0,8.8-3.6,8.8-10.7v-11.8C676.2,414.2,674.1,410.8,668.3,410.8z"/>
<path class="st0" d="M693.9,445.2c0-3.4,1.7-4.9,4.3-4.9s4.5,1.6,4.5,5c0,3.1-1.8,4.6-4.5,4.6S693.9,448.3,693.9,445.2z"/>
<path class="st0" d="M892.9,199.1H476.1V9h416.8V199.1z M483.8,191.4h401.4V16.7H483.8V191.4z"/>
<path class="st0" d="M829.9,199.1H713.4v-75h116.5V199.1z M721.1,191.4h101.1v-59.5H721.1V191.4z"/>
<rect x="594.8" y="-61.5" transform="matrix(0.4365 -0.8997 0.8997 0.4365 273.979 578.273)" class="st0" width="7.7" height="263.7"/>
<rect x="792" y="66.6" transform="matrix(0.4799 -0.8773 0.8773 0.4799 384.2287 789.0092)" class="st0" width="131.2" height="7.7"/>
<path class="st0" d="M627.2,806.8H365v-138h262.3V806.8z M372.8,797.6h246.7V678H372.8L372.8,797.6z"/>
<path class="st0" d="M891.8,891H9V558h882.8V891z M16.8,881.8H884V567.2H16.8V881.8z"/>
<polygon class="st0" points="13.8,567.8 15.8,558.9 373,671.4 371,680.3 "/>
<polygon class="st0" points="622,669.1 886.6,558.3 889.2,566.9 624.6,677.8 "/>
<polygon class="st0" points="622.3,806.7 624.4,797.8 889,882 886.9,890.9 "/>
<polygon class="st0" points="12.1,881.9 368,797.8 369.6,806.8 13.6,890.9 "/>
<path class="st1" d="M144.9,187.8l27.7,4.4v4.6h-36.9v-57.9h9.2L144.9,187.8z M295.1,138.9l-27,57.9h10.1l13.4-28.8l14.7-2.4
	l14.5,31.2h10.1l-27-57.9H295.1z M272,138.9l-15.1,32.7l-11.4,1.9l-16-34.5h-10.1l27,57.9h8.8l27-57.9H272z M317.7,143.4l22,4.5
	v48.9h9.2V148l22.1-4.5V139h-53.2L317.7,143.4z M412.1,143.4v-4.5h-36.3v57.9h36.3v-4.6l-5.7-0.9l-21.4-3.6v-15.5l27.2-4.4v-4.6
	h-27.2V148L412.1,143.4z M178.2,196.8h36.3v-4.6l-27.2-4.4v-15.5l27.2-4.4v-4.6h-27.2V148l27.2-4.4v-4.6h-36.3V196.8z M93.8,196.8
	h36.3v-4.6l-27.2-4.4v-15.5l27.2-4.4v-4.6h-27.2V148l27.2-4.4v-4.6H93.8L93.8,196.8z"/>
</svg>
