<svg viewBox="0 0 900 900" xmlns="http://www.w3.org/2000/svg"><path d="m875.61 569 .89-5.97-867.5.97 347.36 108h269.53z" opacity=".75"/><path d="m890.8 888.44-.97-325.92-265.77 110.93v129.21z" fill="#fd0"/><path d="m890.83 194.97h-66.25v-61.98l66.25-125z" opacity=".75"/><path d="m900 900h-900v-900h900zm-882.5-18h865.1v-864h-865.1z" fill="#fff"/><path d="m331.54 452.94h312.92v4.76h-312.92z" fill="#fd0"/><g fill="#fff"><path d="m96.78 312.85 3.26-.37a1.87 1.87 0 0 1 2.33 1.31c0 .09.09.28.09.37l10.45 41.32 9.51-40.76a2 2 0 0 1 2.15-1.87h3.73a2.06 2.06 0 0 1 2.24 1.77v.09l9.7 40.76 10.07-40.76a2.14 2.14 0 0 1 2.24-1.87h3.26c1.59 0 2.24.84 1.87 2.33l-13.52 47.2a2.23 2.23 0 0 1 -2.33 1.87h-3.64a2 2 0 0 1 -2.24-1.87l-9.7-39.92-9.42 39.83a2.14 2.14 0 0 1 -2.24 1.87h-3.59a2.23 2.23 0 0 1 -2.33-1.87l-13.43-47a1.75 1.75 0 0 1 .93-2.33 1.38 1.38 0 0 1 .61-.1z"/><path d="m178.85 322.46c9.42 0 15.2 5.69 15.2 15.2v6.25a2 2 0 0 1 -1.68 2.15h-.47l-21.44-.06v3.26c-.09 6.53 2.89 9.7 8.39 9.7 3.82 0 6.16-1.49 7.37-3.73.65-1.21 1.31-1.59 2.61-1.21l2.24.56c1.31.37 2 1.31 1.4 2.52-2.05 4.57-6.72 7.83-13.62 7.83-9.42 0-15.2-5.69-15.2-15.2v-12.26c0-9.32 5.78-15.01 15.2-15.01zm8.3 15.76c0-6.44-2.89-9.79-8.39-9.79s-8.39 3.26-8.39 9.79v2.33h16.79z"/><path d="m210.47 355.29c1.4 2.24 3.92 3.92 7.93 3.92 5.32 0 7.83-2.8 7.83-6.25v-.47c0-4.1-3.64-5.32-9.14-6-7.09-.81-13.09-3.89-13.09-11.26v-1.31c0-6.72 4.48-11.47 13.71-11.47 7.28 0 11.75 3.26 13.43 7.65a1.78 1.78 0 0 1 -1.4 2.52l-2.24.56c-1.31.37-1.87-.09-2.52-1.31-1-2.24-3.26-3.82-7.28-3.82-5 0-7 2.61-7 6.06v.37c0 3.73 3.26 5 8.77 5.88 7.09 1.12 13.52 3.08 13.52 11.1v1.68c-.09 6.72-5.32 11.75-14.64 11.75-7.37 0-12.22-3-14.27-7.55a1.72 1.72 0 0 1 1.4-2.52l2.43-.65c1.26-.47 1.82.09 2.56 1.12z"/><path d="m241.16 329a2 2 0 0 1 -2.16-1.6v-2.15a2 2 0 0 1 1.68-2.15h2.7l1-4.85a2.38 2.38 0 0 1 1.87-2.05l1.59-.19c1.31-.28 2.15.47 2.15 1.87v5.22h9.23c1.4 0 2.05.75 2.05 2.15v1.59c0 1.4-.65 2.15-2.05 2.15h-9.22l-.09 22.39c0 5.88 1 8 6 8a19.29 19.29 0 0 0 3.26-.28 2 2 0 0 1 2.52 1.68l.19 1.4a1.84 1.84 0 0 1 -1.12 2.33 1.18 1.18 0 0 1 -.56.09 22.32 22.32 0 0 1 -4.94.56c-8.86 0-12-3.64-12-13.06v-23.1z"/><path d="m293.67 355.29c1.4 2.24 3.92 3.92 7.93 3.92 5.32 0 7.83-2.8 7.83-6.25v-.47c0-4.1-3.64-5.32-9.14-6-7.09-.84-13.06-3.92-13.06-11.29v-1.31c0-6.72 4.48-11.47 13.71-11.47 7.28 0 11.75 3.26 13.43 7.65a1.78 1.78 0 0 1 -1.4 2.52l-2.24.56c-1.31.37-1.87-.09-2.52-1.31-1-2.24-3.26-3.82-7.28-3.82-5 0-7 2.61-7 6.06v.37c0 3.73 3.26 5 8.77 5.88 7.09 1.12 13.52 3.08 13.52 11.1v1.68c-.09 6.72-5.32 11.75-14.55 11.75-7.37 0-12.22-3-14.27-7.55a1.72 1.72 0 0 1 1.4-2.52l2.43-.65c1.13-.44 1.77.12 2.44 1.15z"/><path d="m333 325.25v36.75a2 2 0 0 1 -1.59 2.15h-3.08a2 2 0 0 1 -2.15-1.68v-33.47h-2.33a2 2 0 0 1 -2.15-1.59v-2.15a2 2 0 0 1 1.68-2.15h7.62a1.88 1.88 0 0 1 2.05 1.68.42.42 0 0 1 -.05.46zm-3.45-5.5c-2.52 0-4.1-1.21-4.1-4.29s1.59-4.48 4.1-4.48 4.29 1.31 4.29 4.48c-.09 3-1.87 4.29-4.29 4.29z"/><path d="m370 363.31a23.21 23.21 0 0 1 -1-2.7 15.11 15.11 0 0 1 -10.63 4.29c-8.86 0-13.52-5.69-13.52-15.2v-12.7c0-9.42 4.48-14.64 13.06-14.64a23.49 23.49 0 0 1 10.07 2.05v-11.1a2.1 2.1 0 0 1 2-2.24l2.52-.28c1.49-.19 2.24.47 2.24 1.87v38.71c0 4.38.19 6.81 1.21 9.33.47 1.31.19 2.24-1.12 2.7l-2.15.75a1.81 1.81 0 0 1 -2.68-.84zm-11.1-34.79c-5.13 0-7.37 3.17-7.37 9.42v10.91c0 6.62 2.15 10 7.65 10a9.71 9.71 0 0 0 8.77-4.57v-23.8a21.64 21.64 0 0 0 -9-2z"/><path d="m401.49 322.46c9.42 0 15.2 5.69 15.2 15.2v6.25a2 2 0 0 1 -1.68 2.15h-.47l-21.35-.06v3.26c-.09 6.53 2.89 9.7 8.39 9.7 3.82 0 6.16-1.49 7.37-3.73.65-1.21 1.31-1.59 2.61-1.21l2.24.56c1.31.37 2 1.31 1.4 2.52-2.05 4.57-6.72 7.83-13.62 7.83-9.42 0-15.2-5.69-15.2-15.2v-12.26c-.09-9.32 5.78-15.01 15.11-15.01zm8.39 15.76c0-6.44-2.89-9.79-8.39-9.79s-8.39 3.26-8.39 9.79v2.33h16.79z"/><path d="m447.1 353.7v-40.29a2.08 2.08 0 0 1 1.87-2.24h.09l2.52-.28c1.49-.19 2.24.47 2.24 1.87l.09 38.61c-.09 4.38.19 6.81 1.21 9.33a1.88 1.88 0 0 1 -1.12 2.7l-2.43.75c-1.21.47-2.05.37-2.52-.47-1.39-2.8-1.95-5.68-1.95-9.98z"/><path d="m472.66 325.25v36.75a2 2 0 0 1 -1.59 2.15h-3a2 2 0 0 1 -2.15-1.68v-33.47h-2.33a2 2 0 0 1 -2.15-1.59v-2.15a2 2 0 0 1 1.68-2.15h7.55a1.88 1.88 0 0 1 2.05 1.68 1 1 0 0 0 -.06.46zm-3.54-5.5c-2.52 0-4.1-1.21-4.1-4.29s1.59-4.48 4.1-4.48 4.29 1.31 4.29 4.48c-.01 2.99-1.78 4.29-4.3 4.29z"/><path d="m482.45 323.11 3-.37a1.87 1.87 0 0 1 2.33 1.31.34.34 0 0 0 .09.28l9.32 31.67 9-31.15a2.16 2.16 0 0 1 2.33-1.77h3c1.59 0 2.24.93 1.77 2.43l-12.29 36.87a2.32 2.32 0 0 1 -2.43 1.77h-3a2.16 2.16 0 0 1 -2.33-1.77l-12.24-36.85a1.76 1.76 0 0 1 .84-2.33c.05-.09.33-.09.61-.09z"/><path d="m528.34 325.25v36.75a2 2 0 0 1 -1.59 2.15h-3a2 2 0 0 1 -2.15-1.68v-33.47h-2.33a2 2 0 0 1 -2.15-1.59v-2.15a2 2 0 0 1 1.68-2.15h7.55a1.88 1.88 0 0 1 2.05 1.68 1 1 0 0 0 -.06.46zm-3.54-5.5c-2.52 0-4.1-1.21-4.1-4.29s1.59-4.48 4.1-4.48 4.29 1.31 4.29 4.48c0 3-1.77 4.29-4.29 4.29z"/><path d="m542.42 323.11 2.52-.28a1.81 1.81 0 0 1 2.24 1.12 2.05 2.05 0 0 1 .09.75l-.09 2.52c2.52-2.61 6.34-4.85 10.35-4.85 8.77 0 12.5 4.94 12.5 14.18v25.45a2 2 0 0 1 -1.59 2.15h-3.08a1.88 1.88 0 0 1 -2.05-1.68v-25c0-6-1.68-9-7-9-3.54 0-7.09 2.8-9 5.41l-.04 28.12c0 1.4-.65 2.15-2.05 2.15h-2.52a2 2 0 0 1 -2.15-1.68v-37.22a1.88 1.88 0 0 1 1.87-2.15z"/><path d="m611.54 325.25v37c0 9-6 13.62-14.83 13.62-8 0-12.87-2.61-14.27-7.74-.47-1.21.28-2.15 1.68-2.33l2.52-.37a2.22 2.22 0 0 1 2.52 1.4c1 2.24 3.26 3 7.65 3 4.85 0 8-2.24 8-8.39v-4.29a14.77 14.77 0 0 1 -10.07 4.29c-9 0-13-4.94-13-14.46v-9.79c0-9.42 4.38-14.64 13-14.64a25 25 0 0 1 10.45 2.24l.65-.56a3.21 3.21 0 0 1 2.52-.84h1.21c1.32-.19 1.97.47 1.97 1.86zm-15.76 3.36c-5.13 0-7.37 3.17-7.37 9.42l.09 8c-.09 6.16 2 9.14 7.28 9.14 3.54 0 6.9-2.05 9.14-4.57l-.09-20.05a19.35 19.35 0 0 0 -9-2z"/><path d="m649.31 325.25v36.75a2 2 0 0 1 -1.59 2.15h-3a2 2 0 0 1 -2.15-1.68v-33.47h-2.33a2 2 0 0 1 -2.15-1.59v-2.15a2 2 0 0 1 1.68-2.15h7.55a1.88 1.88 0 0 1 2.05 1.68 1 1 0 0 0 -.06.46zm-3.54-5.5c-2.52 0-4.1-1.21-4.1-4.29s1.59-4.48 4.1-4.48 4.29 1.31 4.29 4.48c0 3-1.77 4.29-4.29 4.29z"/><path d="m666.48 355.29c1.4 2.24 3.92 3.92 7.93 3.92 5.32 0 7.83-2.8 7.83-6.25v-.47c0-4.1-3.64-5.32-9.14-6-7.1-.81-13.1-3.89-13.1-11.26v-1.31c0-6.72 4.48-11.47 13.71-11.47 7.28 0 11.75 3.26 13.43 7.65a1.78 1.78 0 0 1 -1.4 2.52l-2.24.56c-1.31.37-1.87-.09-2.52-1.31-1-2.24-3.26-3.82-7.28-3.82-5 0-7 2.61-7 6.06v.37c0 3.73 3.26 5 8.77 5.88 7.09 1.12 13.52 3.08 13.52 11.1v1.68c-.09 6.72-5.32 11.75-14.55 11.75-7.37 0-12.22-3-14.27-7.55a1.72 1.72 0 0 1 1.4-2.52l2.43-.65c1.17-.47 1.73.09 2.48 1.12z"/><path d="m113.75 402.86c9.42 0 15.2 5.69 15.2 15.2v12.13c0 9.42-5.78 15.2-15.2 15.2s-15.2-5.69-15.2-15.2v-12.13c0-9.51 5.87-15.2 15.2-15.2zm0 36.38c5.32 0 8.39-3.36 8.39-10v-10.43c0-6.62-3-10-8.39-10s-8.39 3.36-8.39 10v10.45c0 6.61 2.98 9.97 8.39 9.97z"/><path d="m142.48 403.51 2.52-.28a1.81 1.81 0 0 1 2.24 1.12 2.05 2.05 0 0 1 .09.75l-.09 2.52c2.52-2.61 6.34-4.85 10.35-4.85 8.77 0 12.5 4.94 12.5 14.18v25.45a2 2 0 0 1 -1.59 2.15h-3.08a1.88 1.88 0 0 1 -2.05-1.68v-25c0-6-1.68-9-7-9-3.54 0-7.09 2.8-9 5.41l-.09 28.17c0 1.4-.65 2.15-2.05 2.15h-2.52a2 2 0 0 1 -2.15-1.68v-37.27a1.88 1.88 0 0 1 1.87-2.15z"/><path d="m199.09 409.39a2 2 0 0 1 -2.15-1.59v-2.05a2 2 0 0 1 1.68-2.15h2.7l1-4.85a2.38 2.38 0 0 1 1.87-2.05l1.59-.19c1.31-.28 2.15.47 2.15 1.87v5.22h9.23c1.4 0 2.05.75 2.05 2.15v1.59c0 1.4-.65 2.15-2.05 2.15h-9.16l-.09 22.29c0 5.88 1 8 6 8a19.29 19.29 0 0 0 3.26-.28 2 2 0 0 1 2.52 1.68l.19 1.4a1.84 1.84 0 0 1 -1.12 2.33 1.18 1.18 0 0 1 -.56.09 22.32 22.32 0 0 1 -4.94.56c-8.86 0-12-3.64-12-13.06v-23.11h-2.05z"/><path d="m229.59 391.57 2.52-.28a1.75 1.75 0 0 1 2.15 1.12 2.05 2.05 0 0 1 .09.75v14.27a14.2 14.2 0 0 1 10.26-4.57c8.77 0 12.5 4.76 12.5 13.8v25.84a2 2 0 0 1 -1.59 2.15h-3.08a1.88 1.88 0 0 1 -2.05-1.68v-25.28c0-6-1.87-8.77-7.09-8.77-3.54 0-6.9 2.52-8.86 5.13v28.54a2 2 0 0 1 -1.59 2.15h-3a2 2 0 0 1 -2.15-1.68v-49.16a2 2 0 0 1 1.87-2.33z"/><path d="m283.69 402.86c9.42 0 15.2 5.69 15.2 15.2v6.25a2 2 0 0 1 -1.68 2.15h-.47l-21.36-.09v3.26c-.09 6.53 2.89 9.7 8.39 9.7 3.82 0 6.16-1.49 7.37-3.73.65-1.21 1.31-1.59 2.61-1.21l2.24.56c1.31.37 2 1.31 1.4 2.52-2.05 4.66-6.72 7.83-13.62 7.83-9.42 0-15.2-5.69-15.2-15.2v-12.1c-.08-9.45 5.7-15.14 15.12-15.14zm8.3 15.86c0-6.44-2.89-9.79-8.39-9.79s-8.39 3.26-8.39 9.79v2.28h16.79z"/><path d="m341.52 445.39c-8.77 0-12.5-5.32-12.5-14.83v-24.72a2.08 2.08 0 0 1 1.87-2.24h.11l2.52-.28c1.49-.28 2.24.47 2.24 1.87l.09 24.62c0 6.53 1.59 9.61 6.53 9.61a10.51 10.51 0 0 0 9-4.57v-28.92a2.08 2.08 0 0 1 1.87-2.24h.09l2.61-.28c1.4-.28 2.15.47 2.15 1.87l.09 26.68c-.09 4.38.19 6.81 1.21 9.33.47 1.31.19 2.24-1.12 2.7l-2.15.75c-1.21.47-2.24.28-2.7-.75s-.75-1.87-1-2.8a17.81 17.81 0 0 1 -10.91 4.2z"/><path d="m387 402.86c9 0 13 5.22 13 14.64v12.68c0 9.42-5.41 15.2-14.55 15.2a28.74 28.74 0 0 1 -8.49-1.21l-.09 8.58a2 2 0 0 1 -1.77 2.25h-.1l-2.52.28c-1.49.28-2.24-.47-2.24-1.87v-47.57a2.08 2.08 0 0 1 1.87-2.24h.09l2.52-.28a1.7 1.7 0 0 1 2.24 1.87v2.43a13.65 13.65 0 0 1 10.04-4.76zm-1.08 6.14c-3.64 0-7.09 2.61-9 5.22v23.5a18.56 18.56 0 0 0 8.11 1.59c5.41 0 8.21-3.36 8.21-10v-11c0-6.16-1.87-9.33-7.28-9.33z"/><path d="m460.16 441.1c.47 1.31.19 2.24-1.12 2.7l-2.15.75c-1.21.47-2.24.28-2.61-.75a13.48 13.48 0 0 1 -1-2.7 16 16 0 0 1 -11 4.29c-8.11 0-13.24-3.73-13.24-11.75 0-8.77 5.5-11.57 13.9-11.57h9.33v-4.76c0-6.06-2.43-8.39-7.74-8.39-3.54 0-6.06 1.4-7.37 3.54-.65 1.12-1.31 1.59-2.52 1.21l-2.52-.65c-1.31-.47-1.87-1.31-1.31-2.61 2.05-4.29 6.9-7.55 13.71-7.55 9.42 0 14.55 4.57 14.55 13.52v15.48c-.12 4.29.06 6.72 1.09 9.24zm-17.16-1.31a11 11 0 0 0 9.23-4.85v-7.74h-9c-4.76 0-7.28 1.59-7.28 6.25 0 4.48 2.89 6.34 7.09 6.34z"/><path d="m472.94 403.51 2.52-.28a1.81 1.81 0 0 1 2.24 1.12 2.05 2.05 0 0 1 .09.75l-.09 2.52c2.52-2.61 6.34-4.85 10.35-4.85 8.77 0 12.5 4.94 12.5 14.18v25.45a2 2 0 0 1 -1.59 2.15h-3.08a1.88 1.88 0 0 1 -2.05-1.68v-25c0-6-1.68-9-7-9-3.54 0-7.09 2.8-9 5.41l-.09 28.17c0 1.4-.65 2.15-2.05 2.15h-2.61a2 2 0 0 1 -2.15-1.68v-37.27a2 2 0 0 1 2-2.15z"/><path d="m537.39 443.8a23.2 23.2 0 0 1 -1-2.7 15.69 15.69 0 0 1 -10.63 4.29c-8.86 0-13.52-5.69-13.52-15.2v-12.69c0-9.42 4.48-14.64 13.06-14.64a23.49 23.49 0 0 1 10.07 2.05v-11.1a2.1 2.1 0 0 1 2-2.24l2.52-.28c1.49-.19 2.24.47 2.24 1.87v38.61c0 4.38.19 6.81 1.21 9.33.47 1.31.19 2.24-1.12 2.7l-2.15.75c-1.28.56-2.22.28-2.68-.75zm-11.19-34.8c-5.13 0-7.37 3.17-7.37 9.42v10.91c0 6.62 2.15 10 7.65 10a9.71 9.71 0 0 0 8.77-4.57v-23.76a18.87 18.87 0 0 0 -9-2z"/><path d="m585.33 445.39c-8.77 0-12.5-5.32-12.5-14.83v-24.72a2.08 2.08 0 0 1 1.87-2.24h.09l2.52-.28c1.49-.28 2.24.47 2.24 1.87l.09 24.62c0 6.53 1.59 9.61 6.53 9.61a10.51 10.51 0 0 0 9-4.57v-28.92a2.08 2.08 0 0 1 1.87-2.24h.09l2.61-.28c1.4-.28 2.15.47 2.15 1.87l.11 26.72c-.09 4.38.19 6.81 1.21 9.33.47 1.31.19 2.24-1.12 2.7l-2.15.75c-1.21.47-2.24.28-2.7-.75s-.75-1.87-1-2.8a17.59 17.59 0 0 1 -10.91 4.16z"/><path d="m630.85 402.86c9 0 13 5.22 13 14.64v12.68c0 9.42-5.41 15.2-14.55 15.2a29.18 29.18 0 0 1 -8.49-1.21l-.09 8.58a2 2 0 0 1 -1.77 2.24h-.09l-2.52.28c-1.49.28-2.24-.47-2.24-1.87v-47.65a2.08 2.08 0 0 1 1.87-2.24h.03l2.52-.28a1.7 1.7 0 0 1 2.24 1.87v2.43a13.9 13.9 0 0 1 10.09-4.67zm-1.12 6.14c-3.64 0-7.09 2.61-9 5.22v23.5a18.56 18.56 0 0 0 8.11 1.59c5.41 0 8.21-3.36 8.21-10v-11c.04-6.13-1.91-9.31-7.32-9.31z"/><path d="m653.6 441.1c0-3.17 1.59-4.57 4-4.57s4.2 1.49 4.2 4.66c0 2.89-1.68 4.29-4.2 4.29s-4-1.48-4-4.38z"/><path d="m892.9 199.1h-416.8v-190.1h416.8zm-409.1-7.7h401.4v-174.7h-401.4z"/><path d="m829.9 199.1h-116.5v-75h116.5zm-108.8-7.7h101.1v-59.5h-101.1z"/><path d="m594.73-61.47h7.7v263.7h-7.7z" transform="matrix(.43648776 -.8997102 .8997102 .43648776 273.98 578.2)"/><path d="m792 66.6h131.2v7.7h-131.2z" transform="matrix(.47991729 -.87731374 .87731374 .47991729 384.22 789.02)"/><path d="m627.2 806.8h-262.2v-138h262.3v138zm-254.4-9.2h246.7v-119.6h-246.7z"/><path d="m891.8 891h-882.8v-333h882.8zm-875-9.2h867.2v-314.6h-867.2z"/><path d="m13.8 567.8 2-8.9 357.2 112.5-2 8.9z"/><path d="m622 669.1 264.6-110.8 2.6 8.6-264.6 110.9z"/><path d="m622.3 806.7 2.1-8.9 264.6 84.2-2.1 8.9z"/><path d="m12.1 881.9 355.9-84.1 1.6 9-356 84.1z"/></g><path d="m144.9 187.8 27.7 4.4v4.6h-36.9v-57.9h9.2zm150.2-48.9-27 57.9h10.1l13.4-28.8 14.7-2.4 14.5 31.2h10.1l-27-57.9zm-23.1 0-15.1 32.7-11.4 1.9-16-34.5h-10.1l27 57.9h8.8l27-57.9h-10.2zm45.7 4.5 22 4.5v48.9h9.2v-48.8l22.1-4.5v-4.5h-53.2zm94.4 0v-4.5h-36.3v57.9h36.3v-4.6l-5.7-.9-21.4-3.6v-15.5l27.2-4.4v-4.6h-27.2v-15.2zm-233.9 53.4h36.3v-4.6l-27.2-4.4v-15.5l27.2-4.4v-4.6h-27.2v-15.3l27.2-4.4v-4.6h-36.3zm-84.4 0h36.3v-4.6l-27.2-4.4v-15.5l27.2-4.4v-4.6h-27.2v-15.3l27.2-4.4v-4.6h-36.3z" fill="#fd0"/></svg>