<svg viewBox="0 0 1600 900" xmlns="http://www.w3.org/2000/svg"><path d="m1022 568h578v332h-578z" opacity=".75"/><path d="m1005 575 1-5.97-969 .97v5l388 103h291z" opacity=".75"/><path d="m1022 228h-74v-77l74-135z" opacity=".75"/><path d="m1099.45 373.37-76.98-145.5h564.03l-351.07 145.5z" fill="#fd0"/><path d="m1600 900h-1600v-900h1600zm-1582-18h1564v-864h-1564z" fill="#fff"/><path d="m341.89 482.26h326.67v4.92h-326.67z" fill="#fd0"/><g fill="#fff"><path d="m96.84 336 3.37-.38a2 2 0 0 1 2.52 1.76l10.86 43.15 9.94-42.53a2.11 2.11 0 0 1 2.37-1.91h3.82a2.08 2.08 0 0 1 2.28 1.91l10.1 42.53 10.5-42.53a2.2 2.2 0 0 1 2.4-1.9h3.44c1.61 0 2.29.92 1.91 2.45l-14.08 49.19a2.32 2.32 0 0 1 -2.45 1.91h-3.75a2.15 2.15 0 0 1 -2.37-1.91l-10-41.62-9.79 41.62a2.2 2.2 0 0 1 -2.37 1.91h-3.82a2.37 2.37 0 0 1 -2.45-1.91l-14.12-49.12a1.86 1.86 0 0 1 1.69-2.62z"/><path d="m182.51 346c9.79 0 15.84 6 15.84 15.84v6.58a2 2 0 0 1 -2.22 2.22l-22.34-.08v3.44c-.08 6.81 3.06 10.17 8.72 10.17 4 0 6.43-1.53 7.65-3.9.69-1.22 1.38-1.68 2.75-1.3l2.37.61c1.38.38 2.07 1.38 1.45 2.68-2.14 4.82-7 8.19-14.23 8.19-9.79 0-15.84-6-15.84-15.84v-12.7c.01-9.91 6.06-15.91 15.85-15.91zm8.72 16.52c0-6.73-3-10.25-8.72-10.25s-8.8 3.44-8.8 10.25v2.48h17.52z"/><path d="m215.55 380.39c1.45 2.29 4.13 4.05 8.26 4.05 5.58 0 8.19-2.91 8.19-6.5v-.46c0-4.28-3.75-5.51-9.56-6.27-7.42-.92-13.62-4.05-13.62-11.78v-1.38c0-7 4.67-12 14.31-12 7.57 0 12.24 3.44 14 8 .54 1.38-.15 2.29-1.45 2.68l-2.37.61c-1.38.38-2-.08-2.6-1.38-1.07-2.37-3.44-4-7.57-4-5.28 0-7.27 2.75-7.27 6.35v.38c0 3.9 3.37 5.28 9.1 6.12 7.41 1.19 14.03 3.27 14.03 11.6v1.76c-.08 7-5.51 12.24-15.22 12.24-7.65 0-12.78-3.14-14.92-7.88-.61-1.3.08-2.29 1.45-2.68l2.52-.69c1.35-.45 1.96.16 2.72 1.23z"/><path d="m247.6 352.85a2 2 0 0 1 -2.22-2.14v-1.71a2 2 0 0 1 2.22-2.22h2.29l1.07-5a2.44 2.44 0 0 1 2-2.14l1.61-.23c1.38-.31 2.22.46 2.22 2v5.43h9.64c1.45 0 2.14.76 2.14 2.22v1.61c0 1.45-.69 2.22-2.14 2.22h-9.64l-.08 23.33c0 6.12 1.07 8.41 6.2 8.41a18.31 18.31 0 0 0 3.37-.31 2.08 2.08 0 0 1 2.6 1.76l.23 1.45a1.89 1.89 0 0 1 -1.68 2.52 27.25 27.25 0 0 1 -5.2.61c-9.26 0-12.55-3.83-12.55-13.62v-24.19z"/><path d="m302.45 380.39c1.45 2.29 4.13 4.05 8.26 4.05 5.58 0 8.19-2.91 8.19-6.5v-.46c0-4.28-3.75-5.51-9.56-6.27-7.42-.92-13.62-4.05-13.62-11.78v-1.38c0-7 4.67-12 14.31-12 7.57 0 12.24 3.44 14 8 .54 1.38-.15 2.29-1.45 2.68l-2.37.61c-1.38.38-2-.08-2.6-1.38-1.07-2.37-3.44-4-7.57-4-5.28 0-7.27 2.75-7.27 6.35v.38c0 3.9 3.37 5.28 9.1 6.12 7.42 1.15 14.08 3.21 14.08 11.55v1.76c-.08 7-5.51 12.24-15.22 12.24-7.65 0-12.78-3.14-14.92-7.88-.61-1.3.08-2.29 1.45-2.68l2.52-.69c1.29-.4 1.9.21 2.67 1.28z"/><path d="m343.52 349v38.4a2 2 0 0 1 -2.14 2.22h-2.68a2 2 0 0 1 -2.22-2.22v-34.55h-2.48a2 2 0 0 1 -2.22-2.14v-1.71a2 2 0 0 1 2.22-2.22h7.34a2 2 0 0 1 2.18 2.22zm-3.67-5.81c-2.6 0-4.28-1.3-4.28-4.44 0-3.29 1.68-4.67 4.28-4.67s4.44 1.38 4.44 4.67c0 3.16-1.84 4.46-4.44 4.46z"/><path d="m382.08 388.81a21.35 21.35 0 0 1 -1.08-2.81 15.92 15.92 0 0 1 -11.09 4.44c-9.26 0-14.15-6-14.15-15.84v-13.26c0-9.87 4.67-15.3 13.62-15.3a24.85 24.85 0 0 1 10.56 2.14v-11.54a2.23 2.23 0 0 1 2.07-2.37l2.68-.31a1.83 1.83 0 0 1 2.37 2v40.31c0 4.59.23 7.11 1.22 9.72.46 1.38.15 2.29-1.15 2.83l-2.22.77c-1.3.52-2.3.29-2.83-.78zm-11.63-36.34c-5.36 0-7.65 3.29-7.65 9.79v11.4c0 6.88 2.22 10.4 8 10.4a10.28 10.28 0 0 0 9.18-4.74v-24.86a22.27 22.27 0 0 0 -9.53-1.99z"/><path d="m415 346c9.79 0 15.84 6 15.84 15.84v6.58a2 2 0 0 1 -2.22 2.22l-22.34-.08v3.44c-.08 6.81 3.06 10.17 8.72 10.17 4 0 6.43-1.53 7.65-3.9.69-1.22 1.38-1.68 2.75-1.3l2.37.61c1.38.38 2.07 1.38 1.45 2.68-2.14 4.82-7 8.19-14.23 8.19-9.79 0-15.84-6-15.84-15.84v-12.7c-.02-9.91 6.03-15.91 15.85-15.91zm8.72 16.52c0-6.73-3-10.25-8.72-10.25s-8.8 3.44-8.8 10.25v2.48h17.52z"/><path d="m462.54 378.71v-42.07a2.18 2.18 0 0 1 2.07-2.37l2.68-.31a1.78 1.78 0 0 1 2.29 2l.08 40.31c-.08 4.59.23 7.11 1.22 9.72a2 2 0 0 1 -1.15 2.83l-2.52.77c-1.22.54-2.14.38-2.6-.54-1.45-2.84-2.07-5.83-2.07-10.34z"/><path d="m489.24 349v38.4a2 2 0 0 1 -2.14 2.22h-2.68a2 2 0 0 1 -2.22-2.22v-34.55h-2.45a2 2 0 0 1 -2.22-2.14v-1.71a2 2 0 0 1 2.22-2.22h7.34a2 2 0 0 1 2.15 2.22zm-3.67-5.81c-2.6 0-4.28-1.3-4.28-4.44 0-3.29 1.68-4.67 4.28-4.67s4.44 1.38 4.44 4.67c-.01 3.16-1.84 4.46-4.44 4.46z"/><path d="m499.49 346.73 3.14-.38a2 2 0 0 1 2.52 1.68l9.72 33.12 9.41-32.51a2.28 2.28 0 0 1 2.45-1.84h3.14c1.61 0 2.3 1 1.84 2.52l-12.85 38.48a2.39 2.39 0 0 1 -2.52 1.84h-3.14a2.26 2.26 0 0 1 -2.45-1.84l-12.95-38.47a1.82 1.82 0 0 1 1.69-2.6z"/><path d="m547.37 349v38.4a2 2 0 0 1 -2.14 2.22h-2.68a2 2 0 0 1 -2.22-2.22v-34.55h-2.45a2 2 0 0 1 -2.22-2.14v-1.71a2 2 0 0 1 2.22-2.22h7.34a2 2 0 0 1 2.15 2.22zm-3.67-5.81c-2.6 0-4.28-1.3-4.28-4.44 0-3.29 1.68-4.67 4.28-4.67s4.44 1.38 4.44 4.67c0 3.16-1.84 4.46-4.44 4.46z"/><path d="m562.06 346.73 2.6-.31a1.83 1.83 0 0 1 2.37 2l-.08 2.68c2.68-2.75 6.66-5 10.79-5 9.1 0 13 5.2 13 14.76v26.62a2 2 0 0 1 -2.14 2.22h-2.75a2 2 0 0 1 -2.14-2.22v-25.68c0-6.27-1.76-9.49-7.27-9.49-3.67 0-7.34 2.91-9.33 5.66l-.11 29.46c0 1.45-.69 2.22-2.14 2.22h-2.68a2 2 0 0 1 -2.22-2.22v-38.43a2.15 2.15 0 0 1 2.1-2.27z"/><path d="m634.27 349v38.63c0 9.49-6.2 14.23-15.45 14.23-8.42 0-13.46-2.75-14.92-8.11-.46-1.3.31-2.22 1.76-2.45l2.6-.38c1.3-.23 1.91.31 2.6 1.45 1.07 2.37 3.44 3.14 8 3.14 5 0 8.34-2.29 8.34-8.8v-4.51a14.89 14.89 0 0 1 -10.56 4.44c-9.33 0-13.54-5.2-13.54-15.07v-10.23c0-9.87 4.59-15.3 13.54-15.3a26.77 26.77 0 0 1 10.94 2.29l.69-.61a3.81 3.81 0 0 1 2.68-.92h1.3a1.94 1.94 0 0 1 2.02 2.2zm-16.52 3.44c-5.36 0-7.73 3.29-7.73 9.79l.08 8.42c-.08 6.43 2.07 9.56 7.57 9.56 3.67 0 7.19-2.14 9.56-4.82l-.08-20.88a21 21 0 0 0 -9.41-2.04z"/><path d="m673.66 349v38.4a2 2 0 0 1 -2.14 2.22h-2.68a2 2 0 0 1 -2.22-2.22v-34.55h-2.45a2 2 0 0 1 -2.22-2.14v-1.71a2 2 0 0 1 2.22-2.22h7.34a2 2 0 0 1 2.15 2.22zm-3.66-5.79c-2.6 0-4.28-1.3-4.28-4.44 0-3.29 1.68-4.67 4.28-4.67s4.44 1.38 4.44 4.67c-.02 3.14-1.85 4.44-4.44 4.44z"/><path d="m691.56 380.39c1.45 2.29 4.13 4.05 8.26 4.05 5.58 0 8.19-2.91 8.19-6.5v-.46c0-4.28-3.75-5.51-9.56-6.27-7.42-.92-13.62-4.05-13.62-11.78v-1.38c0-7 4.67-12 14.3-12 7.57 0 12.24 3.44 14 8 .54 1.38-.15 2.29-1.45 2.68l-2.37.61c-1.38.38-2-.08-2.6-1.38-1.07-2.37-3.44-4-7.57-4-5.28 0-7.27 2.75-7.27 6.35v.38c0 3.9 3.37 5.28 9.1 6.12 7.42 1.19 14.03 3.27 14.03 11.6v1.76c-.08 7-5.51 12.24-15.22 12.24-7.65 0-12.78-3.14-14.92-7.88-.61-1.3.08-2.29 1.45-2.68l2.52-.69c1.35-.45 1.96.16 2.73 1.23z"/><path d="m114.58 430c9.79 0 15.84 6 15.84 15.84v12.7c0 9.87-6 15.84-15.84 15.84s-15.84-6-15.84-15.84v-12.7c.01-9.84 6.13-15.84 15.84-15.84zm0 38c5.58 0 8.72-3.52 8.72-10.4v-10.85c0-6.88-3.14-10.4-8.72-10.4s-8.72 3.52-8.72 10.4v10.86c0 6.89 3.06 10.39 8.72 10.39z"/><path d="m144.57 430.69 2.6-.31a1.83 1.83 0 0 1 2.37 2l-.08 2.68c2.68-2.75 6.66-5 10.79-5 9.1 0 13 5.2 13 14.76v26.62a2 2 0 0 1 -2.14 2.22h-2.75a2 2 0 0 1 -2.14-2.22v-25.68c0-6.27-1.76-9.49-7.27-9.49-3.67 0-7.34 2.91-9.33 5.66l-.08 29.45c0 1.45-.69 2.22-2.14 2.22h-2.68a2 2 0 0 1 -2.22-2.22v-38.38a2.15 2.15 0 0 1 2.07-2.31z"/><path d="m203.69 436.81a2 2 0 0 1 -2.22-2.14v-1.67a2 2 0 0 1 2.22-2.22h2.31l1.07-5a2.44 2.44 0 0 1 2-2.14l1.61-.23c1.38-.31 2.22.46 2.22 2v5.43h9.64c1.45 0 2.14.76 2.14 2.22v1.61c0 1.45-.69 2.22-2.14 2.22h-9.64l-.08 23.33c0 6.12 1.07 8.41 6.2 8.41a18.27 18.27 0 0 0 3.37-.31 2.08 2.08 0 0 1 2.61 1.68l.23 1.45a1.89 1.89 0 0 1 -1.68 2.52 27.21 27.21 0 0 1 -5.2.61c-9.26 0-12.55-3.82-12.55-13.62v-24.15z"/><path d="m235.51 418.22 2.68-.31a1.8 1.8 0 0 1 2.29 2v14.92a15 15 0 0 1 10.64-4.83c9.18 0 13.08 5 13.08 14.46v26.93a2 2 0 0 1 -2.14 2.22h-2.75a2 2 0 0 1 -2.14-2.22v-25.94c0-6.27-1.91-9.18-7.42-9.18-3.67 0-7.19 2.68-9.26 5.36v29.76a2 2 0 0 1 -2.14 2.22h-2.68a2 2 0 0 1 -2.22-2.22v-50.8a2.18 2.18 0 0 1 2.06-2.37z"/><path d="m292 430c9.79 0 15.84 6 15.84 15.84v6.58a2 2 0 0 1 -2.22 2.22l-22.34-.08v3.37c-.08 6.81 3.06 10.17 8.72 10.17 4 0 6.43-1.53 7.65-3.9.69-1.22 1.38-1.68 2.75-1.3l2.37.61c1.38.38 2.07 1.38 1.45 2.68-2.14 4.82-7 8.19-14.23 8.19-9.79 0-15.84-6-15.84-15.84v-12.7c-.02-9.84 6.03-15.84 15.85-15.84zm8.72 16.52c0-6.73-3-10.25-8.72-10.25s-8.8 3.44-8.8 10.25v2.48h17.52z"/><path d="m352.32 474.37c-9.1 0-13-5.58-13-15.45v-25.86a2.18 2.18 0 0 1 2.07-2.37l2.68-.31c1.53-.31 2.29.54 2.29 2l.08 25.7c0 6.81 1.61 10 6.81 10a10.74 10.74 0 0 0 9.41-4.82v-30.2a2.18 2.18 0 0 1 2.07-2.37l2.75-.31c1.45-.31 2.22.54 2.22 2l.08 27.85c-.08 4.59.23 7.11 1.22 9.72.46 1.38.15 2.29-1.15 2.83l-2.22.77c-1.3.54-2.29.31-2.83-.84a22.3 22.3 0 0 1 -1.07-2.91 16.89 16.89 0 0 1 -11.41 4.57z"/><path d="m399.82 430c9.33 0 13.54 5.43 13.54 15.3v13.23c0 9.87-5.66 15.84-15.22 15.84a30.58 30.58 0 0 1 -8.87-1.3l-.08 8.95a2.12 2.12 0 0 1 -2 2.37l-2.68.31a1.81 1.81 0 0 1 -2.37-2v-49.7a2.15 2.15 0 0 1 2.07-2.29l2.6-.31c1.45-.31 2.29.54 2.29 2v2.52a15.42 15.42 0 0 1 10.72-4.92zm-1.15 6.43c-3.75 0-7.42 2.75-9.41 5.43v24.56a19.8 19.8 0 0 0 8.49 1.61c5.66 0 8.57-3.52 8.57-10.4v-11.4c0-6.51-2.06-9.8-7.65-9.8z"/><path d="m476.16 469.93a1.92 1.92 0 0 1 -1.15 2.83l-2.22.77c-1.22.54-2.29.31-2.75-.84a14.26 14.26 0 0 1 -1.07-2.83 17 17 0 0 1 -11.47 4.51c-8.49 0-13.85-3.9-13.85-12.24 0-9.18 5.74-12.09 14.53-12.09h9.72v-4.9c0-6.35-2.52-8.8-8.11-8.8-3.67 0-6.35 1.45-7.65 3.67-.69 1.15-1.38 1.68-2.68 1.3l-2.6-.69c-1.38-.46-2-1.38-1.38-2.75 2.14-4.51 7.19-7.88 14.31-7.88 9.79 0 15.22 4.74 15.15 14.08v16.14c0 4.6.23 7.12 1.22 9.72zm-17.9-1.38a11.63 11.63 0 0 0 9.64-5v-8.15h-9.49c-5 0-7.57 1.68-7.57 6.58 0 4.66 3.06 6.58 7.42 6.58z"/><path d="m489.54 430.69 2.6-.31a1.83 1.83 0 0 1 2.37 2l-.08 2.68c2.68-2.75 6.66-5 10.79-5 9.1 0 13 5.2 13 14.76v26.62a2 2 0 0 1 -2.14 2.22h-2.75a2 2 0 0 1 -2.14-2.22v-25.68c0-6.27-1.76-9.49-7.27-9.49-3.67 0-7.34 2.91-9.33 5.66l-.08 29.45c0 1.45-.69 2.22-2.14 2.22h-2.67a2 2 0 0 1 -2.22-2.22v-38.38a2.15 2.15 0 0 1 2.06-2.31z"/><path d="m556.78 472.76a21.35 21.35 0 0 1 -1.07-2.83 15.92 15.92 0 0 1 -11.09 4.44c-9.26 0-14.15-6-14.15-15.84v-13.23c0-9.87 4.67-15.3 13.62-15.3a24.85 24.85 0 0 1 10.56 2.14v-11.55a2.23 2.23 0 0 1 2.07-2.37l2.68-.31a1.83 1.83 0 0 1 2.37 2v40.31c0 4.59.23 7.11 1.22 9.72.46 1.38.15 2.29-1.15 2.83l-2.22.77c-1.31.52-2.3.29-2.84-.78zm-11.63-36.34c-5.36 0-7.65 3.29-7.65 9.79v11.4c0 6.88 2.22 10.4 8 10.4a10.28 10.28 0 0 0 9.18-4.74v-24.86a22.27 22.27 0 0 0 -9.53-1.98z"/><path d="m606.88 474.37c-9.1 0-13-5.58-13-15.45v-25.86a2.18 2.18 0 0 1 2.07-2.37l2.68-.31c1.53-.31 2.29.54 2.29 2l.08 25.7c0 6.81 1.61 10 6.81 10a10.74 10.74 0 0 0 9.41-4.82v-30.2a2.18 2.18 0 0 1 2.07-2.37l2.75-.31c1.45-.31 2.22.54 2.22 2l.08 27.85c-.08 4.59.23 7.11 1.22 9.72.46 1.38.15 2.29-1.15 2.83l-2.22.77c-1.3.54-2.29.31-2.83-.84a22.3 22.3 0 0 1 -1.07-2.91 16.89 16.89 0 0 1 -11.41 4.57z"/><path d="m654.38 430c9.33 0 13.54 5.43 13.54 15.3v13.23c0 9.87-5.66 15.84-15.22 15.84a30.58 30.58 0 0 1 -8.87-1.3l-.08 8.95a2.12 2.12 0 0 1 -2 2.37l-2.68.31a1.81 1.81 0 0 1 -2.37-2v-49.7a2.15 2.15 0 0 1 2.07-2.29l2.6-.31c1.45-.31 2.29.54 2.29 2v2.52a15.42 15.42 0 0 1 10.72-4.92zm-1.15 6.43c-3.75 0-7.42 2.75-9.41 5.43v24.56a19.79 19.79 0 0 0 8.49 1.61c5.66 0 8.57-3.52 8.57-10.4v-11.4c.01-6.51-2.06-9.8-7.64-9.8z"/><path d="m678.17 469.93c0-3.29 1.68-4.82 4.21-4.82s4.36 1.53 4.36 4.82c0 3.06-1.76 4.51-4.36 4.51s-4.21-1.44-4.21-4.51z"/><path d="m1026.84 230.79h-486.37v-221.79h486.37zm-477.37-9h468.37v-203.79h-468.37z"/><path d="m953.36 230.79h-136v-87.47h136zm-127-9h118v-69.47h-118z"/><path d="m678.92-73.22h9v307.76h-9z" transform="matrix(.43648776 -.8997102 .8997102 .43648776 312.56 660.34)"/><path d="m909.04 76.16h153.11v9h-153.11z" transform="matrix(.47991729 -.87731374 .87731374 .47991729 441.85 906.65)"/><path d="m721.79 808.36h-302.39v-135.41h302.39zm-293.39-9h284.39v-117.41h-284.39z"/><path d="m1026.84 891h-1017.84v-326.86h1017.84zm-1008.84-9h999.84v-308.86h-999.84z"/><path d="m214.2 410.75h9v424.58h-9z" transform="matrix(.26 -.97 .97 .26 -439.58 674.76)"/><path d="m707.88 618.54h323.88v9h-323.88z" transform="matrix(.94188168 -.33594478 .33594478 .94188168 -158.76 328.43)"/><path d="m865.32 687.16h9v316.05h-9z" transform="matrix(.26151541 -.9651993 .9651993 .26151541 -173.39 1463.75)"/><path d="m9.38 840.68h418.63v9h-418.63z" transform="matrix(.98034011 -.19731515 .19731515 .98034011 -162.53 59.8)"/><path d="m1240.09 504.49h-144.76v-135.41h144.77zm-135.77-9h126.77v-117.41h-126.76z"/><path d="m1591 573.14h-573.16v-349.56h573.16zm-564.16-9h555.16v-331.56h-555.16z"/><path d="m1056.58 218.4h9v164.85h-9z" transform="matrix(.88261962 -.47008786 .47008786 .88261962 -16.88 534.05)"/><path d="m1221.11 296.33h379.87v9h-379.87z" transform="matrix(.92374589 -.3830059 .3830059 .92374589 -7.61 563.42)"/><path d="m1009.32 529.81h103.52v9h-103.52z" transform="matrix(.74849294 -.66314276 .66314276 .74849294 -87.44 838.09)"/><path d="m1406.55 355.53h9v357.56h-9z" transform="matrix(.19200814 -.98139333 .98139333 .19200814 615.77 1816.53)"/></g><path d="m150.24 221 30.63 4.89v5.11h-40.75v-64h10.13zm166-54-29.79 64h11.15l14.76-31.86 16.22-2.64 16 34.5h11.15l-29.79-64zm-25.59 0-16.65 36.09-12.6 2.05-17.71-38.14h-11.15l29.79 64h9.67l29.79-64zm50.56 5 24.29 5v54h10.13v-54l24.37-4.93v-5h-58.77zm104.22 0v-5h-40.12v64h40.14v-5.07l-6.33-1-23.68-3.93v-17.08l30-4.85v-5.07h-30v-17zm-258.36 59h40.14v-5.07l-30-4.89v-17.12l30-4.85v-5.07h-30v-17l30-4.89v-5.11h-40.14zm-93.3 0h40.14v-5.07l-30-4.89v-17.12l30-4.85v-5.07h-30v-17l30-4.89v-5.11h-40.13z" fill="#fd0"/></svg>