<svg viewBox="0 0 1600 900" xmlns="http://www.w3.org/2000/svg"><path d="m1099.45 373.37-76.98-145.5h564.03l-351.07 145.5z" fill="#fd0"/><path d="m1600 900h-1600v-900h1600zm-1582-18h1564v-864h-1564z" fill="#fff"/><path d="m395.94 497.96h398.19v6h-398.19z" fill="#fd0"/><g fill="#fff"><path d="m97.23 319.71 4.1-.47a2.43 2.43 0 0 1 3.08 2.14l13.24 52.62 12.12-51.85a2.57 2.57 0 0 1 2.89-2.33h4.66a2.54 2.54 0 0 1 2.8 2.33l12.31 51.85 12.77-51.85a2.68 2.68 0 0 1 2.89-2.33h4.2c2 0 2.8 1.12 2.33 3l-17.16 60a2.83 2.83 0 0 1 -3 2.33h-4.57a2.62 2.62 0 0 1 -2.89-2.33l-12.19-50.82-11.94 50.73a2.68 2.68 0 0 1 -2.89 2.33h-4.66a2.89 2.89 0 0 1 -3-2.33l-17.14-59.85a2.27 2.27 0 0 1 2.05-3.17z"/><path d="m201.66 331.92c11.94 0 19.3 7.27 19.3 19.3v8a2.42 2.42 0 0 1 -2.7 2.7l-27.26-.07v4.15c-.09 8.3 3.73 12.4 10.63 12.4 4.85 0 7.83-1.86 9.32-4.76.84-1.49 1.68-2.05 3.36-1.59l2.89.75c1.68.47 2.52 1.68 1.77 3.26-2.61 5.87-8.49 10-17.34 10-11.94 0-19.3-7.27-19.3-19.3v-15.54c.03-12.02 7.39-19.3 19.33-19.3zm10.63 20.14c0-8.21-3.64-12.5-10.63-12.5s-10.72 4.2-10.72 12.5v3h21.35z"/><path d="m241.94 373.79c1.77 2.8 5 4.94 10.07 4.94 6.81 0 10-3.54 10-7.93v-.56c0-5.22-4.57-6.71-11.66-7.65-9-1.12-16.6-4.94-16.6-14.36v-1.68c0-8.58 5.69-14.64 17.44-14.64 9.23 0 14.92 4.2 17.06 9.79.65 1.68-.19 2.8-1.77 3.26l-2.89.75c-1.68.47-2.42-.09-3.17-1.68-1.31-2.89-4.2-4.85-9.23-4.85-6.43 0-8.86 3.36-8.86 7.74v.47c0 4.76 4.1 6.43 11.1 7.46 9 1.4 17.16 3.92 17.16 14.08v2.15c-.12 8.49-6.74 14.92-18.59 14.92-9.32 0-15.57-3.82-18.18-9.6-.75-1.59.09-2.8 1.77-3.26l3.08-.84c1.59-.56 2.33.18 3.27 1.49z"/><path d="m281 340.22a2.39 2.39 0 0 1 -2.7-2.61v-2.05a2.42 2.42 0 0 1 2.7-2.7h2.8l1.31-6.15a3 3 0 0 1 2.42-2.61l2-.28c1.68-.37 2.7.56 2.7 2.42v6.62h11.75c1.77 0 2.61.93 2.61 2.7v2c0 1.77-.84 2.7-2.61 2.7h-11.79l-.09 28.44c0 7.46 1.31 10.26 7.55 10.26a22.32 22.32 0 0 0 4.1-.37c1.77-.19 2.8.47 3.17 2.14l.28 1.77a2.3 2.3 0 0 1 -2.05 3.08 33.21 33.21 0 0 1 -6.34.75c-11.28 0-15.29-4.66-15.29-16.6v-29.51z"/><path d="m347.85 373.79c1.77 2.8 5 4.94 10.07 4.94 6.81 0 10-3.54 10-7.93v-.56c0-5.22-4.57-6.71-11.66-7.65-9-1.12-16.6-4.94-16.6-14.36v-1.68c0-8.58 5.69-14.64 17.44-14.64 9.23 0 14.92 4.2 17.06 9.79.65 1.68-.19 2.8-1.77 3.26l-2.89.75c-1.68.47-2.42-.09-3.17-1.68-1.31-2.89-4.2-4.85-9.23-4.85-6.43 0-8.86 3.36-8.86 7.74v.47c0 4.76 4.1 6.43 11.1 7.46 9 1.4 17.16 3.92 17.16 14.08v2.15c-.09 8.49-6.71 14.92-18.56 14.92-9.32 0-15.57-3.82-18.18-9.6-.75-1.59.09-2.8 1.77-3.26l3.08-.84c1.56-.56 2.31.18 3.24 1.49z"/><path d="m397.92 335.56v46.81a2.39 2.39 0 0 1 -2.61 2.7h-3.31a2.42 2.42 0 0 1 -2.7-2.7v-42.15h-3a2.39 2.39 0 0 1 -2.7-2.61v-2.05a2.42 2.42 0 0 1 2.7-2.7h9a2.39 2.39 0 0 1 2.62 2.7zm-4.48-7.09c-3.17 0-5.22-1.58-5.22-5.41 0-4 2.05-5.69 5.22-5.69s5.41 1.68 5.41 5.69c0 3.83-2.23 5.41-5.4 5.41z"/><path d="m444.91 384a26 26 0 0 1 -1.31-3.45 19.4 19.4 0 0 1 -13.51 5.45c-11.28 0-17.25-7.27-17.25-19.3v-16.13c0-12 5.69-18.65 16.6-18.65a30.29 30.29 0 0 1 12.87 2.61v-14.08a2.71 2.71 0 0 1 2.52-2.89l3.26-.37c1.87-.28 2.89.65 2.89 2.42v49.14c0 5.6.28 8.67 1.49 11.84.56 1.68.19 2.8-1.4 3.45l-2.7.93c-1.59.66-2.8.38-3.46-.97zm-14.17-44.29c-6.53 0-9.32 4-9.32 11.94v13.89c0 8.39 2.7 12.68 9.7 12.68 5.13 0 8.86-2.14 11.19-5.78v-30.26a27.14 27.14 0 0 0 -11.57-2.42z"/><path d="m485 331.92c11.94 0 19.3 7.27 19.3 19.3v8a2.42 2.42 0 0 1 -2.7 2.7l-27.23-.09v4.17c-.09 8.3 3.73 12.4 10.63 12.4 4.85 0 7.83-1.86 9.32-4.76.84-1.49 1.68-2.05 3.36-1.59l2.89.75c1.68.47 2.52 1.68 1.77 3.26-2.61 5.87-8.49 10-17.34 10-11.94 0-19.3-7.27-19.3-19.3v-15.54c0-12.02 7.37-19.3 19.3-19.3zm10.63 20.14c0-8.21-3.64-12.5-10.63-12.5s-10.72 4.2-10.72 12.5v3h21.35z"/><path d="m543 371.74v-51.29a2.65 2.65 0 0 1 2.52-2.89l3.26-.37c1.86-.28 2.8.65 2.8 2.42l.09 49.14c-.09 5.6.28 8.67 1.49 11.84.56 1.68.09 2.8-1.4 3.45l-3.08.93c-1.49.65-2.61.47-3.17-.65-1.77-3.44-2.51-7.08-2.51-12.58z"/><path d="m575.54 335.56v46.81a2.39 2.39 0 0 1 -2.61 2.7h-3.26a2.42 2.42 0 0 1 -2.7-2.7v-42.15h-3a2.39 2.39 0 0 1 -2.7-2.61v-2.05a2.42 2.42 0 0 1 2.7-2.7h9a2.39 2.39 0 0 1 2.57 2.7zm-4.48-7.09c-3.17 0-5.22-1.58-5.22-5.41 0-4 2.05-5.69 5.22-5.69s5.41 1.68 5.41 5.69c0 3.83-2.24 5.41-5.41 5.41z"/><path d="m588 332.76 3.82-.47a2.45 2.45 0 0 1 3.08 2.05l11.84 40.38 11.47-39.63a2.77 2.77 0 0 1 3-2.24h3.79c2 0 2.8 1.21 2.24 3.08l-15.67 46.9a2.91 2.91 0 0 1 -3.08 2.24h-3.82a2.75 2.75 0 0 1 -3-2.24l-15.67-46.9a2.21 2.21 0 0 1 2-3.17z"/><path d="m646.4 335.56v46.81a2.39 2.39 0 0 1 -2.61 2.7h-3.26a2.42 2.42 0 0 1 -2.7-2.7v-42.15h-3a2.39 2.39 0 0 1 -2.7-2.61v-2.05a2.42 2.42 0 0 1 2.7-2.7h9a2.39 2.39 0 0 1 2.57 2.7zm-4.48-7.09c-3.17 0-5.22-1.58-5.22-5.41 0-4 2.05-5.69 5.22-5.69s5.41 1.68 5.41 5.69c0 3.83-2.24 5.41-5.41 5.41z"/><path d="m664.3 332.76 3.17-.37a2.23 2.23 0 0 1 2.89 2.42l-.09 3.26c3.26-3.36 8.11-6.15 13.15-6.15 11.1 0 15.85 6.34 15.85 18v32.45a2.39 2.39 0 0 1 -2.61 2.7h-3.36a2.39 2.39 0 0 1 -2.61-2.7v-31.24c0-7.65-2.14-11.56-8.86-11.56-4.48 0-9 3.54-11.38 6.9l-.09 35.9c0 1.77-.84 2.7-2.61 2.7h-3.26a2.42 2.42 0 0 1 -2.7-2.7v-46.81a2.62 2.62 0 0 1 2.51-2.8z"/><path d="m752.32 335.56v47.09c0 11.56-7.55 17.34-18.84 17.34-10.26 0-16.41-3.36-18.18-9.88-.56-1.58.37-2.7 2.14-3l3.17-.47c1.58-.28 2.33.37 3.17 1.77 1.31 2.89 4.2 3.82 9.7 3.82 6.15 0 10.16-2.8 10.16-10.72v-5.51a18.14 18.14 0 0 1 -12.87 5.41c-11.38 0-16.5-6.34-16.5-18.37v-12.47c0-12 5.59-18.65 16.5-18.65a32.63 32.63 0 0 1 13.33 2.8l.84-.75a4.65 4.65 0 0 1 3.26-1.12h1.58c1.6.01 2.54.94 2.54 2.71zm-20.14 4.2c-6.53 0-9.42 4-9.42 11.94l.09 10.26c-.09 7.83 2.52 11.66 9.23 11.66 4.48 0 8.77-2.61 11.66-5.87l-.09-25.46a25.56 25.56 0 0 0 -11.48-2.53z"/><path d="m800.33 335.56v46.81a2.39 2.39 0 0 1 -2.61 2.7h-3.26a2.42 2.42 0 0 1 -2.7-2.7v-42.15h-3a2.39 2.39 0 0 1 -2.7-2.61v-2.05a2.42 2.42 0 0 1 2.7-2.7h9a2.39 2.39 0 0 1 2.57 2.7zm-4.48-7.09c-3.17 0-5.22-1.58-5.22-5.41 0-4 2.05-5.69 5.22-5.69s5.41 1.68 5.41 5.69c0 3.83-2.26 5.41-5.41 5.41z"/><path d="m822.15 373.79c1.77 2.8 5 4.94 10.07 4.94 6.81 0 10-3.54 10-7.93v-.56c0-5.22-4.57-6.71-11.66-7.65-9-1.12-16.6-4.94-16.6-14.36v-1.68c0-8.58 5.69-14.64 17.44-14.64 9.23 0 14.92 4.2 17.06 9.79.65 1.68-.19 2.8-1.77 3.26l-2.89.75c-1.68.47-2.42-.09-3.17-1.68-1.31-2.89-4.2-4.85-9.23-4.85-6.43 0-8.86 3.36-8.86 7.74v.47c0 4.76 4.1 6.43 11.1 7.46 9 1.4 17.16 3.92 17.16 14.08v2.15c-.09 8.49-6.71 14.92-18.56 14.92-9.33 0-15.57-3.82-18.18-9.6-.75-1.59.09-2.8 1.77-3.26l3.08-.84c1.56-.56 2.3.18 3.24 1.49z"/><path d="m118.86 434.26c11.94 0 19.3 7.27 19.3 19.3v15.44c0 12-7.37 19.3-19.3 19.3s-19.3-7.27-19.3-19.3v-15.44c0-12.03 7.44-19.3 19.3-19.3zm0 46.34c6.81 0 10.63-4.29 10.63-12.68v-13.24c0-8.39-3.82-12.68-10.63-12.68s-10.63 4.29-10.63 12.68v13.24c0 8.39 3.77 12.68 10.63 12.68z"/><path d="m155.41 435.1 3.17-.37a2.23 2.23 0 0 1 2.89 2.42l-.09 3.26c3.26-3.36 8.11-6.15 13.15-6.15 11.1 0 15.85 6.34 15.85 18v32.44a2.39 2.39 0 0 1 -2.61 2.7h-3.36a2.39 2.39 0 0 1 -2.61-2.7v-31.23c0-7.65-2.14-11.56-8.86-11.56-4.48 0-9 3.54-11.38 6.9l-.09 35.9c0 1.77-.84 2.7-2.61 2.7h-3.26a2.42 2.42 0 0 1 -2.7-2.7v-46.82a2.62 2.62 0 0 1 2.51-2.79z"/><path d="m227.48 442.56a2.39 2.39 0 0 1 -2.7-2.61v-2.05a2.42 2.42 0 0 1 2.7-2.7h2.8l1.31-6.15a3 3 0 0 1 2.42-2.61l2-.28c1.68-.37 2.7.56 2.7 2.42v6.62h11.75c1.77 0 2.61.93 2.61 2.7v2c0 1.77-.84 2.7-2.61 2.7h-11.79l-.09 28.4c0 7.46 1.31 10.26 7.55 10.26a22.27 22.27 0 0 0 4.1-.37c1.77-.19 2.8.47 3.17 2.14l.28 1.77a2.3 2.3 0 0 1 -2.05 3.08 33.17 33.17 0 0 1 -6.34.75c-11.29-.01-15.29-4.63-15.29-16.63v-29.44z"/><path d="m266.27 419.9 3.26-.37a2.19 2.19 0 0 1 2.8 2.42v18.18a18.28 18.28 0 0 1 13-5.87c11.19 0 15.94 6.06 15.94 17.62v32.82a2.39 2.39 0 0 1 -2.61 2.7h-3.36a2.39 2.39 0 0 1 -2.61-2.7v-31.61c0-7.65-2.33-11.19-9-11.19-4.48 0-8.77 3.26-11.28 6.53v36.27a2.39 2.39 0 0 1 -2.61 2.7h-3.26a2.42 2.42 0 0 1 -2.7-2.7v-61.91a2.65 2.65 0 0 1 2.43-2.89z"/><path d="m335.08 434.26c11.94 0 19.3 7.27 19.3 19.3v8a2.42 2.42 0 0 1 -2.7 2.7l-27.23-.09v4.1c-.09 8.3 3.73 12.4 10.63 12.4 4.85 0 7.83-1.87 9.32-4.76.84-1.49 1.68-2.05 3.36-1.58l2.89.75c1.68.47 2.52 1.68 1.77 3.26-2.61 5.88-8.49 10-17.34 10-11.94 0-19.3-7.27-19.3-19.3v-15.48c0-12.03 7.36-19.3 19.3-19.3zm10.63 20.14c0-8.21-3.64-12.5-10.63-12.5s-10.72 4.2-10.72 12.5v3h21.35z"/><path d="m408.64 488.34c-11.1 0-15.85-6.81-15.85-18.84v-31.5a2.65 2.65 0 0 1 2.52-2.89l3.26-.37c1.86-.37 2.8.65 2.8 2.42l.09 31.33c0 8.3 2 12.21 8.3 12.21 5.13 0 9.14-2.24 11.47-5.87v-36.83a2.65 2.65 0 0 1 2.52-2.89l3.36-.37c1.77-.37 2.7.65 2.7 2.42l.09 33.94c-.09 5.59.28 8.67 1.49 11.84.56 1.68.19 2.8-1.4 3.45l-2.7.93c-1.58.65-2.8.37-3.45-1a27.18 27.18 0 0 1 -1.31-3.54 20.58 20.58 0 0 1 -13.89 5.56z"/><path d="m466.54 434.26c11.38 0 16.5 6.62 16.5 18.65v16.09c0 12-6.9 19.3-18.56 19.3a37.28 37.28 0 0 1 -10.82-1.58l-.09 10.91a2.58 2.58 0 0 1 -2.42 2.89l-3.26.37c-1.86.37-2.89-.65-2.89-2.42v-60.58a2.62 2.62 0 0 1 2.52-2.8l3.17-.37c1.77-.37 2.8.65 2.8 2.42v3.08c3.36-3.44 8.11-5.96 13.05-5.96zm-1.4 7.83c-4.57 0-9 3.36-11.47 6.62v29.93a24.13 24.13 0 0 0 10.35 2c6.9 0 10.44-4.29 10.44-12.68v-13.96c.01-7.9-2.46-11.91-9.31-11.91z"/><path d="m559.6 482.93c.65 1.68.19 2.8-1.4 3.45l-2.7.93c-1.49.65-2.8.37-3.36-1a17.38 17.38 0 0 1 -1.31-3.45 20.74 20.74 0 0 1 -14 5.5c-10.35 0-16.88-4.76-16.88-14.92 0-11.19 7-14.73 17.72-14.73h11.84v-6c0-7.74-3.08-10.72-9.88-10.72-4.48 0-7.74 1.77-9.32 4.48-.84 1.4-1.68 2.05-3.26 1.58l-3.17-.84c-1.68-.56-2.42-1.68-1.68-3.36 2.61-5.5 8.77-9.6 17.44-9.6 11.94 0 18.56 5.78 18.46 17.16v19.67c0 5.6.28 8.68 1.5 11.85zm-21.82-1.68a14.17 14.17 0 0 0 11.75-6.15v-9.88h-11.53c-6.06 0-9.23 2.05-9.23 8-.04 5.7 3.69 8.03 9.01 8.03z"/><path d="m575.91 435.1 3.17-.37a2.23 2.23 0 0 1 2.89 2.42l-.09 3.26c3.26-3.36 8.11-6.15 13.15-6.15 11.1 0 15.85 6.34 15.85 18v32.44a2.39 2.39 0 0 1 -2.61 2.7h-3.36a2.39 2.39 0 0 1 -2.61-2.7v-31.23c0-7.65-2.14-11.56-8.86-11.56-4.48 0-9 3.54-11.38 6.9l-.06 35.89c0 1.77-.84 2.7-2.61 2.7h-3.29a2.42 2.42 0 0 1 -2.7-2.7v-46.81a2.62 2.62 0 0 1 2.51-2.79z"/><path d="m657.87 486.38a26 26 0 0 1 -1.31-3.45 19.4 19.4 0 0 1 -13.56 5.41c-11.28 0-17.25-7.27-17.25-19.3v-16.13c0-12 5.69-18.65 16.6-18.65a30.29 30.29 0 0 1 12.87 2.61v-14.08a2.71 2.71 0 0 1 2.52-2.89l3.26-.37c1.87-.28 2.89.65 2.89 2.42v49.14c0 5.59.28 8.67 1.49 11.84.56 1.68.19 2.8-1.4 3.45l-2.7.93c-1.55.69-2.76.38-3.41-.93zm-14.17-44.29c-6.53 0-9.32 4-9.32 11.94v13.89c0 8.39 2.7 12.68 9.7 12.68 5.13 0 8.86-2.14 11.19-5.78v-30.31a27.14 27.14 0 0 0 -11.58-2.42z"/><path d="m718.94 488.34c-11.1 0-15.85-6.81-15.85-18.84v-31.5a2.65 2.65 0 0 1 2.52-2.89l3.26-.37c1.86-.37 2.8.65 2.8 2.42l.09 31.33c0 8.3 2 12.21 8.3 12.21 5.13 0 9.14-2.24 11.47-5.87v-36.83a2.65 2.65 0 0 1 2.47-2.9l3.36-.37c1.77-.37 2.7.65 2.7 2.42l.09 33.94c-.09 5.59.28 8.67 1.49 11.84.56 1.68.19 2.8-1.4 3.45l-2.7.93c-1.58.65-2.8.37-3.45-1a27.18 27.18 0 0 1 -1.31-3.54 20.58 20.58 0 0 1 -13.84 5.57z"/><path d="m776.84 434.26c11.38 0 16.5 6.62 16.5 18.65v16.09c0 12-6.9 19.3-18.56 19.3a37.28 37.28 0 0 1 -10.78-1.54l-.09 10.91a2.58 2.58 0 0 1 -2.42 2.89l-3.26.37c-1.86.37-2.89-.65-2.89-2.42v-60.62a2.62 2.62 0 0 1 2.52-2.8l3.17-.37c1.77-.37 2.8.65 2.8 2.42v3.08c3.31-3.44 8.06-5.96 13.01-5.96zm-1.4 7.83c-4.57 0-9 3.36-11.47 6.62v29.93a24.13 24.13 0 0 0 10.35 2c6.9 0 10.44-4.29 10.44-12.68v-13.96c0-7.9-2.52-11.91-9.32-11.91z"/><path d="m805.83 482.93c0-4 2.05-5.87 5.13-5.87s5.32 1.87 5.32 5.88c0 3.73-2.15 5.5-5.32 5.5s-5.13-1.78-5.13-5.51z"/><path d="m1026.84 230.79h-486.37v-221.79h486.37zm-477.37-9h468.37v-203.79h-468.37z"/><path d="m953.36 230.79h-136v-87.47h136zm-127-9h118v-69.47h-118z"/><path d="m678.92-73.22h9v307.76h-9z" transform="matrix(.43648776 -.8997102 .8997102 .43648776 312.56 660.34)"/><path d="m909.04 76.16h153.11v9h-153.11z" transform="matrix(.47991729 -.87731374 .87731374 .47991729 441.85 906.65)"/><path d="m721.79 808.36h-302.39v-135.41h302.39zm-293.39-9h284.39v-117.41h-284.39z"/><path d="m1026.84 891h-1017.84v-326.86h1017.84zm-1008.84-9h999.84v-308.86h-999.84z"/><path d="m214.2 410.75h9v424.58h-9z" transform="matrix(.26 -.97 .97 .26 -439.58 674.76)"/><path d="m707.88 618.54h323.88v9h-323.88z" transform="matrix(.94188168 -.33594478 .33594478 .94188168 -158.76 328.43)"/><path d="m865.32 687.16h9v316.05h-9z" transform="matrix(.26151541 -.9651993 .9651993 .26151541 -173.39 1463.75)"/><path d="m9.38 840.68h418.63v9h-418.63z" transform="matrix(.98034011 -.19731515 .19731515 .98034011 -162.53 59.8)"/><path d="m1240.09 504.49h-144.76v-135.41h144.77zm-135.77-9h126.77v-117.41h-126.76z"/><path d="m1591 573.14h-573.16v-349.56h573.16zm-564.16-9h555.16v-331.56h-555.16z"/><path d="m1056.58 218.4h9v164.85h-9z" transform="matrix(.88261962 -.47008786 .47008786 .88261962 -16.88 534.05)"/><path d="m1221.11 296.33h379.87v9h-379.87z" transform="matrix(.92374589 -.3830059 .3830059 .92374589 -7.61 563.42)"/><path d="m1009.32 529.81h103.52v9h-103.52z" transform="matrix(.74849294 -.66314276 .66314276 .74849294 -87.44 838.09)"/><path d="m1406.55 355.53h9v357.56h-9z" transform="matrix(.19200814 -.98139333 .98139333 .19200814 615.77 1816.53)"/></g><path d="m150.24 221 30.63 4.89v5.11h-40.75v-64h10.13zm166-54-29.79 64h11.15l14.76-31.86 16.22-2.64 16 34.5h11.15l-29.79-64zm-25.59 0-16.65 36.09-12.6 2.05-17.71-38.14h-11.15l29.79 64h9.67l29.79-64zm50.56 5 24.29 5v54h10.13v-54l24.37-4.93v-5h-58.77zm104.22 0v-5h-40.12v64h40.14v-5.07l-6.33-1-23.68-3.93v-17.08l30-4.85v-5.07h-30v-17zm-258.36 59h40.14v-5.07l-30-4.89v-17.12l30-4.85v-5.07h-30v-17l30-4.89v-5.11h-40.14zm-93.3 0h40.14v-5.07l-30-4.89v-17.12l30-4.85v-5.07h-30v-17l30-4.89v-5.11h-40.13z" fill="#fd0"/></svg>