<svg id="Layer_1" data-name="Layer 1" xmlns="http://www.w3.org/2000/svg" viewBox="0 0 1600 900"><defs><style>.cls-1{opacity:0.75;}.cls-2{fill:#fd0;}.cls-3{fill:#fff;}</style></defs><title>ELEVATE_splash-pg_PATTERN+LOGO-SLICE_v3-outlined</title><g class="cls-1"><rect x="1022" y="568" width="578" height="332"/></g><g class="cls-1"><polygon points="1005 575 1006 569.03 37 570 37 575 425 678 716 678 1005 575"/></g><g class="cls-1"><polygon points="1022 228 948 228 948 151 1022 16 1022 228"/></g><polygon class="cls-2" points="1099.45 373.37 1022.47 227.87 1586.5 227.87 1235.43 373.37 1099.45 373.37"/><path class="cls-3" d="M1600,900H0V0H1600ZM18,882H1582V18H18Z"/><rect class="cls-2" x="341.89" y="482.26" width="326.67" height="4.92"/><path class="cls-3" d="M96.84,336l3.37-.38a2,2,0,0,1,2.52,1.76l10.86,43.15L123.53,338a2.11,2.11,0,0,1,2.37-1.91h3.82A2.08,2.08,0,0,1,132,338l10.1,42.53L152.6,338A2.2,2.2,0,0,1,155,336.1h3.44c1.61,0,2.29.92,1.91,2.45l-14.08,49.19a2.32,2.32,0,0,1-2.45,1.91h-3.75a2.15,2.15,0,0,1-2.37-1.91l-10-41.62-9.79,41.62a2.2,2.2,0,0,1-2.37,1.91h-3.82a2.37,2.37,0,0,1-2.45-1.91L95.15,338.62A1.86,1.86,0,0,1,96.84,336Z"/><path class="cls-3" d="M182.51,346c9.79,0,15.84,6,15.84,15.84v6.58a2,2,0,0,1-2.22,2.22l-22.34-.08V374c-.08,6.81,3.06,10.17,8.72,10.17,4,0,6.43-1.53,7.65-3.9.69-1.22,1.38-1.68,2.75-1.3l2.37.61c1.38.38,2.07,1.38,1.45,2.68-2.14,4.82-7,8.19-14.23,8.19-9.79,0-15.84-6-15.84-15.84v-12.7C166.67,352,172.72,346,182.51,346Zm8.72,16.52c0-6.73-3-10.25-8.72-10.25s-8.8,3.44-8.8,10.25V365h17.52Z"/><path class="cls-3" d="M215.55,380.39c1.45,2.29,4.13,4.05,8.26,4.05,5.58,0,8.19-2.91,8.19-6.5v-.46c0-4.28-3.75-5.51-9.56-6.27-7.42-.92-13.62-4.05-13.62-11.78v-1.38c0-7,4.67-12,14.31-12,7.57,0,12.24,3.44,14,8,.54,1.38-.15,2.29-1.45,2.68l-2.37.61c-1.38.38-2-.08-2.6-1.38-1.07-2.37-3.44-4-7.57-4-5.28,0-7.27,2.75-7.27,6.35v.38c0,3.9,3.37,5.28,9.1,6.12C232.38,366,239,368.08,239,376.41v1.76c-.08,7-5.51,12.24-15.22,12.24-7.65,0-12.78-3.14-14.92-7.88-.61-1.3.08-2.29,1.45-2.68l2.52-.69C214.18,378.71,214.79,379.32,215.55,380.39Z"/><path class="cls-3" d="M247.6,352.85a2,2,0,0,1-2.22-2.14V349a2,2,0,0,1,2.22-2.22h2.29l1.07-5a2.44,2.44,0,0,1,2-2.14l1.61-.23c1.38-.31,2.22.46,2.22,2v5.43h9.64c1.45,0,2.14.76,2.14,2.22v1.61c0,1.45-.69,2.22-2.14,2.22h-9.64l-.08,23.33c0,6.12,1.07,8.41,6.2,8.41a18.31,18.31,0,0,0,3.37-.31,2.08,2.08,0,0,1,2.6,1.76l.23,1.45a1.89,1.89,0,0,1-1.68,2.52,27.25,27.25,0,0,1-5.2.61c-9.26,0-12.55-3.83-12.55-13.62V352.85Z"/><path class="cls-3" d="M302.45,380.39c1.45,2.29,4.13,4.05,8.26,4.05,5.58,0,8.19-2.91,8.19-6.5v-.46c0-4.28-3.75-5.51-9.56-6.27-7.42-.92-13.62-4.05-13.62-11.78v-1.38c0-7,4.67-12,14.31-12,7.57,0,12.24,3.44,14,8,.54,1.38-.15,2.29-1.45,2.68l-2.37.61c-1.38.38-2-.08-2.6-1.38-1.07-2.37-3.44-4-7.57-4-5.28,0-7.27,2.75-7.27,6.35v.38c0,3.9,3.37,5.28,9.1,6.12,7.42,1.15,14.08,3.21,14.08,11.55v1.76c-.08,7-5.51,12.24-15.22,12.24-7.65,0-12.78-3.14-14.92-7.88-.61-1.3.08-2.29,1.45-2.68l2.52-.69C301.07,378.71,301.68,379.32,302.45,380.39Z"/><path class="cls-3" d="M343.52,349v38.4a2,2,0,0,1-2.14,2.22H338.7a2,2,0,0,1-2.22-2.22V352.85H334a2,2,0,0,1-2.22-2.14V349a2,2,0,0,1,2.22-2.22h7.34A2,2,0,0,1,343.52,349Zm-3.67-5.81c-2.6,0-4.28-1.3-4.28-4.44,0-3.29,1.68-4.67,4.28-4.67s4.44,1.38,4.44,4.67C344.29,341.91,342.45,343.21,339.85,343.21Z"/><path class="cls-3" d="M382.08,388.81A21.35,21.35,0,0,1,381,386a15.92,15.92,0,0,1-11.09,4.44c-9.26,0-14.15-6-14.15-15.84V361.34c0-9.87,4.67-15.3,13.62-15.3a24.85,24.85,0,0,1,10.56,2.14V336.64a2.23,2.23,0,0,1,2.07-2.37l2.68-.31a1.83,1.83,0,0,1,2.37,2v40.31c0,4.59.23,7.11,1.22,9.72.46,1.38.15,2.29-1.15,2.83l-2.22.77C383.61,390.11,382.61,389.88,382.08,388.81Zm-11.63-36.34c-5.36,0-7.65,3.29-7.65,9.79v11.4c0,6.88,2.22,10.4,8,10.4a10.28,10.28,0,0,0,9.18-4.74V354.46A22.27,22.27,0,0,0,370.45,352.47Z"/><path class="cls-3" d="M415,346c9.79,0,15.84,6,15.84,15.84v6.58a2,2,0,0,1-2.22,2.22l-22.34-.08V374c-.08,6.81,3.06,10.17,8.72,10.17,4,0,6.43-1.53,7.65-3.9.69-1.22,1.38-1.68,2.75-1.3l2.37.61c1.38.38,2.07,1.38,1.45,2.68-2.14,4.82-7,8.19-14.23,8.19-9.79,0-15.84-6-15.84-15.84v-12.7C399.13,352,405.18,346,415,346Zm8.72,16.52c0-6.73-3-10.25-8.72-10.25s-8.8,3.44-8.8,10.25V365h17.52Z"/><path class="cls-3" d="M462.54,378.71V336.64a2.18,2.18,0,0,1,2.07-2.37l2.68-.31a1.78,1.78,0,0,1,2.29,2l.08,40.31c-.08,4.59.23,7.11,1.22,9.72a2,2,0,0,1-1.15,2.83l-2.52.77c-1.22.54-2.14.38-2.6-.54C463.16,386.21,462.54,383.22,462.54,378.71Z"/><path class="cls-3" d="M489.24,349v38.4a2,2,0,0,1-2.14,2.22h-2.68a2,2,0,0,1-2.22-2.22V352.85h-2.45a2,2,0,0,1-2.22-2.14V349a2,2,0,0,1,2.22-2.22h7.34A2,2,0,0,1,489.24,349Zm-3.67-5.81c-2.6,0-4.28-1.3-4.28-4.44,0-3.29,1.68-4.67,4.28-4.67s4.44,1.38,4.44,4.67C490,341.91,488.17,343.21,485.57,343.21Z"/><path class="cls-3" d="M499.49,346.73l3.14-.38a2,2,0,0,1,2.52,1.68l9.72,33.12,9.41-32.51a2.28,2.28,0,0,1,2.45-1.84h3.14c1.61,0,2.3,1,1.84,2.52l-12.85,38.48a2.39,2.39,0,0,1-2.52,1.84h-3.14a2.26,2.26,0,0,1-2.45-1.84L497.8,349.33A1.82,1.82,0,0,1,499.49,346.73Z"/><path class="cls-3" d="M547.37,349v38.4a2,2,0,0,1-2.14,2.22h-2.68a2,2,0,0,1-2.22-2.22V352.85h-2.45a2,2,0,0,1-2.22-2.14V349a2,2,0,0,1,2.22-2.22h7.34A2,2,0,0,1,547.37,349Zm-3.67-5.81c-2.6,0-4.28-1.3-4.28-4.44,0-3.29,1.68-4.67,4.28-4.67s4.44,1.38,4.44,4.67C548.14,341.91,546.3,343.21,543.7,343.21Z"/><path class="cls-3" d="M562.06,346.73l2.6-.31a1.83,1.83,0,0,1,2.37,2l-.08,2.68c2.68-2.75,6.66-5,10.79-5,9.1,0,13,5.2,13,14.76v26.62a2,2,0,0,1-2.14,2.22h-2.75a2,2,0,0,1-2.14-2.22V361.8c0-6.27-1.76-9.49-7.27-9.49-3.67,0-7.34,2.91-9.33,5.66L567,387.43c0,1.45-.69,2.22-2.14,2.22h-2.68a2,2,0,0,1-2.22-2.22V349A2.15,2.15,0,0,1,562.06,346.73Z"/><path class="cls-3" d="M634.27,349v38.63c0,9.49-6.2,14.23-15.45,14.23-8.42,0-13.46-2.75-14.92-8.11-.46-1.3.31-2.22,1.76-2.45l2.6-.38c1.3-.23,1.91.31,2.6,1.45,1.07,2.37,3.44,3.14,8,3.14,5,0,8.34-2.29,8.34-8.8v-4.51a14.89,14.89,0,0,1-10.56,4.44c-9.33,0-13.54-5.2-13.54-15.07V361.34c0-9.87,4.59-15.3,13.54-15.3a26.77,26.77,0,0,1,10.94,2.29l.69-.61a3.81,3.81,0,0,1,2.68-.92h1.3A1.94,1.94,0,0,1,634.27,349Zm-16.52,3.44c-5.36,0-7.73,3.29-7.73,9.79l.08,8.42c-.08,6.43,2.07,9.56,7.57,9.56,3.67,0,7.19-2.14,9.56-4.82l-.08-20.88A21,21,0,0,0,617.74,352.47Z"/><path class="cls-3" d="M673.66,349v38.4a2,2,0,0,1-2.14,2.22h-2.68a2,2,0,0,1-2.22-2.22V352.85h-2.45a2,2,0,0,1-2.22-2.14V349a2,2,0,0,1,2.22-2.22h7.34A2,2,0,0,1,673.66,349ZM670,343.21c-2.6,0-4.28-1.3-4.28-4.44,0-3.29,1.68-4.67,4.28-4.67s4.44,1.38,4.44,4.67C674.42,341.91,672.59,343.21,670,343.21Z"/><path class="cls-3" d="M691.56,380.39c1.45,2.29,4.13,4.05,8.26,4.05,5.58,0,8.19-2.91,8.19-6.5v-.46c0-4.28-3.75-5.51-9.56-6.27-7.42-.92-13.62-4.05-13.62-11.78v-1.38c0-7,4.67-12,14.3-12,7.57,0,12.24,3.44,14,8,.54,1.38-.15,2.29-1.45,2.68l-2.37.61c-1.38.38-2-.08-2.6-1.38-1.07-2.37-3.44-4-7.57-4-5.28,0-7.27,2.75-7.27,6.35v.38c0,3.9,3.37,5.28,9.1,6.12C708.39,366,715,368.08,715,376.41v1.76c-.08,7-5.51,12.24-15.22,12.24-7.65,0-12.78-3.14-14.92-7.88-.61-1.3.08-2.29,1.45-2.68l2.52-.69C690.18,378.71,690.79,379.32,691.56,380.39Z"/><path class="cls-3" d="M114.58,430c9.79,0,15.84,6,15.84,15.84v12.7c0,9.87-6,15.84-15.84,15.84s-15.84-6-15.84-15.84v-12.7C98.75,436,104.87,430,114.58,430Zm0,38c5.58,0,8.72-3.52,8.72-10.4V446.75c0-6.88-3.14-10.4-8.72-10.4s-8.72,3.52-8.72,10.4v10.86C105.86,464.5,108.92,468,114.58,468Z"/><path class="cls-3" d="M144.57,430.69l2.6-.31a1.83,1.83,0,0,1,2.37,2l-.08,2.68c2.68-2.75,6.66-5,10.79-5,9.1,0,13,5.2,13,14.76v26.62a2,2,0,0,1-2.14,2.22h-2.75a2,2,0,0,1-2.14-2.22V445.76c0-6.27-1.76-9.49-7.27-9.49-3.67,0-7.34,2.91-9.33,5.66l-.08,29.45c0,1.45-.69,2.22-2.14,2.22h-2.68a2,2,0,0,1-2.22-2.22V433A2.15,2.15,0,0,1,144.57,430.69Z"/><path class="cls-3" d="M203.69,436.81a2,2,0,0,1-2.22-2.14V433a2,2,0,0,1,2.22-2.22H206l1.07-5a2.44,2.44,0,0,1,2-2.14l1.61-.23c1.38-.31,2.22.46,2.22,2v5.43h9.64c1.45,0,2.14.76,2.14,2.22v1.61c0,1.45-.69,2.22-2.14,2.22h-9.64l-.08,23.33c0,6.12,1.07,8.41,6.2,8.41a18.27,18.27,0,0,0,3.37-.31A2.08,2.08,0,0,1,225,470l.23,1.45a1.89,1.89,0,0,1-1.68,2.52,27.21,27.21,0,0,1-5.2.61c-9.26,0-12.55-3.82-12.55-13.62V436.81Z"/><path class="cls-3" d="M235.51,418.22l2.68-.31a1.8,1.8,0,0,1,2.29,2v14.92A15,15,0,0,1,251.12,430c9.18,0,13.08,5,13.08,14.46v26.93a2,2,0,0,1-2.14,2.22h-2.75a2,2,0,0,1-2.14-2.22V445.45c0-6.27-1.91-9.18-7.42-9.18-3.67,0-7.19,2.68-9.26,5.36v29.76a2,2,0,0,1-2.14,2.22h-2.68a2,2,0,0,1-2.22-2.22v-50.8A2.18,2.18,0,0,1,235.51,418.22Z"/><path class="cls-3" d="M292,430c9.79,0,15.84,6,15.84,15.84v6.58a2,2,0,0,1-2.22,2.22l-22.34-.08v3.37c-.08,6.81,3.06,10.17,8.72,10.17,4,0,6.43-1.53,7.65-3.9.69-1.22,1.38-1.68,2.75-1.3l2.37.61c1.38.38,2.07,1.38,1.45,2.68-2.14,4.82-7,8.19-14.23,8.19-9.79,0-15.84-6-15.84-15.84v-12.7C276.13,436,282.18,430,292,430Zm8.72,16.52c0-6.73-3-10.25-8.72-10.25s-8.8,3.44-8.8,10.25V449h17.52Z"/><path class="cls-3" d="M352.32,474.37c-9.1,0-13-5.58-13-15.45V433.06a2.18,2.18,0,0,1,2.07-2.37l2.68-.31c1.53-.31,2.29.54,2.29,2l.08,25.7c0,6.81,1.61,10,6.81,10a10.74,10.74,0,0,0,9.41-4.82V433.06a2.18,2.18,0,0,1,2.07-2.37l2.75-.31c1.45-.31,2.22.54,2.22,2l.08,27.85c-.08,4.59.23,7.11,1.22,9.72.46,1.38.15,2.29-1.15,2.83l-2.22.77c-1.3.54-2.29.31-2.83-.84a22.3,22.3,0,0,1-1.07-2.91A16.89,16.89,0,0,1,352.32,474.37Z"/><path class="cls-3" d="M399.82,430c9.33,0,13.54,5.43,13.54,15.3v13.23c0,9.87-5.66,15.84-15.22,15.84a30.58,30.58,0,0,1-8.87-1.3l-.08,8.95a2.12,2.12,0,0,1-2,2.37l-2.68.31a1.81,1.81,0,0,1-2.37-2V433a2.15,2.15,0,0,1,2.07-2.29l2.6-.31c1.45-.31,2.29.54,2.29,2v2.52A15.42,15.42,0,0,1,399.82,430Zm-1.15,6.43c-3.75,0-7.42,2.75-9.41,5.43v24.56a19.8,19.8,0,0,0,8.49,1.61c5.66,0,8.57-3.52,8.57-10.4v-11.4C406.32,439.72,404.26,436.43,398.67,436.43Z"/><path class="cls-3" d="M476.16,469.93a1.92,1.92,0,0,1-1.15,2.83l-2.22.77c-1.22.54-2.29.31-2.75-.84a14.26,14.26,0,0,1-1.07-2.83,17,17,0,0,1-11.47,4.51c-8.49,0-13.85-3.9-13.85-12.24,0-9.18,5.74-12.09,14.53-12.09h9.72v-4.9c0-6.35-2.52-8.8-8.11-8.8-3.67,0-6.35,1.45-7.65,3.67-.69,1.15-1.38,1.68-2.68,1.3l-2.6-.69c-1.38-.46-2-1.38-1.38-2.75,2.14-4.51,7.19-7.88,14.31-7.88,9.79,0,15.22,4.74,15.15,14.08v16.14C474.94,464.81,475.17,467.33,476.16,469.93Zm-17.9-1.38a11.63,11.63,0,0,0,9.64-5V455.4h-9.49c-5,0-7.57,1.68-7.57,6.58C450.84,466.64,453.9,468.56,458.26,468.56Z"/><path class="cls-3" d="M489.54,430.69l2.6-.31a1.83,1.83,0,0,1,2.37,2l-.08,2.68c2.68-2.75,6.66-5,10.79-5,9.1,0,13,5.2,13,14.76v26.62a2,2,0,0,1-2.14,2.22h-2.75a2,2,0,0,1-2.14-2.22V445.76c0-6.27-1.76-9.49-7.27-9.49-3.67,0-7.34,2.91-9.33,5.66l-.08,29.45c0,1.45-.69,2.22-2.14,2.22H489.7a2,2,0,0,1-2.22-2.22V433A2.15,2.15,0,0,1,489.54,430.69Z"/><path class="cls-3" d="M556.78,472.76a21.35,21.35,0,0,1-1.07-2.83,15.92,15.92,0,0,1-11.09,4.44c-9.26,0-14.15-6-14.15-15.84V445.3c0-9.87,4.67-15.3,13.62-15.3a24.85,24.85,0,0,1,10.56,2.14V420.59a2.23,2.23,0,0,1,2.07-2.37l2.68-.31a1.83,1.83,0,0,1,2.37,2v40.31c0,4.59.23,7.11,1.22,9.72.46,1.38.15,2.29-1.15,2.83l-2.22.77C558.31,474.06,557.32,473.83,556.78,472.76Zm-11.63-36.34c-5.36,0-7.65,3.29-7.65,9.79v11.4c0,6.88,2.22,10.4,8,10.4a10.28,10.28,0,0,0,9.18-4.74V438.41A22.27,22.27,0,0,0,545.15,436.43Z"/><path class="cls-3" d="M606.88,474.37c-9.1,0-13-5.58-13-15.45V433.06a2.18,2.18,0,0,1,2.07-2.37l2.68-.31c1.53-.31,2.29.54,2.29,2l.08,25.7c0,6.81,1.61,10,6.81,10a10.74,10.74,0,0,0,9.41-4.82V433.06a2.18,2.18,0,0,1,2.07-2.37l2.75-.31c1.45-.31,2.22.54,2.22,2l.08,27.85c-.08,4.59.23,7.11,1.22,9.72.46,1.38.15,2.29-1.15,2.83l-2.22.77c-1.3.54-2.29.31-2.83-.84a22.3,22.3,0,0,1-1.07-2.91A16.89,16.89,0,0,1,606.88,474.37Z"/><path class="cls-3" d="M654.38,430c9.33,0,13.54,5.43,13.54,15.3v13.23c0,9.87-5.66,15.84-15.22,15.84a30.58,30.58,0,0,1-8.87-1.3l-.08,8.95a2.12,2.12,0,0,1-2,2.37l-2.68.31a1.81,1.81,0,0,1-2.37-2V433a2.15,2.15,0,0,1,2.07-2.29l2.6-.31c1.45-.31,2.29.54,2.29,2v2.52A15.42,15.42,0,0,1,654.38,430Zm-1.15,6.43c-3.75,0-7.42,2.75-9.41,5.43v24.56a19.79,19.79,0,0,0,8.49,1.61c5.66,0,8.57-3.52,8.57-10.4v-11.4C660.89,439.72,658.82,436.43,653.24,436.43Z"/><path class="cls-3" d="M678.17,469.93c0-3.29,1.68-4.82,4.21-4.82s4.36,1.53,4.36,4.82c0,3.06-1.76,4.51-4.36,4.51S678.17,473,678.17,469.93Z"/><path class="cls-3" d="M1026.84,230.79H540.47V9h486.37Zm-477.37-9h468.37V18H549.47Z"/><path class="cls-3" d="M953.36,230.79h-136V143.32h136Zm-127-9h118V152.32h-118Z"/><rect class="cls-3" x="678.92" y="-73.22" width="9" height="307.76" transform="translate(312.56 660.34) rotate(-64.12)"/><rect class="cls-3" x="909.04" y="76.16" width="153.11" height="9" transform="translate(441.85 906.65) rotate(-61.32)"/><path class="cls-3" d="M721.79,808.36H419.4V672.95H721.79Zm-293.39-9H712.79V681.95H428.4Z"/><path class="cls-3" d="M1026.84,891H9V564.14H1026.84ZM18,882h999.84V573.14H18Z"/><rect class="cls-3" x="214.2" y="410.75" width="9" height="424.58" transform="matrix(0.26, -0.97, 0.97, 0.26, -439.58, 674.76)"/><rect class="cls-3" x="707.88" y="618.54" width="323.88" height="9" transform="translate(-158.76 328.43) rotate(-19.63)"/><rect class="cls-3" x="865.32" y="687.16" width="9" height="316.05" transform="translate(-173.39 1463.75) rotate(-74.84)"/><rect class="cls-3" x="9.38" y="840.68" width="418.63" height="9" transform="translate(-162.53 59.8) rotate(-11.38)"/><path class="cls-3" d="M1240.09,504.49H1095.33V369.08h144.77Zm-135.77-9h126.77V378.08H1104.33Z"/><path class="cls-3" d="M1591,573.14H1017.84V223.58H1591Zm-564.16-9H1582V232.58H1026.84Z"/><rect class="cls-3" x="1056.58" y="218.4" width="9" height="164.85" transform="translate(-16.88 534.05) rotate(-28.04)"/><rect class="cls-3" x="1221.11" y="296.33" width="379.87" height="9" transform="translate(-7.61 563.42) rotate(-22.52)"/><rect class="cls-3" x="1009.32" y="529.81" width="103.52" height="9" transform="translate(-87.44 838.09) rotate(-41.54)"/><rect class="cls-3" x="1406.55" y="355.53" width="9" height="357.56" transform="translate(615.77 1816.53) rotate(-78.93)"/><path class="cls-2" d="M150.24,221l30.63,4.89V231H140.12V167h10.13Zm166-54-29.79,64h11.15l14.76-31.86,16.22-2.64,16,34.5h11.15l-29.79-64Zm-25.59,0L274,203.09l-12.6,2.05L243.69,167H232.54l29.79,64H272l29.79-64Zm50.56,5L365.5,177v54h10.13V177L400,172.07v-5H341.23Zm104.22,0V167H405.31v64h40.14v-5.07l-6.33-1L415.44,221V203.92l30-4.85V194h-30V177ZM187.07,231h40.14v-5.07l-30-4.89V203.92l30-4.85V194h-30V177l30-4.89V167H187.07Zm-93.3,0h40.14v-5.07l-30-4.89V203.92l30-4.85V194h-30V177l30-4.89V167H93.78Z"/></svg>