<svg id="Layer_1" data-name="Layer 1" xmlns="http://www.w3.org/2000/svg" viewBox="0 0 1600 900"><defs><style>.cls-1{fill:#fd0;}.cls-2{fill:#fff;}</style></defs><title>ELEVATE_splash-pg_PATTERN+LOGO-SLICE_v2</title><polygon class="cls-1" points="1099.45 373.37 1022.47 227.87 1586.5 227.87 1235.43 373.37 1099.45 373.37"/><path class="cls-2" d="M1600,900H0V0H1600ZM18,882H1582V18H18Z"/><rect class="cls-1" x="395.94" y="497.96" width="398.19" height="6"/><path class="cls-2" d="M97.23,319.71l4.1-.47a2.43,2.43,0,0,1,3.08,2.14L117.65,374l12.12-51.85a2.57,2.57,0,0,1,2.89-2.33h4.66a2.54,2.54,0,0,1,2.8,2.33L152.43,374l12.77-51.85a2.68,2.68,0,0,1,2.89-2.33h4.2c2,0,2.8,1.12,2.33,3l-17.16,60a2.83,2.83,0,0,1-3,2.33h-4.57a2.62,2.62,0,0,1-2.89-2.33L134.81,332l-11.94,50.73a2.68,2.68,0,0,1-2.89,2.33h-4.66a2.89,2.89,0,0,1-3-2.33L95.18,322.88A2.27,2.27,0,0,1,97.23,319.71Z"/><path class="cls-2" d="M201.66,331.92c11.94,0,19.3,7.27,19.3,19.3v8a2.42,2.42,0,0,1-2.7,2.7L191,361.85V366c-.09,8.3,3.73,12.4,10.63,12.4,4.85,0,7.83-1.86,9.32-4.76.84-1.49,1.68-2.05,3.36-1.59l2.89.75c1.68.47,2.52,1.68,1.77,3.26-2.61,5.87-8.49,10-17.34,10-11.94,0-19.3-7.27-19.3-19.3V351.22C182.36,339.2,189.72,331.92,201.66,331.92Zm10.63,20.14c0-8.21-3.64-12.5-10.63-12.5s-10.72,4.2-10.72,12.5v3h21.35Z"/><path class="cls-2" d="M241.94,373.79c1.77,2.8,5,4.94,10.07,4.94,6.81,0,10-3.54,10-7.93v-.56c0-5.22-4.57-6.71-11.66-7.65-9-1.12-16.6-4.94-16.6-14.36v-1.68c0-8.58,5.69-14.64,17.44-14.64,9.23,0,14.92,4.2,17.06,9.79.65,1.68-.19,2.8-1.77,3.26l-2.89.75c-1.68.47-2.42-.09-3.17-1.68-1.31-2.89-4.2-4.85-9.23-4.85-6.43,0-8.86,3.36-8.86,7.74v.47c0,4.76,4.1,6.43,11.1,7.46,9,1.4,17.16,3.92,17.16,14.08v2.15C270.47,379.57,263.85,386,252,386c-9.32,0-15.57-3.82-18.18-9.6-.75-1.59.09-2.8,1.77-3.26l3.08-.84C240.26,371.74,241,372.48,241.94,373.79Z"/><path class="cls-2" d="M281,340.22a2.39,2.39,0,0,1-2.7-2.61v-2.05a2.42,2.42,0,0,1,2.7-2.7h2.8l1.31-6.15a3,3,0,0,1,2.42-2.61l2-.28c1.68-.37,2.7.56,2.7,2.42v6.62h11.75c1.77,0,2.61.93,2.61,2.7v2c0,1.77-.84,2.7-2.61,2.7H292.19l-.09,28.44c0,7.46,1.31,10.26,7.55,10.26a22.32,22.32,0,0,0,4.1-.37c1.77-.19,2.8.47,3.17,2.14l.28,1.77a2.3,2.3,0,0,1-2.05,3.08,33.21,33.21,0,0,1-6.34.75c-11.28,0-15.29-4.66-15.29-16.6V340.22Z"/><path class="cls-2" d="M347.85,373.79c1.77,2.8,5,4.94,10.07,4.94,6.81,0,10-3.54,10-7.93v-.56c0-5.22-4.57-6.71-11.66-7.65-9-1.12-16.6-4.94-16.6-14.36v-1.68c0-8.58,5.69-14.64,17.44-14.64,9.23,0,14.92,4.2,17.06,9.79.65,1.68-.19,2.8-1.77,3.26l-2.89.75c-1.68.47-2.42-.09-3.17-1.68-1.31-2.89-4.2-4.85-9.23-4.85-6.43,0-8.86,3.36-8.86,7.74v.47c0,4.76,4.1,6.43,11.1,7.46,9,1.4,17.16,3.92,17.16,14.08v2.15c-.09,8.49-6.71,14.92-18.56,14.92-9.32,0-15.57-3.82-18.18-9.6-.75-1.59.09-2.8,1.77-3.26l3.08-.84C346.17,371.74,346.92,372.48,347.85,373.79Z"/><path class="cls-2" d="M397.92,335.56v46.81a2.39,2.39,0,0,1-2.61,2.7H392a2.42,2.42,0,0,1-2.7-2.7V340.22h-3a2.39,2.39,0,0,1-2.7-2.61v-2.05a2.42,2.42,0,0,1,2.7-2.7h9A2.39,2.39,0,0,1,397.92,335.56Zm-4.48-7.09c-3.17,0-5.22-1.58-5.22-5.41,0-4,2.05-5.69,5.22-5.69s5.41,1.68,5.41,5.69C398.85,326.89,396.62,328.47,393.45,328.47Z"/><path class="cls-2" d="M444.91,384a26,26,0,0,1-1.31-3.45A19.4,19.4,0,0,1,430.09,386c-11.28,0-17.25-7.27-17.25-19.3V350.57c0-12,5.69-18.65,16.6-18.65a30.29,30.29,0,0,1,12.87,2.61V320.45a2.71,2.71,0,0,1,2.52-2.89l3.26-.37c1.87-.28,2.89.65,2.89,2.42v49.14c0,5.6.28,8.67,1.49,11.84.56,1.68.19,2.8-1.4,3.45l-2.7.93C446.78,385.63,445.57,385.35,444.91,384Zm-14.17-44.29c-6.53,0-9.32,4-9.32,11.94v13.89c0,8.39,2.7,12.68,9.7,12.68,5.13,0,8.86-2.14,11.19-5.78V342.18A27.14,27.14,0,0,0,430.74,339.76Z"/><path class="cls-2" d="M485,331.92c11.94,0,19.3,7.27,19.3,19.3v8a2.42,2.42,0,0,1-2.7,2.7l-27.23-.09V366c-.09,8.3,3.73,12.4,10.63,12.4,4.85,0,7.83-1.86,9.32-4.76.84-1.49,1.68-2.05,3.36-1.59l2.89.75c1.68.47,2.52,1.68,1.77,3.26-2.61,5.87-8.49,10-17.34,10-11.94,0-19.3-7.27-19.3-19.3V351.22C465.7,339.2,473.07,331.92,485,331.92Zm10.63,20.14c0-8.21-3.64-12.5-10.63-12.5s-10.72,4.2-10.72,12.5v3h21.35Z"/><path class="cls-2" d="M543,371.74V320.45a2.65,2.65,0,0,1,2.52-2.89l3.26-.37c1.86-.28,2.8.65,2.8,2.42l.09,49.14c-.09,5.6.28,8.67,1.49,11.84.56,1.68.09,2.8-1.4,3.45l-3.08.93c-1.49.65-2.61.47-3.17-.65C543.74,380.88,543,377.24,543,371.74Z"/><path class="cls-2" d="M575.54,335.56v46.81a2.39,2.39,0,0,1-2.61,2.7h-3.26a2.42,2.42,0,0,1-2.7-2.7V340.22h-3a2.39,2.39,0,0,1-2.7-2.61v-2.05a2.42,2.42,0,0,1,2.7-2.7h9A2.39,2.39,0,0,1,575.54,335.56Zm-4.48-7.09c-3.17,0-5.22-1.58-5.22-5.41,0-4,2.05-5.69,5.22-5.69s5.41,1.68,5.41,5.69C576.47,326.89,574.23,328.47,571.06,328.47Z"/><path class="cls-2" d="M588,332.76l3.82-.47a2.45,2.45,0,0,1,3.08,2.05l11.84,40.38,11.47-39.63a2.77,2.77,0,0,1,3-2.24H625c2,0,2.8,1.21,2.24,3.08l-15.67,46.9a2.91,2.91,0,0,1-3.08,2.24h-3.82a2.75,2.75,0,0,1-3-2.24L586,335.93A2.21,2.21,0,0,1,588,332.76Z"/><path class="cls-2" d="M646.4,335.56v46.81a2.39,2.39,0,0,1-2.61,2.7h-3.26a2.42,2.42,0,0,1-2.7-2.7V340.22h-3a2.39,2.39,0,0,1-2.7-2.61v-2.05a2.42,2.42,0,0,1,2.7-2.7h9A2.39,2.39,0,0,1,646.4,335.56Zm-4.48-7.09c-3.17,0-5.22-1.58-5.22-5.41,0-4,2.05-5.69,5.22-5.69s5.41,1.68,5.41,5.69C647.33,326.89,645.09,328.47,641.92,328.47Z"/><path class="cls-2" d="M664.3,332.76l3.17-.37a2.23,2.23,0,0,1,2.89,2.42l-.09,3.26c3.26-3.36,8.11-6.15,13.15-6.15,11.1,0,15.85,6.34,15.85,18v32.45a2.39,2.39,0,0,1-2.61,2.7H693.3a2.39,2.39,0,0,1-2.61-2.7V351.13c0-7.65-2.14-11.56-8.86-11.56-4.48,0-9,3.54-11.38,6.9l-.09,35.9c0,1.77-.84,2.7-2.61,2.7h-3.26a2.42,2.42,0,0,1-2.7-2.7V335.56A2.62,2.62,0,0,1,664.3,332.76Z"/><path class="cls-2" d="M752.32,335.56v47.09c0,11.56-7.55,17.34-18.84,17.34-10.26,0-16.41-3.36-18.18-9.88-.56-1.58.37-2.7,2.14-3l3.17-.47c1.58-.28,2.33.37,3.17,1.77,1.31,2.89,4.2,3.82,9.7,3.82,6.15,0,10.16-2.8,10.16-10.72V376a18.14,18.14,0,0,1-12.87,5.41c-11.38,0-16.5-6.34-16.5-18.37V350.57c0-12,5.59-18.65,16.5-18.65a32.63,32.63,0,0,1,13.33,2.8l.84-.75a4.65,4.65,0,0,1,3.26-1.12h1.58C751.38,332.86,752.32,333.79,752.32,335.56Zm-20.14,4.2c-6.53,0-9.42,4-9.42,11.94l.09,10.26c-.09,7.83,2.52,11.66,9.23,11.66,4.48,0,8.77-2.61,11.66-5.87l-.09-25.46A25.56,25.56,0,0,0,732.17,339.76Z"/><path class="cls-2" d="M800.33,335.56v46.81a2.39,2.39,0,0,1-2.61,2.7h-3.26a2.42,2.42,0,0,1-2.7-2.7V340.22h-3a2.39,2.39,0,0,1-2.7-2.61v-2.05a2.42,2.42,0,0,1,2.7-2.7h9A2.39,2.39,0,0,1,800.33,335.56Zm-4.48-7.09c-3.17,0-5.22-1.58-5.22-5.41,0-4,2.05-5.69,5.22-5.69s5.41,1.68,5.41,5.69C801.26,326.89,799,328.47,795.85,328.47Z"/><path class="cls-2" d="M822.15,373.79c1.77,2.8,5,4.94,10.07,4.94,6.81,0,10-3.54,10-7.93v-.56c0-5.22-4.57-6.71-11.66-7.65-9-1.12-16.6-4.94-16.6-14.36v-1.68c0-8.58,5.69-14.64,17.44-14.64,9.23,0,14.92,4.2,17.06,9.79.65,1.68-.19,2.8-1.77,3.26l-2.89.75c-1.68.47-2.42-.09-3.17-1.68-1.31-2.89-4.2-4.85-9.23-4.85-6.43,0-8.86,3.36-8.86,7.74v.47c0,4.76,4.1,6.43,11.1,7.46,9,1.4,17.16,3.92,17.16,14.08v2.15c-.09,8.49-6.71,14.92-18.56,14.92-9.33,0-15.57-3.82-18.18-9.6-.75-1.59.09-2.8,1.77-3.26l3.08-.84C820.47,371.74,821.21,372.48,822.15,373.79Z"/><path class="cls-2" d="M118.86,434.26c11.94,0,19.3,7.27,19.3,19.3V469c0,12-7.37,19.3-19.3,19.3s-19.3-7.27-19.3-19.3V453.56C99.56,441.53,107,434.26,118.86,434.26Zm0,46.34c6.81,0,10.63-4.29,10.63-12.68V454.68c0-8.39-3.82-12.68-10.63-12.68s-10.63,4.29-10.63,12.68v13.24C108.23,476.31,112,480.6,118.86,480.6Z"/><path class="cls-2" d="M155.41,435.1l3.17-.37a2.23,2.23,0,0,1,2.89,2.42l-.09,3.26c3.26-3.36,8.11-6.15,13.15-6.15,11.1,0,15.85,6.34,15.85,18V484.7a2.39,2.39,0,0,1-2.61,2.7h-3.36a2.39,2.39,0,0,1-2.61-2.7V453.47c0-7.65-2.14-11.56-8.86-11.56-4.48,0-9,3.54-11.38,6.9l-.09,35.9c0,1.77-.84,2.7-2.61,2.7H155.6a2.42,2.42,0,0,1-2.7-2.7V437.89A2.62,2.62,0,0,1,155.41,435.1Z"/><path class="cls-2" d="M227.48,442.56a2.39,2.39,0,0,1-2.7-2.61v-2.05a2.42,2.42,0,0,1,2.7-2.7h2.8l1.31-6.15a3,3,0,0,1,2.42-2.61l2-.28c1.68-.37,2.7.56,2.7,2.42v6.62h11.75c1.77,0,2.61.93,2.61,2.7v2c0,1.77-.84,2.7-2.61,2.7H238.67L238.58,471c0,7.46,1.31,10.26,7.55,10.26a22.27,22.27,0,0,0,4.1-.37c1.77-.19,2.8.47,3.17,2.14l.28,1.77a2.3,2.3,0,0,1-2.05,3.08,33.17,33.17,0,0,1-6.34.75C234,488.62,230,484,230,472V442.56Z"/><path class="cls-2" d="M266.27,419.9l3.26-.37a2.19,2.19,0,0,1,2.8,2.42v18.18a18.28,18.28,0,0,1,13-5.87c11.19,0,15.94,6.06,15.94,17.62V484.7a2.39,2.39,0,0,1-2.61,2.7h-3.36a2.39,2.39,0,0,1-2.61-2.7V453.09c0-7.65-2.33-11.19-9-11.19-4.48,0-8.77,3.26-11.28,6.53V484.7a2.39,2.39,0,0,1-2.61,2.7h-3.26a2.42,2.42,0,0,1-2.7-2.7V422.79A2.65,2.65,0,0,1,266.27,419.9Z"/><path class="cls-2" d="M335.08,434.26c11.94,0,19.3,7.27,19.3,19.3v8a2.42,2.42,0,0,1-2.7,2.7l-27.23-.09v4.1c-.09,8.3,3.73,12.4,10.63,12.4,4.85,0,7.83-1.87,9.32-4.76.84-1.49,1.68-2.05,3.36-1.58l2.89.75c1.68.47,2.52,1.68,1.77,3.26-2.61,5.88-8.49,10-17.34,10-11.94,0-19.3-7.27-19.3-19.3V453.56C315.78,441.53,323.14,434.26,335.08,434.26Zm10.63,20.14c0-8.21-3.64-12.5-10.63-12.5s-10.72,4.2-10.72,12.5v3h21.35Z"/><path class="cls-2" d="M408.64,488.34c-11.1,0-15.85-6.81-15.85-18.84V438a2.65,2.65,0,0,1,2.52-2.89l3.26-.37c1.86-.37,2.8.65,2.8,2.42l.09,31.33c0,8.3,2,12.21,8.3,12.21,5.13,0,9.14-2.24,11.47-5.87V438a2.65,2.65,0,0,1,2.52-2.89l3.36-.37c1.77-.37,2.7.65,2.7,2.42l.09,33.94c-.09,5.59.28,8.67,1.49,11.84.56,1.68.19,2.8-1.4,3.45l-2.7.93c-1.58.65-2.8.37-3.45-1a27.18,27.18,0,0,1-1.31-3.54A20.58,20.58,0,0,1,408.64,488.34Z"/><path class="cls-2" d="M466.54,434.26c11.38,0,16.5,6.62,16.5,18.65V469c0,12-6.9,19.3-18.56,19.3a37.28,37.28,0,0,1-10.82-1.58l-.09,10.91a2.58,2.58,0,0,1-2.42,2.89l-3.26.37c-1.86.37-2.89-.65-2.89-2.42V437.89a2.62,2.62,0,0,1,2.52-2.8l3.17-.37c1.77-.37,2.8.65,2.8,2.42v3.08C456.85,436.78,461.6,434.26,466.54,434.26Zm-1.4,7.83c-4.57,0-9,3.36-11.47,6.62v29.93a24.13,24.13,0,0,0,10.35,2c6.9,0,10.44-4.29,10.44-12.68V454C474.47,446.1,472,442.09,465.15,442.09Z"/><path class="cls-2" d="M559.6,482.93c.65,1.68.19,2.8-1.4,3.45l-2.7.93c-1.49.65-2.8.37-3.36-1a17.38,17.38,0,0,1-1.31-3.45,20.74,20.74,0,0,1-14,5.5c-10.35,0-16.88-4.76-16.88-14.92,0-11.19,7-14.73,17.72-14.73h11.84v-6c0-7.74-3.08-10.72-9.88-10.72-4.48,0-7.74,1.77-9.32,4.48-.84,1.4-1.68,2.05-3.26,1.58l-3.17-.84c-1.68-.56-2.42-1.68-1.68-3.36,2.61-5.5,8.77-9.6,17.44-9.6,11.94,0,18.56,5.78,18.46,17.16v19.67C558.1,476.68,558.38,479.76,559.6,482.93Zm-21.82-1.68a14.17,14.17,0,0,0,11.75-6.15v-9.88H538c-6.06,0-9.23,2.05-9.23,8C528.73,478.92,532.46,481.25,537.78,481.25Z"/><path class="cls-2" d="M575.91,435.1l3.17-.37a2.23,2.23,0,0,1,2.89,2.42l-.09,3.26c3.26-3.36,8.11-6.15,13.15-6.15,11.1,0,15.85,6.34,15.85,18V484.7a2.39,2.39,0,0,1-2.61,2.7h-3.36a2.39,2.39,0,0,1-2.61-2.7V453.47c0-7.65-2.14-11.56-8.86-11.56-4.48,0-9,3.54-11.38,6.9L582,484.7c0,1.77-.84,2.7-2.61,2.7H576.1a2.42,2.42,0,0,1-2.7-2.7V437.89A2.62,2.62,0,0,1,575.91,435.1Z"/><path class="cls-2" d="M657.87,486.38a26,26,0,0,1-1.31-3.45A19.4,19.4,0,0,1,643,488.34c-11.28,0-17.25-7.27-17.25-19.3V452.91c0-12,5.69-18.65,16.6-18.65a30.29,30.29,0,0,1,12.87,2.61V422.79a2.71,2.71,0,0,1,2.52-2.89l3.26-.37c1.87-.28,2.89.65,2.89,2.42v49.14c0,5.59.28,8.67,1.49,11.84.56,1.68.19,2.8-1.4,3.45l-2.7.93C659.73,488,658.52,487.69,657.87,486.38Zm-14.17-44.29c-6.53,0-9.32,4-9.32,11.94v13.89c0,8.39,2.7,12.68,9.7,12.68,5.13,0,8.86-2.14,11.19-5.78V444.51A27.14,27.14,0,0,0,643.69,442.09Z"/><path class="cls-2" d="M718.94,488.34c-11.1,0-15.85-6.81-15.85-18.84V438a2.65,2.65,0,0,1,2.52-2.89l3.26-.37c1.86-.37,2.8.65,2.8,2.42l.09,31.33c0,8.3,2,12.21,8.3,12.21,5.13,0,9.14-2.24,11.47-5.87V438A2.65,2.65,0,0,1,734,435.1l3.36-.37c1.77-.37,2.7.65,2.7,2.42l.09,33.94c-.09,5.59.28,8.67,1.49,11.84.56,1.68.19,2.8-1.4,3.45l-2.7.93c-1.58.65-2.8.37-3.45-1a27.18,27.18,0,0,1-1.31-3.54A20.58,20.58,0,0,1,718.94,488.34Z"/><path class="cls-2" d="M776.84,434.26c11.38,0,16.5,6.62,16.5,18.65V469c0,12-6.9,19.3-18.56,19.3A37.28,37.28,0,0,1,764,486.76l-.09,10.91a2.58,2.58,0,0,1-2.42,2.89l-3.26.37c-1.86.37-2.89-.65-2.89-2.42V437.89a2.62,2.62,0,0,1,2.52-2.8l3.17-.37c1.77-.37,2.8.65,2.8,2.42v3.08C767.14,436.78,771.89,434.26,776.84,434.26Zm-1.4,7.83c-4.57,0-9,3.36-11.47,6.62v29.93a24.13,24.13,0,0,0,10.35,2c6.9,0,10.44-4.29,10.44-12.68V454C784.76,446.1,782.24,442.09,775.44,442.09Z"/><path class="cls-2" d="M805.83,482.93c0-4,2.05-5.87,5.13-5.87s5.32,1.87,5.32,5.88c0,3.73-2.15,5.5-5.32,5.5S805.83,486.66,805.83,482.93Z"/><path class="cls-2" d="M1026.84,230.79H540.47V9h486.37Zm-477.37-9h468.37V18H549.47Z"/><path class="cls-2" d="M953.36,230.79h-136V143.32h136Zm-127-9h118V152.32h-118Z"/><rect class="cls-2" x="678.92" y="-73.22" width="9" height="307.76" transform="translate(312.56 660.34) rotate(-64.12)"/><rect class="cls-2" x="909.04" y="76.16" width="153.11" height="9" transform="translate(441.85 906.65) rotate(-61.32)"/><path class="cls-2" d="M721.79,808.36H419.4V672.95H721.79Zm-293.39-9H712.79V681.95H428.4Z"/><path class="cls-2" d="M1026.84,891H9V564.14H1026.84ZM18,882h999.84V573.14H18Z"/><rect class="cls-2" x="214.2" y="410.75" width="9" height="424.58" transform="matrix(0.26, -0.97, 0.97, 0.26, -439.58, 674.76)"/><rect class="cls-2" x="707.88" y="618.54" width="323.88" height="9" transform="translate(-158.76 328.43) rotate(-19.63)"/><rect class="cls-2" x="865.32" y="687.16" width="9" height="316.05" transform="translate(-173.39 1463.75) rotate(-74.84)"/><rect class="cls-2" x="9.38" y="840.68" width="418.63" height="9" transform="translate(-162.53 59.8) rotate(-11.38)"/><path class="cls-2" d="M1240.09,504.49H1095.33V369.08h144.77Zm-135.77-9h126.77V378.08H1104.33Z"/><path class="cls-2" d="M1591,573.14H1017.84V223.58H1591Zm-564.16-9H1582V232.58H1026.84Z"/><rect class="cls-2" x="1056.58" y="218.4" width="9" height="164.85" transform="translate(-16.88 534.05) rotate(-28.04)"/><rect class="cls-2" x="1221.11" y="296.33" width="379.87" height="9" transform="translate(-7.61 563.42) rotate(-22.52)"/><rect class="cls-2" x="1009.32" y="529.81" width="103.52" height="9" transform="translate(-87.44 838.09) rotate(-41.54)"/><rect class="cls-2" x="1406.55" y="355.53" width="9" height="357.56" transform="translate(615.77 1816.53) rotate(-78.93)"/><path class="cls-1" d="M150.24,221l30.63,4.89V231H140.12V167h10.13Zm166-54-29.79,64h11.15l14.76-31.86,16.22-2.64,16,34.5h11.15l-29.79-64Zm-25.59,0L274,203.09l-12.6,2.05L243.69,167H232.54l29.79,64H272l29.79-64Zm50.56,5L365.5,177v54h10.13V177L400,172.07v-5H341.23Zm104.22,0V167H405.31v64h40.14v-5.07l-6.33-1L415.44,221V203.92l30-4.85V194h-30V177ZM187.07,231h40.14v-5.07l-30-4.89V203.92l30-4.85V194h-30V177l30-4.89V167H187.07Zm-93.3,0h40.14v-5.07l-30-4.89V203.92l30-4.85V194h-30V177l30-4.89V167H93.78Z"/></svg>