<svg enable-background="new 0 0 900 900" viewBox="0 0 900 900" xmlns="http://www.w3.org/2000/svg"><path d="m900 900h-900v-900h900zm-882.5-18h865.1v-864h-865.1z" fill="#fff"/><path d="m348.6 457.9h335.5v5.1h-335.5z" fill="#fd0"/><g fill="#fff"><path d="m96.9 307.7 3.5-.4c1.1-.3 2.2.3 2.5 1.4 0 .1.1.3.1.4l11.2 44.3 10.2-43.7c.1-1.2 1.2-2.1 2.3-2h.1 3.9c1.2-.1 2.2.7 2.4 1.9v.1l10.4 43.7 10.8-43.7c.2-1.2 1.2-2.1 2.4-2h3.5c1.7 0 2.4.9 2 2.5l-14.5 50.6c-.2 1.2-1.3 2.1-2.5 2h-3.9c-1.2.1-2.3-.7-2.4-2l-10.4-42.8-10.1 42.7c-.2 1.2-1.2 2.1-2.4 2h-3.9c-1.2.1-2.3-.8-2.5-2l-14.4-50.4c-.4-1 0-2.1 1-2.5.2-.1.4-.1.7-.1z"/><path d="m184.9 318c10.1 0 16.3 6.1 16.3 16.3v6.7c.1 1.1-.7 2.1-1.8 2.3-.2 0-.3 0-.5 0l-23-.1v3.5c-.1 7 3.1 10.4 9 10.4 4.1 0 6.6-1.6 7.9-4 .7-1.3 1.4-1.7 2.8-1.3l2.4.6c1.4.4 2.1 1.4 1.5 2.7-2.2 4.9-7.2 8.4-14.6 8.4-10.1 0-16.3-6.1-16.3-16.3v-13.1c0-10 6.2-16.1 16.3-16.1zm8.9 16.9c0-6.9-3.1-10.5-9-10.5s-9 3.5-9 10.5v2.5h18z"/><path d="m218.8 353.2c1.5 2.4 4.2 4.2 8.5 4.2 5.7 0 8.4-3 8.4-6.7v-.5c0-4.4-3.9-5.7-9.8-6.4-7.6-.9-14-4.2-14-12.1v-1.4c0-7.2 4.8-12.3 14.7-12.3 7.8 0 12.6 3.5 14.4 8.2.5 1.4-.2 2.4-1.5 2.7l-2.4.6c-1.4.4-2-.1-2.7-1.4-1.1-2.4-3.5-4.1-7.8-4.1-5.4 0-7.5 2.8-7.5 6.5v.4c0 4 3.5 5.4 9.4 6.3 7.6 1.2 14.5 3.3 14.5 11.9v1.8c-.1 7.2-5.7 12.6-15.7 12.6-7.9 0-13.1-3.2-15.3-8.1-.6-1.3.1-2.4 1.5-2.7l2.6-.7c1.3-.5 1.9.1 2.7 1.2z"/><path d="m251.7 325c-1.1.1-2.1-.6-2.3-1.7 0-.2 0-.3 0-.5v-1.8c-.1-1.1.7-2.1 1.8-2.3h.5 2.4l1.1-5.2c.1-1.1 1-2 2-2.2l1.7-.2c1.4-.3 2.3.5 2.3 2v5.6h9.9c1.5 0 2.2.8 2.2 2.3v1.7c0 1.5-.7 2.3-2.2 2.3h-9.9l-.1 24c0 6.3 1.1 8.6 6.4 8.6 1.2 0 2.3-.1 3.5-.3 1.5-.2 2.4.4 2.7 1.8l.2 1.5c.4 1-.2 2.1-1.2 2.5-.2.1-.4.1-.6.1-1.8.4-3.5.6-5.3.6-9.5 0-12.9-3.9-12.9-14v-24.8z"/><path d="m308 353.2c1.5 2.4 4.2 4.2 8.5 4.2 5.7 0 8.4-3 8.4-6.7v-.5c0-4.4-3.9-5.7-9.8-6.4-7.6-.9-14-4.2-14-12.1v-1.4c0-7.2 4.8-12.3 14.7-12.3 7.8 0 12.6 3.5 14.4 8.2.5 1.4-.2 2.4-1.5 2.7l-2.4.6c-1.4.4-2-.1-2.7-1.4-1.1-2.4-3.5-4.1-7.8-4.1-5.4 0-7.5 2.8-7.5 6.5v.4c0 4 3.5 5.4 9.4 6.3 7.6 1.2 14.5 3.3 14.5 11.9v1.8c-.1 7.2-5.7 12.6-15.6 12.6-7.9 0-13.1-3.2-15.3-8.1-.6-1.3.1-2.4 1.5-2.7l2.6-.7c1.2-.5 1.9.1 2.6 1.2z"/><path d="m350.2 321v39.4c.1 1.1-.6 2.1-1.7 2.3-.2 0-.3 0-.5 0h-2.8c-1.1.1-2.1-.7-2.3-1.8 0-.2 0-.3 0-.5v-35.4h-2.5c-1.1.1-2.1-.6-2.3-1.7 0-.2 0-.3 0-.5v-1.8c-.1-1.1.7-2.1 1.8-2.3h.5 7.6c1.1-.1 2.1.7 2.2 1.8.1.2.1.4 0 .5zm-3.7-5.9c-2.7 0-4.4-1.3-4.4-4.6 0-3.4 1.7-4.8 4.4-4.8s4.6 1.4 4.6 4.8c-.1 3.2-2 4.6-4.6 4.6z"/><path d="m389.8 361.8c-.4-.9-.8-1.9-1.1-2.9-3.1 3-7.1 4.6-11.4 4.6-9.5 0-14.5-6.1-14.5-16.3v-13.6c0-10.1 4.8-15.7 14-15.7 3.7-.1 7.4.7 10.8 2.2v-11.9c-.1-1.3.9-2.3 2.1-2.4l2.7-.3c1.6-.2 2.4.5 2.4 2v41.5c0 4.7.2 7.3 1.3 10 .5 1.4.2 2.4-1.2 2.9l-2.3.8c-1.2.5-2.2.3-2.8-.9zm-11.9-37.3c-5.5 0-7.9 3.4-7.9 10.1v11.7c0 7.1 2.3 10.7 8.2 10.7 4.3 0 7.5-1.8 9.4-4.9v-25.5c-3-1.4-6.4-2.1-9.7-2.1z"/><path d="m423.6 318c10.1 0 16.3 6.1 16.3 16.3v6.7c.1 1.1-.7 2.1-1.8 2.3-.2 0-.3 0-.5 0l-22.9-.1v3.5c-.1 7 3.1 10.4 9 10.4 4.1 0 6.6-1.6 7.9-4 .7-1.3 1.4-1.7 2.8-1.3l2.4.6c1.4.4 2.1 1.4 1.5 2.7-2.2 4.9-7.2 8.4-14.6 8.4-10.1 0-16.3-6.1-16.3-16.3v-13.1c-.1-10 6.2-16.1 16.2-16.1zm9 16.9c0-6.9-3.1-10.5-9-10.5s-9 3.5-9 10.5v2.5h18z"/><path d="m472.5 351.5v-43.2c-.1-1.2.8-2.3 2-2.4h.1l2.7-.3c1.6-.2 2.4.5 2.4 2l.1 41.4c-.1 4.7.2 7.3 1.3 10 .5 1.4.1 2.4-1.2 2.9l-2.6.8c-1.3.5-2.2.4-2.7-.5-1.5-3-2.1-6.1-2.1-10.7z"/><path d="m499.9 321v39.4c.1 1.1-.6 2.1-1.7 2.3-.2 0-.3 0-.5 0h-2.7c-1.1.1-2.1-.7-2.3-1.8 0-.2 0-.3 0-.5v-35.4h-2.5c-1.1.1-2.1-.6-2.3-1.7 0-.2 0-.3 0-.5v-1.8c-.1-1.1.7-2.1 1.8-2.3h.5 7.6c1.1-.1 2.1.7 2.2 1.8-.1.2-.1.4-.1.5zm-3.8-5.9c-2.7 0-4.4-1.3-4.4-4.6 0-3.4 1.7-4.8 4.4-4.8s4.6 1.4 4.6 4.8c0 3.2-1.9 4.6-4.6 4.6z"/><path d="m510.4 318.7 3.2-.4c1.1-.3 2.2.3 2.5 1.4 0 .1 0 .2.1.3l10 34 9.7-33.4c.2-1.2 1.3-2 2.5-1.9h3.2c1.7 0 2.4 1 1.9 2.6l-13.2 39.5c-.3 1.2-1.4 2-2.6 1.9h-3.2c-1.2.1-2.3-.7-2.5-1.9l-13.2-39.5c-.4-.9-.1-2 .9-2.5.1-.1.4-.1.7-.1z"/><path d="m559.6 321v39.4c.1 1.1-.6 2.1-1.7 2.3-.2 0-.3 0-.5 0h-2.7c-1.1.1-2.1-.7-2.3-1.8 0-.2 0-.3 0-.5v-35.4h-2.5c-1.1.1-2.1-.6-2.3-1.7 0-.2 0-.3 0-.5v-1.8c-.1-1.1.7-2.1 1.8-2.3h.5 7.6c1.1-.1 2.1.7 2.2 1.8-.1.2-.1.4-.1.5zm-3.8-5.9c-2.7 0-4.4-1.3-4.4-4.6 0-3.4 1.7-4.8 4.4-4.8s4.6 1.4 4.6 4.8c0 3.2-1.9 4.6-4.6 4.6z"/><path d="m574.7 318.7 2.7-.3c1-.3 2 .2 2.4 1.2.1.3.1.5.1.8l-.1 2.7c2.7-2.8 6.8-5.2 11.1-5.2 9.4 0 13.4 5.3 13.4 15.2v27.3c.1 1.1-.6 2.1-1.7 2.3-.2 0-.3 0-.5 0h-2.8c-1.1.1-2.1-.7-2.2-1.8 0-.2 0-.3 0-.5v-26.3c0-6.4-1.8-9.7-7.5-9.7-3.8 0-7.6 3-9.6 5.8l-.1 30.2c0 1.5-.7 2.3-2.2 2.3h-2.7c-1.1.1-2.1-.7-2.3-1.8 0-.2 0-.3 0-.5v-39.4c-.2-1.2.7-2.2 2-2.3-.1 0 0 0 0 0z"/><path d="m648.8 321v39.7c0 9.7-6.4 14.6-15.9 14.6-8.6 0-13.8-2.8-15.3-8.3-.5-1.3.3-2.3 1.8-2.5l2.7-.4c1.3-.2 2 .3 2.7 1.5 1.1 2.4 3.5 3.2 8.2 3.2 5.2 0 8.6-2.4 8.6-9v-4.6c-2.9 2.9-6.8 4.5-10.8 4.6-9.6 0-13.9-5.3-13.9-15.5v-10.5c0-10.1 4.7-15.7 13.9-15.7 3.9 0 7.7.8 11.2 2.4l.7-.6c.8-.7 1.7-1 2.7-.9h1.3c1.4-.2 2.1.5 2.1 2zm-16.9 3.6c-5.5 0-7.9 3.4-7.9 10.1l.1 8.6c-.1 6.6 2.1 9.8 7.8 9.8 3.8 0 7.4-2.2 9.8-4.9l-.1-21.5c-3.1-1.5-6.4-2.2-9.7-2.1z"/><path d="m689.3 321v39.4c.1 1.1-.6 2.1-1.7 2.3-.2 0-.3 0-.5 0h-2.7c-1.1.1-2.1-.7-2.3-1.8 0-.2 0-.3 0-.5v-35.4h-2.5c-1.1.1-2.1-.6-2.3-1.7 0-.2 0-.3 0-.5v-1.8c-.1-1.1.7-2.1 1.8-2.3h.5 7.6c1.1-.1 2.1.7 2.2 1.8-.1.2-.1.4-.1.5zm-3.8-5.9c-2.7 0-4.4-1.3-4.4-4.6 0-3.4 1.7-4.8 4.4-4.8s4.6 1.4 4.6 4.8c0 3.2-1.9 4.6-4.6 4.6z"/><path d="m707.7 353.2c1.5 2.4 4.2 4.2 8.5 4.2 5.7 0 8.4-3 8.4-6.7v-.5c0-4.4-3.9-5.7-9.8-6.4-7.6-.9-14-4.2-14-12.1v-1.4c0-7.2 4.8-12.3 14.7-12.3 7.8 0 12.6 3.5 14.4 8.2.5 1.4-.2 2.4-1.5 2.7l-2.4.6c-1.4.4-2-.1-2.7-1.4-1.1-2.4-3.5-4.1-7.8-4.1-5.4 0-7.5 2.8-7.5 6.5v.4c0 4 3.5 5.4 9.4 6.3 7.6 1.2 14.5 3.3 14.5 11.9v1.8c-.1 7.2-5.7 12.6-15.6 12.6-7.9 0-13.1-3.2-15.3-8.1-.6-1.3.1-2.4 1.5-2.7l2.6-.7c1.2-.5 1.8.1 2.6 1.2z"/><path d="m115.1 404.2c10.1 0 16.3 6.1 16.3 16.3v13c0 10.1-6.2 16.3-16.3 16.3s-16.3-6.1-16.3-16.3v-13c0-10.2 6.3-16.3 16.3-16.3zm0 39c5.7 0 9-3.6 9-10.7v-11.2c0-7.1-3.2-10.7-9-10.7-5.7 0-9 3.6-9 10.7v11.2c0 7.1 3.2 10.7 9 10.7z"/><path d="m145.9 404.9 2.7-.3c1-.3 2 .2 2.4 1.2.1.3.1.5.1.8l-.1 2.7c2.7-2.8 6.8-5.2 11.1-5.2 9.4 0 13.4 5.3 13.4 15.2v27.3c.1 1.1-.6 2.1-1.7 2.3-.2 0-.3 0-.5 0h-2.8c-1.1.1-2.1-.7-2.2-1.8 0-.2 0-.3 0-.5v-26.3c0-6.4-1.8-9.7-7.5-9.7-3.8 0-7.6 3-9.6 5.8l-.1 30.2c0 1.5-.7 2.3-2.2 2.3h-2.7c-1.1.1-2.1-.7-2.3-1.8 0-.2 0-.3 0-.5v-39.4c-.2-1.2.7-2.2 2-2.3z"/><path d="m206.6 411.2c-1.1.1-2.1-.6-2.3-1.7 0-.2 0-.3 0-.5v-1.7c-.1-1.1.7-2.1 1.8-2.3h.5 2.4l1.1-5.2c.1-1.1 1-2 2-2.2l1.7-.2c1.4-.3 2.3.5 2.3 2v5.6h9.9c1.5 0 2.2.8 2.2 2.3v1.7c0 1.5-.7 2.3-2.2 2.3h-9.9l-.1 23.9c0 6.3 1.1 8.6 6.4 8.6 1.2 0 2.3-.1 3.5-.3 1.5-.2 2.4.4 2.7 1.8l.2 1.5c.4 1-.2 2.1-1.2 2.5-.2.1-.4.1-.6.1-1.8.4-3.5.6-5.3.6-9.5 0-12.9-3.9-12.9-14v-24.8z"/><path d="m239.3 392.1 2.7-.3c1-.3 2 .3 2.3 1.2.1.3.1.5.1.8v15.3c2.8-3.1 6.8-4.8 11-4.9 9.4 0 13.4 5.1 13.4 14.8v27.7c.1 1.1-.6 2.1-1.7 2.3-.2 0-.3 0-.5 0h-2.8c-1.1.1-2.1-.7-2.2-1.8 0-.2 0-.3 0-.5v-26.6c0-6.4-2-9.4-7.6-9.4-3.8 0-7.4 2.7-9.5 5.5v30.6c.1 1.1-.6 2.1-1.7 2.3-.2 0-.3 0-.5 0h-2.7c-1.1.1-2.1-.7-2.3-1.8 0-.2 0-.3 0-.5v-52.2c-.2-1.3.7-2.4 2-2.5z"/><path d="m297.3 404.2c10.1 0 16.3 6.1 16.3 16.3v6.7c.1 1.1-.7 2.1-1.8 2.3-.2 0-.3 0-.5 0l-22.9-.1v3.5c-.1 7 3.1 10.4 9 10.4 4.1 0 6.6-1.6 7.9-4 .7-1.3 1.4-1.7 2.8-1.3l2.4.6c1.4.4 2.1 1.4 1.5 2.7-2.2 5-7.2 8.4-14.6 8.4-10.1 0-16.3-6.1-16.3-16.3v-13c-.1-10.1 6.1-16.2 16.2-16.2zm8.9 17c0-6.9-3.1-10.5-9-10.5s-9 3.5-9 10.5v2.5h18z"/><path d="m359.3 449.8c-9.4 0-13.4-5.7-13.4-15.9v-26.5c-.1-1.2.8-2.3 2-2.4h.1l2.7-.3c1.6-.3 2.4.5 2.4 2l.1 26.4c0 7 1.7 10.3 7 10.3 4.3 0 7.7-1.9 9.7-4.9v-31c-.1-1.2.8-2.3 2-2.4h.1l2.8-.3c1.5-.3 2.3.5 2.3 2l.1 28.6c-.1 4.7.2 7.3 1.3 10 .5 1.4.2 2.4-1.2 2.9l-2.3.8c-1.3.5-2.4.3-2.9-.8-.4-1-.8-2-1.1-3-3.2 2.7-7.4 4.4-11.7 4.5z"/><path d="m408.1 404.2c9.6 0 13.9 5.6 13.9 15.7v13.6c0 10.1-5.8 16.3-15.6 16.3-3.1 0-6.2-.4-9.1-1.3l-.1 9.2c.1 1.2-.7 2.3-1.9 2.4h-.1l-2.7.3c-1.6.3-2.4-.5-2.4-2v-51c-.1-1.2.8-2.3 2-2.4h.1l2.7-.3c1.5-.3 2.4.5 2.4 2v2.6c2.6-3 6.6-5.1 10.8-5.1zm-1.2 6.6c-3.9 0-7.6 2.8-9.7 5.6v25.2c2.7 1.2 5.7 1.8 8.7 1.7 5.8 0 8.8-3.6 8.8-10.7v-11.8c0-6.6-2-10-7.8-10z"/><path d="m486.5 445.2c.5 1.4.2 2.4-1.2 2.9l-2.3.8c-1.3.5-2.4.3-2.8-.8-.5-.9-.8-1.9-1.1-2.9-3.2 3-7.4 4.6-11.8 4.6-8.7 0-14.2-4-14.2-12.6 0-9.4 5.9-12.4 14.9-12.4h10v-5.1c0-6.5-2.6-9-8.3-9-3.8 0-6.5 1.5-7.9 3.8-.7 1.2-1.4 1.7-2.7 1.3l-2.7-.7c-1.4-.5-2-1.4-1.4-2.8 2.2-4.6 7.4-8.1 14.7-8.1 10.1 0 15.6 4.9 15.6 14.5v16.6c-.1 4.6.1 7.2 1.2 9.9zm-18.4-1.4c4 0 7.7-1.9 9.9-5.2v-8.3h-9.7c-5.1 0-7.8 1.7-7.8 6.7 0 4.8 3.1 6.8 7.6 6.8z"/><path d="m500.2 404.9 2.7-.3c1-.3 2 .2 2.4 1.2.1.3.1.5.1.8l-.1 2.7c2.7-2.8 6.8-5.2 11.1-5.2 9.4 0 13.4 5.3 13.4 15.2v27.3c.1 1.1-.6 2.1-1.7 2.3-.2 0-.3 0-.5 0h-2.8c-1.1.1-2.1-.7-2.2-1.8 0-.2 0-.3 0-.5v-26.3c0-6.4-1.8-9.7-7.5-9.7-3.8 0-7.6 3-9.6 5.8l-.1 30.2c0 1.5-.7 2.3-2.2 2.3h-2.8c-1.1.1-2.1-.7-2.3-1.8 0-.2 0-.3 0-.5v-39.4c-.1-1.2.8-2.2 2.1-2.3z"/><path d="m569.3 448.1c-.4-.9-.8-1.9-1.1-2.9-3.1 2.9-7.2 4.6-11.4 4.6-9.5 0-14.5-6.1-14.5-16.3v-13.6c0-10.1 4.8-15.7 14-15.7 3.7-.1 7.4.7 10.8 2.2v-11.9c-.1-1.3.9-2.3 2.1-2.4l2.7-.3c1.6-.2 2.4.5 2.4 2v41.4c0 4.7.2 7.3 1.3 10 .5 1.4.2 2.4-1.2 2.9l-2.3.8c-1.3.6-2.3.3-2.8-.8zm-12-37.3c-5.5 0-7.9 3.4-7.9 10.1v11.7c0 7.1 2.3 10.7 8.2 10.7 4.3 0 7.5-1.8 9.4-4.9v-25.5c-3-1.5-6.3-2.2-9.7-2.1z"/><path d="m620.7 449.8c-9.4 0-13.4-5.7-13.4-15.9v-26.5c-.1-1.2.8-2.3 2-2.4h.1l2.7-.3c1.6-.3 2.4.5 2.4 2l.1 26.4c0 7 1.7 10.3 7 10.3 4.3 0 7.7-1.9 9.7-4.9v-31c-.1-1.2.8-2.3 2-2.4h.1l2.8-.3c1.5-.3 2.3.5 2.3 2l.1 28.6c-.1 4.7.2 7.3 1.3 10 .5 1.4.2 2.4-1.2 2.9l-2.3.8c-1.3.5-2.4.3-2.9-.8-.4-1-.8-2-1.1-3-3.2 2.7-7.3 4.4-11.7 4.5z"/><path d="m669.5 404.2c9.6 0 13.9 5.6 13.9 15.7v13.6c0 10.1-5.8 16.3-15.6 16.3-3.1 0-6.1-.4-9.1-1.3l-.1 9.2c.1 1.2-.7 2.3-1.9 2.4h-.1l-2.7.3c-1.6.3-2.4-.5-2.4-2v-51.1c-.1-1.2.8-2.3 2-2.4h.1l2.7-.3c1.5-.3 2.4.5 2.4 2v2.6c2.6-2.9 6.6-5 10.8-5zm-1.2 6.6c-3.9 0-7.6 2.8-9.7 5.6v25.2c2.7 1.2 5.7 1.8 8.7 1.7 5.8 0 8.8-3.6 8.8-10.7v-11.8c.1-6.6-2-10-7.8-10z"/><path d="m693.9 445.2c0-3.4 1.7-4.9 4.3-4.9s4.5 1.6 4.5 5c0 3.1-1.8 4.6-4.5 4.6s-4.3-1.6-4.3-4.7z"/><path d="m892.9 199.1h-416.8v-190.1h416.8zm-409.1-7.7h401.4v-174.7h-401.4z"/><path d="m829.9 199.1h-116.5v-75h116.5zm-108.8-7.7h101.1v-59.5h-101.1z"/><path d="m594.8-61.5h7.7v263.7h-7.7z" transform="matrix(.4365 -.8997 .8997 .4365 273.979 578.273)"/><path d="m792 66.6h131.2v7.7h-131.2z" transform="matrix(.4799 -.8773 .8773 .4799 384.2287 789.0092)"/><path d="m627.2 806.8h-262.2v-138h262.3v138zm-254.4-9.2h246.7v-119.6h-246.7z"/><path d="m891.8 891h-882.8v-333h882.8zm-875-9.2h867.2v-314.6h-867.2z"/><path d="m13.8 567.8 2-8.9 357.2 112.5-2 8.9z"/><path d="m622 669.1 264.6-110.8 2.6 8.6-264.6 110.9z"/><path d="m622.3 806.7 2.1-8.9 264.6 84.2-2.1 8.9z"/><path d="m12.1 881.9 355.9-84.1 1.6 9-356 84.1z"/></g><path d="m144.9 187.8 27.7 4.4v4.6h-36.9v-57.9h9.2zm150.2-48.9-27 57.9h10.1l13.4-28.8 14.7-2.4 14.5 31.2h10.1l-27-57.9zm-23.1 0-15.1 32.7-11.4 1.9-16-34.5h-10.1l27 57.9h8.8l27-57.9h-10.2zm45.7 4.5 22 4.5v48.9h9.2v-48.8l22.1-4.5v-4.5h-53.2zm94.4 0v-4.5h-36.3v57.9h36.3v-4.6l-5.7-.9-21.4-3.6v-15.5l27.2-4.4v-4.6h-27.2v-15.2zm-233.9 53.4h36.3v-4.6l-27.2-4.4v-15.5l27.2-4.4v-4.6h-27.2v-15.3l27.2-4.4v-4.6h-36.3zm-84.4 0h36.3v-4.6l-27.2-4.4v-15.5l27.2-4.4v-4.6h-27.2v-15.3l27.2-4.4v-4.6h-36.3z" fill="#fd0"/></svg>