<svg id="Layer_1" data-name="Layer 1" xmlns="http://www.w3.org/2000/svg" viewBox="0 0 900 900"><defs><style>.cls-1{opacity:0.75;}.cls-2{fill:#fd0;}.cls-3{fill:#fff;}</style></defs><title>ELEVATE_splash-pg_MOBILE-slice_v2</title><g class="cls-1"><polygon points="875.61 569 876.5 563.03 9 564 356.36 672 625.89 672 875.61 569"/></g><polygon class="cls-2" points="890.8 888.44 889.83 562.52 624.06 673.45 624.06 802.66 890.8 888.44"/><g class="cls-1"><polygon points="890.83 194.97 824.58 194.97 824.58 132.99 890.83 7.99 890.83 194.97"/></g><path class="cls-3" d="M900,900H0V0H900ZM17.5,882H882.6V18H17.5Z"/><rect class="cls-2" x="331.54" y="452.94" width="312.92" height="4.76"/><path class="cls-3" d="M96.78,312.85l3.26-.37a1.87,1.87,0,0,1,2.33,1.31c0,.09.09.28.09.37l10.45,41.32,9.51-40.76a2,2,0,0,1,2.15-1.87h3.73a2.06,2.06,0,0,1,2.24,1.77v.09l9.7,40.76,10.07-40.76a2.14,2.14,0,0,1,2.24-1.87h3.26c1.59,0,2.24.84,1.87,2.33l-13.52,47.2a2.23,2.23,0,0,1-2.33,1.87h-3.64a2,2,0,0,1-2.24-1.87h0l-9.7-39.92-9.42,39.83a2.14,2.14,0,0,1-2.24,1.87H111a2.23,2.23,0,0,1-2.33-1.87l-13.43-47a1.75,1.75,0,0,1,.93-2.33A1.38,1.38,0,0,1,96.78,312.85Z"/><path class="cls-3" d="M178.85,322.46c9.42,0,15.2,5.69,15.2,15.2v6.25a2,2,0,0,1-1.68,2.15h-.47L170.46,346v3.26c-.09,6.53,2.89,9.7,8.39,9.7,3.82,0,6.16-1.49,7.37-3.73.65-1.21,1.31-1.59,2.61-1.21l2.24.56c1.31.37,2,1.31,1.4,2.52-2.05,4.57-6.72,7.83-13.62,7.83-9.42,0-15.2-5.69-15.2-15.2V337.47C163.65,328.15,169.43,322.46,178.85,322.46Zm8.3,15.76c0-6.44-2.89-9.79-8.39-9.79s-8.39,3.26-8.39,9.79v2.33h16.79Z"/><path class="cls-3" d="M210.47,355.29c1.4,2.24,3.92,3.92,7.93,3.92,5.32,0,7.83-2.8,7.83-6.25v-.47c0-4.1-3.64-5.32-9.14-6C210,345.68,204,342.6,204,335.23v-1.31c0-6.72,4.48-11.47,13.71-11.47,7.28,0,11.75,3.26,13.43,7.65a1.78,1.78,0,0,1-1.4,2.52l-2.24.56c-1.31.37-1.87-.09-2.52-1.31-1-2.24-3.26-3.82-7.28-3.82-5,0-7,2.61-7,6.06v.37c0,3.73,3.26,5,8.77,5.88,7.09,1.12,13.52,3.08,13.52,11.1v1.68c-.09,6.72-5.32,11.75-14.64,11.75-7.37,0-12.22-3-14.27-7.55a1.72,1.72,0,0,1,1.4-2.52l2.43-.65C209.17,353.7,209.73,354.26,210.47,355.29Z"/><path class="cls-3" d="M241.16,329A2,2,0,0,1,239,327.4v-2.15a2,2,0,0,1,1.68-2.15h2.7l1-4.85a2.38,2.38,0,0,1,1.87-2.05l1.59-.19c1.31-.28,2.15.47,2.15,1.87v5.22h9.23c1.4,0,2.05.75,2.05,2.15v1.59c0,1.4-.65,2.15-2.05,2.15H250l-.09,22.39c0,5.88,1,8,6,8a19.29,19.29,0,0,0,3.26-.28,2,2,0,0,1,2.52,1.68l.19,1.4a1.84,1.84,0,0,1-1.12,2.33,1.18,1.18,0,0,1-.56.09,22.32,22.32,0,0,1-4.94.56c-8.86,0-12-3.64-12-13.06V329Z"/><path class="cls-3" d="M293.67,355.29c1.4,2.24,3.92,3.92,7.93,3.92,5.32,0,7.83-2.8,7.83-6.25v-.47c0-4.1-3.64-5.32-9.14-6-7.09-.84-13.06-3.92-13.06-11.29v-1.31c0-6.72,4.48-11.47,13.71-11.47,7.28,0,11.75,3.26,13.43,7.65a1.78,1.78,0,0,1-1.4,2.52l-2.24.56c-1.31.37-1.87-.09-2.52-1.31-1-2.24-3.26-3.82-7.28-3.82-5,0-7,2.61-7,6.06v.37c0,3.73,3.26,5,8.77,5.88,7.09,1.12,13.52,3.08,13.52,11.1v1.68c-.09,6.72-5.32,11.75-14.55,11.75-7.37,0-12.22-3-14.27-7.55a1.72,1.72,0,0,1,1.4-2.52l2.43-.65C292.36,353.7,293,354.26,293.67,355.29Z"/><path class="cls-3" d="M333,325.25V362a2,2,0,0,1-1.59,2.15h-3.08a2,2,0,0,1-2.15-1.68V329h-2.33a2,2,0,0,1-2.15-1.59v-2.15a2,2,0,0,1,1.68-2.15H331a1.88,1.88,0,0,1,2.05,1.68A.42.42,0,0,1,333,325.25Zm-3.45-5.5c-2.52,0-4.1-1.21-4.1-4.29s1.59-4.48,4.1-4.48,4.29,1.31,4.29,4.48c-.09,3-1.87,4.29-4.29,4.29Z"/><path class="cls-3" d="M370,363.31a23.21,23.21,0,0,1-1-2.7,15.11,15.11,0,0,1-10.63,4.29c-8.86,0-13.52-5.69-13.52-15.2V337c0-9.42,4.48-14.64,13.06-14.64a23.49,23.49,0,0,1,10.07,2.05v-11.1a2.1,2.1,0,0,1,2-2.24h0l2.52-.28c1.49-.19,2.24.47,2.24,1.87v38.71c0,4.38.19,6.81,1.21,9.33.47,1.31.19,2.24-1.12,2.7l-2.15.75A1.81,1.81,0,0,1,370,363.31Zm-11.1-34.79c-5.13,0-7.37,3.17-7.37,9.42v10.91c0,6.62,2.15,10,7.65,10a9.71,9.71,0,0,0,8.77-4.57V330.48a21.64,21.64,0,0,0-9-2Z"/><path class="cls-3" d="M401.49,322.46c9.42,0,15.2,5.69,15.2,15.2v6.25a2,2,0,0,1-1.68,2.15h-.47L393.19,346v3.26c-.09,6.53,2.89,9.7,8.39,9.7,3.82,0,6.16-1.49,7.37-3.73.65-1.21,1.31-1.59,2.61-1.21l2.24.56c1.31.37,2,1.31,1.4,2.52-2.05,4.57-6.72,7.83-13.62,7.83-9.42,0-15.2-5.69-15.2-15.2V337.47C386.29,328.15,392.16,322.46,401.49,322.46Zm8.39,15.76c0-6.44-2.89-9.79-8.39-9.79s-8.39,3.26-8.39,9.79v2.33h16.79Z"/><path class="cls-3" d="M447.1,353.7V313.41a2.08,2.08,0,0,1,1.87-2.24h.09l2.52-.28c1.49-.19,2.24.47,2.24,1.87l.09,38.61c-.09,4.38.19,6.81,1.21,9.33a1.88,1.88,0,0,1-1.12,2.7l-2.43.75c-1.21.47-2.05.37-2.52-.47C447.66,360.88,447.1,358,447.1,353.7Z"/><path class="cls-3" d="M472.66,325.25V362a2,2,0,0,1-1.59,2.15h-3a2,2,0,0,1-2.15-1.68V329h-2.33a2,2,0,0,1-2.15-1.59v-2.15a2,2,0,0,1,1.68-2.15h7.55a1.88,1.88,0,0,1,2.05,1.68A1,1,0,0,0,472.66,325.25Zm-3.54-5.5c-2.52,0-4.1-1.21-4.1-4.29s1.59-4.48,4.1-4.48,4.29,1.31,4.29,4.48C473.4,318.45,471.63,319.75,469.11,319.75Z"/><path class="cls-3" d="M482.45,323.11l3-.37a1.87,1.87,0,0,1,2.33,1.31.34.34,0,0,0,.09.28L497.19,356l9-31.15a2.16,2.16,0,0,1,2.33-1.77h3c1.59,0,2.24.93,1.77,2.43L501,362.38a2.32,2.32,0,0,1-2.43,1.77h-3a2.16,2.16,0,0,1-2.33-1.77L481,325.53a1.76,1.76,0,0,1,.84-2.33C481.89,323.11,482.17,323.11,482.45,323.11Z"/><path class="cls-3" d="M528.34,325.25V362a2,2,0,0,1-1.59,2.15h-3a2,2,0,0,1-2.15-1.68V329h-2.33a2,2,0,0,1-2.15-1.59v-2.15a2,2,0,0,1,1.68-2.15h7.55a1.88,1.88,0,0,1,2.05,1.68A1,1,0,0,0,528.34,325.25Zm-3.54-5.5c-2.52,0-4.1-1.21-4.1-4.29s1.59-4.48,4.1-4.48,4.29,1.31,4.29,4.48c0,3-1.77,4.29-4.29,4.29Z"/><path class="cls-3" d="M542.42,323.11l2.52-.28a1.81,1.81,0,0,1,2.24,1.12,2.05,2.05,0,0,1,.09.75l-.09,2.52c2.52-2.61,6.34-4.85,10.35-4.85,8.77,0,12.5,4.94,12.5,14.18V362a2,2,0,0,1-1.59,2.15h-3.08a1.88,1.88,0,0,1-2.05-1.68v-25c0-6-1.68-9-7-9-3.54,0-7.09,2.8-9,5.41L547.27,362c0,1.4-.65,2.15-2.05,2.15H542.7a2,2,0,0,1-2.15-1.68V325.25a1.88,1.88,0,0,1,1.87-2.15Z"/><path class="cls-3" d="M611.54,325.25v37c0,9-6,13.62-14.83,13.62-8,0-12.87-2.61-14.27-7.74-.47-1.21.28-2.15,1.68-2.33l2.52-.37a2.22,2.22,0,0,1,2.52,1.4c1,2.24,3.26,3,7.65,3,4.85,0,8-2.24,8-8.39v-4.29a14.77,14.77,0,0,1-10.07,4.29c-9,0-13-4.94-13-14.46v-9.79c0-9.42,4.38-14.64,13-14.64a25,25,0,0,1,10.45,2.24l.65-.56a3.21,3.21,0,0,1,2.52-.84h1.21C610.89,323.2,611.54,323.86,611.54,325.25Zm-15.76,3.36c-5.13,0-7.37,3.17-7.37,9.42l.09,8c-.09,6.16,2,9.14,7.28,9.14,3.54,0,6.9-2.05,9.14-4.57l-.09-20.05a19.35,19.35,0,0,0-9-2Z"/><path class="cls-3" d="M649.31,325.25V362a2,2,0,0,1-1.59,2.15h-3a2,2,0,0,1-2.15-1.68V329h-2.33a2,2,0,0,1-2.15-1.59v-2.15a2,2,0,0,1,1.68-2.15h7.55a1.88,1.88,0,0,1,2.05,1.68A1,1,0,0,0,649.31,325.25Zm-3.54-5.5c-2.52,0-4.1-1.21-4.1-4.29s1.59-4.48,4.1-4.48,4.29,1.31,4.29,4.48c0,3-1.77,4.29-4.29,4.29Z"/><path class="cls-3" d="M666.48,355.29c1.4,2.24,3.92,3.92,7.93,3.92,5.32,0,7.83-2.8,7.83-6.25v-.47c0-4.1-3.64-5.32-9.14-6C666,345.68,660,342.6,660,335.23v-1.31c0-6.72,4.48-11.47,13.71-11.47,7.28,0,11.75,3.26,13.43,7.65a1.78,1.78,0,0,1-1.4,2.52l-2.24.56c-1.31.37-1.87-.09-2.52-1.31-1-2.24-3.26-3.82-7.28-3.82-5,0-7,2.61-7,6.06v.37c0,3.73,3.26,5,8.77,5.88,7.09,1.12,13.52,3.08,13.52,11.1v1.68c-.09,6.72-5.32,11.75-14.55,11.75-7.37,0-12.22-3-14.27-7.55a1.72,1.72,0,0,1,1.4-2.52l2.43-.65C665.17,353.7,665.73,354.26,666.48,355.29Z"/><path class="cls-3" d="M113.75,402.86c9.42,0,15.2,5.69,15.2,15.2v12.13c0,9.42-5.78,15.2-15.2,15.2s-15.2-5.69-15.2-15.2V418.06C98.55,408.55,104.42,402.86,113.75,402.86Zm0,36.38c5.32,0,8.39-3.36,8.39-10V418.81c0-6.62-3-10-8.39-10s-8.39,3.36-8.39,10v10.45C105.36,435.87,108.34,439.23,113.75,439.23Z"/><path class="cls-3" d="M142.48,403.51l2.52-.28a1.81,1.81,0,0,1,2.24,1.12,2.05,2.05,0,0,1,.09.75l-.09,2.52c2.52-2.61,6.34-4.85,10.35-4.85,8.77,0,12.5,4.94,12.5,14.18V442.4a2,2,0,0,1-1.59,2.15h-3.08a1.88,1.88,0,0,1-2.05-1.68v-25c0-6-1.68-9-7-9-3.54,0-7.09,2.8-9,5.41l-.09,28.17c0,1.4-.65,2.15-2.05,2.15h-2.52a2,2,0,0,1-2.15-1.68V405.65a1.88,1.88,0,0,1,1.87-2.15Z"/><path class="cls-3" d="M199.09,409.39a2,2,0,0,1-2.15-1.59v-2.05a2,2,0,0,1,1.68-2.15h2.7l1-4.85a2.38,2.38,0,0,1,1.87-2.05l1.59-.19c1.31-.28,2.15.47,2.15,1.87v5.22h9.23c1.4,0,2.05.75,2.05,2.15v1.59c0,1.4-.65,2.15-2.05,2.15H208l-.09,22.29c0,5.88,1,8,6,8a19.29,19.29,0,0,0,3.26-.28,2,2,0,0,1,2.52,1.68l.19,1.4a1.84,1.84,0,0,1-1.12,2.33,1.18,1.18,0,0,1-.56.09,22.32,22.32,0,0,1-4.94.56c-8.86,0-12-3.64-12-13.06V409.39h-2.05Z"/><path class="cls-3" d="M229.59,391.57l2.52-.28a1.75,1.75,0,0,1,2.15,1.12,2.05,2.05,0,0,1,.09.75v14.27a14.2,14.2,0,0,1,10.26-4.57c8.77,0,12.5,4.76,12.5,13.8V442.5a2,2,0,0,1-1.59,2.15h-3.08a1.88,1.88,0,0,1-2.05-1.68V417.69c0-6-1.87-8.77-7.09-8.77-3.54,0-6.9,2.52-8.86,5.13v28.54a2,2,0,0,1-1.59,2.15h-3a2,2,0,0,1-2.15-1.68V393.9a2,2,0,0,1,1.87-2.33Z"/><path class="cls-3" d="M283.69,402.86c9.42,0,15.2,5.69,15.2,15.2v6.25a2,2,0,0,1-1.68,2.15h-.47l-21.36-.09v3.26c-.09,6.53,2.89,9.7,8.39,9.7,3.82,0,6.16-1.49,7.37-3.73.65-1.21,1.31-1.59,2.61-1.21l2.24.56c1.31.37,2,1.31,1.4,2.52-2.05,4.66-6.72,7.83-13.62,7.83-9.42,0-15.2-5.69-15.2-15.2V418C268.49,408.55,274.27,402.86,283.69,402.86Zm8.3,15.86c0-6.44-2.89-9.79-8.39-9.79s-8.39,3.26-8.39,9.79V421H292Z"/><path class="cls-3" d="M341.52,445.39c-8.77,0-12.5-5.32-12.5-14.83V405.84a2.08,2.08,0,0,1,1.87-2.24H331l2.52-.28c1.49-.28,2.24.47,2.24,1.87l.09,24.62c0,6.53,1.59,9.61,6.53,9.61a10.51,10.51,0,0,0,9-4.57V405.93a2.08,2.08,0,0,1,1.87-2.24h.09l2.61-.28c1.4-.28,2.15.47,2.15,1.87l.09,26.68c-.09,4.38.19,6.81,1.21,9.33.47,1.31.19,2.24-1.12,2.7l-2.15.75c-1.21.47-2.24.28-2.7-.75s-.75-1.87-1-2.8A17.81,17.81,0,0,1,341.52,445.39Z"/><path class="cls-3" d="M387,402.86c9,0,13,5.22,13,14.64v12.68c0,9.42-5.41,15.2-14.55,15.2a28.74,28.74,0,0,1-8.49-1.21l-.09,8.58A2,2,0,0,1,375.1,455H375l-2.52.28c-1.49.28-2.24-.47-2.24-1.87V405.84a2.08,2.08,0,0,1,1.87-2.24h.09l2.52-.28a1.7,1.7,0,0,1,2.24,1.87v2.43A13.65,13.65,0,0,1,387,402.86ZM385.92,409c-3.64,0-7.09,2.61-9,5.22v23.5a18.56,18.56,0,0,0,8.11,1.59c5.41,0,8.21-3.36,8.21-10v-11c0-6.16-1.87-9.33-7.28-9.33Z"/><path class="cls-3" d="M460.16,441.1c.47,1.31.19,2.24-1.12,2.7l-2.15.75c-1.21.47-2.24.28-2.61-.75a13.48,13.48,0,0,1-1-2.7,16,16,0,0,1-11,4.29c-8.11,0-13.24-3.73-13.24-11.75,0-8.77,5.5-11.57,13.9-11.57h9.33v-4.76c0-6.06-2.43-8.39-7.74-8.39-3.54,0-6.06,1.4-7.37,3.54-.65,1.12-1.31,1.59-2.52,1.21l-2.52-.65c-1.31-.47-1.87-1.31-1.31-2.61,2.05-4.29,6.9-7.55,13.71-7.55,9.42,0,14.55,4.57,14.55,13.52v15.48C458.95,436.15,459.13,438.58,460.16,441.1ZM443,439.79a11,11,0,0,0,9.23-4.85V427.2h-9c-4.76,0-7.28,1.59-7.28,6.25,0,4.48,2.89,6.34,7.09,6.34Z"/><path class="cls-3" d="M472.94,403.51l2.52-.28a1.81,1.81,0,0,1,2.24,1.12,2.05,2.05,0,0,1,.09.75l-.09,2.52c2.52-2.61,6.34-4.85,10.35-4.85,8.77,0,12.5,4.94,12.5,14.18V442.4a2,2,0,0,1-1.59,2.15h-3.08a1.88,1.88,0,0,1-2.05-1.68v-25c0-6-1.68-9-7-9-3.54,0-7.09,2.8-9,5.41l-.09,28.17c0,1.4-.65,2.15-2.05,2.15h-2.61a2,2,0,0,1-2.15-1.68V405.65a2,2,0,0,1,2-2.15Z"/><path class="cls-3" d="M537.39,443.8a23.2,23.2,0,0,1-1-2.7,15.69,15.69,0,0,1-10.63,4.29c-8.86,0-13.52-5.69-13.52-15.2V417.5c0-9.42,4.48-14.64,13.06-14.64a23.49,23.49,0,0,1,10.07,2.05v-11.1a2.1,2.1,0,0,1,2-2.24h0l2.52-.28c1.49-.19,2.24.47,2.24,1.87v38.61c0,4.38.19,6.81,1.21,9.33.47,1.31.19,2.24-1.12,2.7l-2.15.75C538.79,445.11,537.85,444.83,537.39,443.8ZM526.2,409c-5.13,0-7.37,3.17-7.37,9.42v10.91c0,6.62,2.15,10,7.65,10a9.71,9.71,0,0,0,8.77-4.57V411a18.87,18.87,0,0,0-9-2Z"/><path class="cls-3" d="M585.33,445.39c-8.77,0-12.5-5.32-12.5-14.83V405.84a2.08,2.08,0,0,1,1.87-2.24h.09l2.52-.28c1.49-.28,2.24.47,2.24,1.87l.09,24.62c0,6.53,1.59,9.61,6.53,9.61a10.51,10.51,0,0,0,9-4.57V405.93a2.08,2.08,0,0,1,1.87-2.24h.09l2.61-.28c1.4-.28,2.15.47,2.15,1.87L602,432c-.09,4.38.19,6.81,1.21,9.33.47,1.31.19,2.24-1.12,2.7l-2.15.75c-1.21.47-2.24.28-2.7-.75s-.75-1.87-1-2.8A17.59,17.59,0,0,1,585.33,445.39Z"/><path class="cls-3" d="M630.85,402.86c9,0,13,5.22,13,14.64v12.68c0,9.42-5.41,15.2-14.55,15.2a29.18,29.18,0,0,1-8.49-1.21l-.09,8.58a2,2,0,0,1-1.77,2.24h-.09l-2.52.28c-1.49.28-2.24-.47-2.24-1.87V405.75a2.08,2.08,0,0,1,1.87-2.24H616l2.52-.28a1.7,1.7,0,0,1,2.24,1.87v2.43A13.9,13.9,0,0,1,630.85,402.86ZM629.73,409c-3.64,0-7.09,2.61-9,5.22v23.5a18.56,18.56,0,0,0,8.11,1.59c5.41,0,8.21-3.36,8.21-10v-11C637.09,412.18,635.14,409,629.73,409Z"/><path class="cls-3" d="M653.6,441.1c0-3.17,1.59-4.57,4-4.57s4.2,1.49,4.2,4.66c0,2.89-1.68,4.29-4.2,4.29S653.6,444,653.6,441.1Z"/><path class="cls-3" d="M892.9,199.1H476.1V9H892.9Zm-409.1-7.7H885.2V16.7H483.8Z"/><path class="cls-3" d="M829.9,199.1H713.4v-75H829.9Zm-108.8-7.7H822.2V131.9H721.1Z"/><rect class="cls-3" x="594.73" y="-61.47" width="7.7" height="263.7" transform="translate(273.98 578.2) rotate(-64.12)"/><rect class="cls-3" x="792" y="66.6" width="131.2" height="7.7" transform="translate(384.22 789.02) rotate(-61.32)"/><path class="cls-3" d="M627.2,806.8H365v-138H627.3v138Zm-254.4-9.2H619.5V678H372.8Z"/><path class="cls-3" d="M891.8,891H9V558H891.8Zm-875-9.2H884V567.2H16.8Z"/><polygon class="cls-3" points="13.8 567.8 15.8 558.9 373 671.4 371 680.3 13.8 567.8"/><polygon class="cls-3" points="622 669.1 886.6 558.3 889.2 566.9 624.6 677.8 622 669.1"/><polygon class="cls-3" points="622.3 806.7 624.4 797.8 889 882 886.9 890.9 622.3 806.7"/><polygon class="cls-3" points="12.1 881.9 368 797.8 369.6 806.8 13.6 890.9 12.1 881.9"/><path class="cls-2" d="M144.9,187.8l27.7,4.4v4.6H135.7V138.9h9.2Zm150.2-48.9-27,57.9h10.1L291.6,168l14.7-2.4,14.5,31.2h10.1l-27-57.9Zm-23.1,0-15.1,32.7-11.4,1.9-16-34.5H219.4l27,57.9h8.8l27-57.9H272Zm45.7,4.5,22,4.5v48.9h9.2V148l22.1-4.5V139H317.8Zm94.4,0v-4.5H375.8v57.9h36.3v-4.6l-5.7-.9L385,187.7V172.2l27.2-4.4v-4.6H385V148ZM178.2,196.8h36.3v-4.6l-27.2-4.4V172.3l27.2-4.4v-4.6H187.3V148l27.2-4.4V139H178.2Zm-84.4,0h36.3v-4.6l-27.2-4.4V172.3l27.2-4.4v-4.6H102.9V148l27.2-4.4V139H93.8Z"/></svg>