<svg xmlns="http://www.w3.org/2000/svg" width="31" height="26" viewBox="0 0 31 26"><path fill="#FD0" fill-rule="evenodd" d="M29.66.47a12.323 12.323 0 0 1-3.977 1.555A6.17 6.17 0 0 0 21.117 0c-3.454 0-6.256 2.873-6.256 6.416 0 .503.054.991.161 1.462-5.2-.268-9.81-2.82-12.898-6.707a6.535 6.535 0 0 0-.847 3.23 6.46 6.46 0 0 0 2.783 5.34 6.152 6.152 0 0 1-2.836-.8v.079c0 3.11 2.158 5.704 5.023 6.291a5.948 5.948 0 0 1-1.649.226c-.403 0-.797-.039-1.178-.114.797 2.548 3.106 4.404 5.844 4.454a12.351 12.351 0 0 1-7.771 2.748A12.47 12.47 0 0 1 0 22.537a17.417 17.417 0 0 0 9.593 2.88c11.511 0 17.804-9.775 17.804-18.256 0-.278-.006-.557-.016-.831a12.85 12.85 0 0 0 3.12-3.321c-1.12.511-2.327.856-3.593 1.01A6.405 6.405 0 0 0 29.66.47"/></svg>